<svg version="1.1" id="Layer_1" xmlns="http://www.w3.org/2000/svg" xmlns:xlink="http://www.w3.org/1999/xlink" x="0px" y="0px"
	 width="100%" viewBox="0 0 300 323" enable-background="new 0 0 300 323" xml:space="preserve">
<path fill="#FEFEFF" opacity="1.000000" stroke="none" 
	d="
M201.000000,324.000000 
	C134.000031,324.000000 67.500061,324.000000 1.000071,324.000000 
	C1.000048,216.333420 1.000048,108.666832 1.000024,1.000187 
	C100.999870,1.000125 200.999741,1.000125 300.999695,1.000062 
	C300.999817,108.666481 300.999817,216.332962 300.999908,323.999725 
	C267.833344,324.000000 234.666672,324.000000 201.000000,324.000000 
M162.445480,17.029642 
	C156.368073,12.159016 149.341766,11.241827 143.440033,14.548747 
	C136.711075,18.319178 134.406540,24.337908 135.862564,34.568100 
	C130.876877,35.700287 125.808533,36.602520 120.884796,38.010433 
	C92.559433,46.109886 76.781082,66.881714 76.034920,96.345558 
	C75.769569,106.823662 75.486855,117.375313 74.071289,127.737556 
	C67.736610,174.108719 49.798775,214.740555 14.232923,246.489777 
	C12.761345,247.803421 11.912288,250.893143 12.220391,252.937271 
	C13.647467,262.405334 22.821733,269.861938 32.839653,269.906525 
	C55.169975,270.005829 77.500954,269.958069 99.831665,269.969818 
	C102.473305,269.971191 105.114937,269.969971 107.660736,269.969971 
	C113.507507,297.620789 127.223915,311.907532 148.420074,312.900696 
	C158.405273,313.368622 167.620529,311.183868 175.805420,305.322784 
	C187.807465,296.728302 193.963593,284.893921 194.456177,270.003357 
	C196.641464,270.003357 198.295746,270.003571 199.950027,270.003326 
	C222.947769,270.000153 245.945648,270.038727 268.943207,269.975159 
	C279.672058,269.945496 288.627289,262.895203 290.413300,252.742554 
	C290.759247,250.776062 289.771515,247.722794 288.296143,246.414810 
	C262.619049,223.650757 245.947815,195.349075 235.926010,162.785095 
	C228.945862,140.104477 227.066879,116.821671 226.137161,93.255020 
	C225.030823,65.210838 209.093674,45.884323 182.079956,38.133152 
	C177.008286,36.677917 171.792740,35.724087 166.527328,34.512115 
	C168.081284,28.135405 167.642212,22.373459 162.445480,17.029642 
z"/>
<path fill="#223E7C" opacity="1.000000" stroke="none" 
	d="
M162.706299,17.292973 
	C167.642212,22.373459 168.081284,28.135405 166.527328,34.512115 
	C171.792740,35.724087 177.008286,36.677917 182.079956,38.133152 
	C209.093674,45.884323 225.030823,65.210838 226.137161,93.255020 
	C227.066879,116.821671 228.945862,140.104477 235.926010,162.785095 
	C245.947815,195.349075 262.619049,223.650757 288.296143,246.414810 
	C289.771515,247.722794 290.759247,250.776062 290.413300,252.742554 
	C288.627289,262.895203 279.672058,269.945496 268.943207,269.975159 
	C245.945648,270.038727 222.947769,270.000153 199.950027,270.003326 
	C198.295746,270.003571 196.641464,270.003357 194.456177,270.003357 
	C193.963593,284.893921 187.807465,296.728302 175.805420,305.322784 
	C167.620529,311.183868 158.405273,313.368622 148.420074,312.900696 
	C127.223915,311.907532 113.507507,297.620789 107.660736,269.969971 
	C105.114937,269.969971 102.473305,269.971191 99.831665,269.969818 
	C77.500954,269.958069 55.169975,270.005829 32.839653,269.906525 
	C22.821733,269.861938 13.647467,262.405334 12.220391,252.937271 
	C11.912288,250.893143 12.761345,247.803421 14.232923,246.489777 
	C49.798775,214.740555 67.736610,174.108719 74.071289,127.737556 
	C75.486855,117.375313 75.769569,106.823662 76.034920,96.345558 
	C76.781082,66.881714 92.559433,46.109886 120.884796,38.010433 
	C125.808533,36.602520 130.876877,35.700287 135.862564,34.568100 
	C134.406540,24.337908 136.711075,18.319178 143.440033,14.548747 
	C149.341766,11.241827 156.368073,12.159016 162.706299,17.292973 
M135.458176,288.094208 
	C130.642426,283.820526 128.038406,278.467712 127.090141,272.097748 
	C126.840996,270.424164 125.210556,268.956207 124.214432,267.393799 
	C123.419312,269.116821 121.913521,270.851532 121.941566,272.561096 
	C122.164513,286.151276 135.500702,299.346008 149.574951,299.849365 
	C151.014786,299.900848 152.525879,297.960297 154.003906,296.944122 
	C152.722916,295.956696 151.577057,294.649200 150.136047,294.040741 
	C145.487701,292.078064 140.730698,290.372742 135.458176,288.094208 
z"/>
<path fill="#F3F5FA" opacity="1.000000" stroke="none" 
	d="
M135.736877,288.331207 
	C140.730698,290.372742 145.487701,292.078064 150.136047,294.040741 
	C151.577057,294.649200 152.722916,295.956696 154.003906,296.944122 
	C152.525879,297.960297 151.014786,299.900848 149.574951,299.849365 
	C135.500702,299.346008 122.164513,286.151276 121.941566,272.561096 
	C121.913521,270.851532 123.419312,269.116821 124.214439,267.393799 
	C125.210556,268.956207 126.840996,270.424164 127.090141,272.097748 
	C128.038406,278.467712 130.642426,283.820526 135.736877,288.331207 
z"/>
</svg>