<svg id="Layer_1" data-name="Layer 1" xmlns="http://www.w3.org/2000/svg" viewBox="0 0 2753 2000"><defs><style>.cls-1,.cls-24{fill:#9bc1f9;}.cls-1{opacity:0.1;}.cls-2{fill:#256653;}.cls-3{fill:#3c8f7c;}.cls-4{fill:#327f6b;}.cls-5{fill:#50bfa5;}.cls-6{fill:#96d9c9;}.cls-7{fill:#f8a492;}.cls-8{fill:#355389;}.cls-9{fill:#fe875e;}.cls-10{fill:#13375b;}.cls-11{fill:#f7cc7f;}.cls-12{fill:#f48c7f;}.cls-13{fill:#f47458;}.cls-14{fill:#0f52e8;}.cls-15{fill:#0da2d6;}.cls-16{fill:#f7a491;}.cls-17{fill:#466eb6;}.cls-18{fill:#fff;}.cls-19{fill:#dd513a;}.cls-20{fill:#e0973f;}.cls-21{fill:#0e2e35;}.cls-22{fill:#184655;}.cls-23{fill:#6a97ce;}</style></defs><path class="cls-1" d="M280.76,1871H2558.23c188.77-157.47,91.63-631.31-66.05-727.37-169.72-103.4,99.79-461-161.66-577.06-170.71-75.78-442.21,6.82-405.69-195.94C1975.47,89.43,1383.56,17.4,947.48,93.18,476,175.12,906.56,578,388.1,659.14,121.51,700.88,173,1058,197.88,1131.75,219.53,1196,362.77,1298,163.7,1438.34-128.2,1644.18,273.88,1867.17,280.76,1871Z"/><path class="cls-2" d="M2303.74,668.28s-37.28,81.16-62.37,115.45-49,67.07-69,162.23-16.59,104.72-22.07,129.3-41.13,124.16-41.34,142.42-72.06,122.21-90.47,170.87-51,118.15-49.17,153.53l8.19-2.08s6.67-82.5,63.47-165.88,48.68-99.12,113.19-142S2260.33,1071,2260.33,1071,2326,942.49,2322.9,875.67,2337.26,748.61,2303.74,668.28Z"/><path class="cls-2" d="M2216.43,543.44s-2.17,53.32-19.37,85-32,50.91-35.13,85.18S2148,836.22,2100.05,879.35s-54.08,172.37-90.59,211.46-41.27,67.2-34.53,134.25,29.64,160-23.31,281.26l-12-30.17s37.88-99.78,28.71-158.21-41.08-146.71-29.4-189-31.76-50.61-5.6-114.65,15.41-86.29,51-141.66c0,0,3.65-2.59,13-49.44s84.83-132.71,119.61-162S2201.89,584.87,2216.43,543.44Z"/><path class="cls-3" d="M2074.78,807.43s-41.65,71.3-42.24,117.19,4.38,83.23-16.69,146.07,20.75,102.58,8.69,137.28-13,75.78-12.62,106.93-47.7,134.26-55,186.46,2,52.38,2,52.38,8-68.92,19-91.71,44.69-101.37,52.55-131.77,29.15-49.91,47.52-101.39,44.49-94.85,42.5-167.91S2147.94,910.8,2074.78,807.43Z"/><path class="cls-3" d="M1986.61,1505.9s19.42-90.49,101.31-99.53,130,7.16,187.86-58.95,91.46-171,109.94-189.09c0,0-29.07-15-77.39,30.22s-82.28,79.46-110.26,105.76-50.69,9.16-80.23,26.5c-24.76,14.53-56.77,56.54-70.87,78.54a99.07,99.07,0,0,1-16.25,19.46c-5.67,5.24-12.43,11.66-16.76,16.38-8.67,9.45-33.68,71-33.68,71Z"/><path class="cls-3" d="M1957.74,1489.94s28.87-110.67,9.53-164.83-79.85-94.23-77.42-128.25,41.29-126,9.61-194.42c0,0-12,61.06-23.91,74.64s-93.37,68.36-78.93,140.71,93.68,89.25,113.19,110.55,45.86,21.27,46,35.43,5.31,65.65-3.44,116.46Z"/><path class="cls-4" d="M1989.3,1415.88l40.55-116.8s23.82-93.95,37.62-172.29,7.31-319.36,7.31-319.36-41.65,71.3-42.24,117.19,4.38,83.23-16.69,146.07,20.75,102.58,8.69,137.28-13,75.78-12.62,106.93-47.7,134.26-55,186.46c-4,28.6-3,41.57-1.29,47.46C1949.11,1503.16,1989.3,1415.88,1989.3,1415.88Z"/><path class="cls-4" d="M2189,1346.3c-36.17,7.22-68.51,4.76-111.45,36.72s-68.19,66.09-68.19,66.09-19.3,34.49-27.28,52.68c-1.15,2.78-1.82,4.44-1.82,4.44l6.33-.33s19.42-90.49,101.31-99.53,130,7.16,187.86-58.95,91.46-171,109.94-189.09c0,0-61.53,47.87-99.56,90.24S2225.2,1339.07,2189,1346.3Z"/><path class="cls-4" d="M1875.55,1077.08c-11.88,13.59-93.37,68.36-78.93,140.71s93.68,89.25,113.19,110.55,45.86,21.27,46,35.43,5.31,65.65-3.44,116.46l2.34,4.24c4.27-19.83,10.2-50,12.14-73,3.15-37.23-2.88-52.65-14.85-82.81s-86.34-91.61-105-123.91,35.94-86.3,48-112.37,4.37-90,4.37-90S1887.42,1063.5,1875.55,1077.08Z"/><path class="cls-5" d="M2068.88,1436.47l12.73-30.77c9.88-22.63,35.15-33.43,56.45-24.13h0c53.69,23.43,77,88.65,52.13,145.68l-18.2,41.69c-8,18.26-5.2,38.36,5.56,52.52,9.76,12.87,11.35,30.76,4.58,46.27l-9.59,22A87.44,87.44,0,0,1,2118,1738.4a53,53,0,0,0-32.95,29.77l-13.58,31.12c-15,34.4-53.45,50.83-85.84,36.7l-18.48-8.07c-32.39-14.14-46.47-53.49-31.45-87.9h0c24.29-41.14,22.35-71.84,13.74-92.67a124.58,124.58,0,0,1,1.19-97.21l1.92-4.4a123.67,123.67,0,0,1,75.57-68.39C2042.76,1472.68,2058.05,1461.27,2068.88,1436.47Z"/><path class="cls-6" d="M1839.66,1871c26-33.78,168.9-214.72,262-244.88,102.82-33.28,5.91,98.92,5.91,98.92s182.39-199.44,249.33-181.46c61.35,16.48,0,140.1,0,140.1s69.1-68.46,152.9-68.46c81.55,0-57,242.78-64.46,255.78Z"/><path class="cls-3" d="M2389.32,1479.52a1201.81,1201.81,0,0,0-160,383l-5.11-1.37a1209.54,1209.54,0,0,1,159.38-379.8c17.29-27,36-59.07,68.34-69.61.62-.2.86.75.26,1C2422.62,1423.88,2405.5,1454.26,2389.32,1479.52Z"/><path class="cls-3" d="M2247.28,1867.37a1501.87,1501.87,0,0,1,304.89-308.93c1.21-.91,2.83,1.19,1.62,2.12a1500.47,1500.47,0,0,0-300.18,308.5Z"/><path class="cls-3" d="M2396.13,1407.35c1.92,2.82,9.26,10.18,11.42,19.84,2.9,9.17.61,20.65.36,20.25-.55.23,8.5-7.42,11.33-19.59,3.66-11.68,1.1-27.87-3.46-33.23-7.86-12.13-21.6-13.36-24.27-7.48C2388.68,1393,2392.27,1400.93,2396.13,1407.35Z"/><path class="cls-3" d="M2414,1511.23c-2.78-2-10-9.46-19.62-11.81-9.11-3.07-20.63-1-20.24-.76-.23.55,7.59-8.35,19.82-10.93,11.74-3.43,27.88-.55,33.15,4.11,12,8.1,12.93,21.86,7,24.41C2428.17,1519,2420.3,1515.22,2414,1511.23Z"/><path class="cls-3" d="M2387.05,1556.76c-2.78-2-10-9.46-19.61-11.8-9.11-3.08-20.64-1-20.24-.77-.24.55,7.59-8.35,19.81-10.93,11.75-3.43,27.89-.55,33.16,4.11,12,8.1,12.93,21.86,7,24.41C2401.27,1564.5,2393.39,1560.75,2387.05,1556.76Z"/><path class="cls-3" d="M2483,1662.38c-2.78-2-10-9.47-19.62-11.81-9.11-3.08-20.63-1-20.23-.77-.24.55,7.58-8.35,19.81-10.93,11.74-3.43,27.88-.55,33.15,4.11,12,8.1,12.93,21.86,7,24.41C2497.23,1670.11,2489.36,1666.36,2483,1662.38Z"/><path class="cls-3" d="M2532.05,1619.18c-2.78-2-10-9.46-19.62-11.81-9.11-3.08-20.63-1-20.24-.76-.24.55,7.59-8.35,19.82-10.94,11.74-3.42,27.88-.54,33.15,4.11,12,8.1,12.93,21.86,7,24.42C2546.26,1626.91,2538.39,1623.17,2532.05,1619.18Z"/><path class="cls-3" d="M2358.49,1458.87c2.34,2.48,10.75,8.59,14.4,17.8,4.31,8.59,3.86,20.29,3.55,19.93-.51.32,7.22-8.67,8.1-21.13,1.77-12.11-3.31-27.69-8.65-32.27-9.68-10.74-23.44-9.78-25.15-3.56C2348.87,1445.86,2353.67,1453.14,2358.49,1458.87Z"/><path class="cls-3" d="M2318.92,1510.5c3.33,1.77,15,5,20.82,13.68,6.62,7.74,7.46,21,7,20.72-.62.57,8.29-12.78,7.9-27.07.83-14.27-7.65-29.48-15.12-32.29-13.83-7.83-31.53-.85-33,6.84C2304.89,1500.12,2312,1506.18,2318.92,1510.5Z"/><path class="cls-3" d="M2277.29,1588.71c3.58,1.18,15.58,2.38,22.81,10,7.83,6.52,10.89,19.44,10.41,19.25-.52.66,6-14,3.24-28-1.59-14.21-12.5-27.78-20.34-29.3-14.95-5.38-31.22,4.47-31.36,12.29C2261.7,1580.83,2269.72,1585.62,2277.29,1588.71Z"/><path class="cls-3" d="M2400.5,1643.19c2.61,1.63,11.89,4.89,16.15,12.31,4.94,6.67,4.87,17.5,4.53,17.25-.54.43,7.47-9.92,8-21.56,1.49-11.57-4.54-24.42-10.46-27.14-10.81-7.15-25.6-2.48-27.22,3.69C2389.67,1633.94,2395.1,1639.28,2400.5,1643.19Z"/><path class="cls-3" d="M2464.65,1425.66c-1.56-1.29-5.5-6-11.09-7.85-5.26-2.22-12.16-1.5-11.94-1.33-.16.31,4.85-4.61,12.2-5.6,7.1-1.52,16.52.89,19.43,3.88,6.73,5.31,6.69,13.49,3.07,14.74S2468.22,1428.29,2464.65,1425.66Z"/><path class="cls-3" d="M2449.71,1392.42c.07,2,1.42,8-.56,13.57-1.45,5.52-6.23,10.55-6.23,10.28-.35-.06,6.61-1,11.88-6.25,5.54-4.69,9.38-13.63,8.79-17.76-.1-8.57-6.6-13.54-9.8-11.43S2449.8,1388,2449.71,1392.42Z"/><path class="cls-3" d="M2567.36,1575.18c-1.56-1.28-5.5-6-11.09-7.84-5.26-2.22-12.16-1.5-11.94-1.34-.17.32,4.85-4.6,12.2-5.6,7.1-1.51,16.52.9,19.43,3.88,6.73,5.32,6.69,13.5,3.07,14.75S2570.93,1577.82,2567.36,1575.18Z"/><path class="cls-3" d="M2549.33,1541.66c.24,2,2.08,7.9.56,13.57-1,5.62-5.35,11-5.37,10.75-.35,0,6.51-1.57,11.34-7.19,5.12-5.14,8.22-14.35,7.3-18.42-.8-8.54-7.69-13-10.71-10.6S2549.07,1537.23,2549.33,1541.66Z"/><path class="cls-3" d="M2536.79,1758.28c-76.09,8.34-147,41.93-215.19,74.68-46,22.09-43.68,28.38-53,31.67a1.89,1.89,0,0,1-2.3-2.58c3.6-7.14,13.06-12,19.63-16.08a256.48,256.48,0,0,1,23.77-13c17.37-8.43,35.18-16,52.88-23.7,36-15.65,72.61-30.37,110.65-40.33a388.34,388.34,0,0,1,63.56-11.33.31.31,0,0,1,.05.62Z"/><path class="cls-3" d="M2468.21,1734.68c.49,3.13,3.75,12.19,1.74,21.14-1.19,8.83-7.64,17.55-7.68,17.12-.56,0,10.05-2.87,17.22-12,7.67-8.34,11.91-22.92,10.21-29.21-1.8-13.27-12.83-19.72-17.39-15.84S2467.51,1727.78,2468.21,1734.68Z"/><path class="cls-3" d="M2401.17,1758.69c.5,3.12,3.75,12.18,1.74,21.14-1.19,8.83-7.63,17.55-7.68,17.11-.55,0,10.05-2.87,17.22-12,7.67-8.34,11.92-22.93,10.22-29.22-1.81-13.27-12.84-19.72-17.4-15.84S2400.47,1751.79,2401.17,1758.69Z"/><path class="cls-3" d="M2333.06,1789.05c.49,3.12,3.74,12.18,1.74,21.14-1.19,8.83-7.64,17.55-7.68,17.11-.56,0,10.05-2.87,17.22-12,7.67-8.34,11.91-22.93,10.21-29.22-1.8-13.26-12.84-19.72-17.39-15.84S2332.36,1782.15,2333.06,1789.05Z"/><path class="cls-3" d="M2488.22,1797.32c-1.38-2.58-4-11.07-10.51-16.55-5.81-5.85-15.43-8.67-15.22-8.33-.39.33,9-3.49,19.36-.8,10.31,1.86,21.58,10.24,23.84,15.83,6.07,10.78,1.54,21.69-4,21.38S2491.55,1802.79,2488.22,1797.32Z"/><path class="cls-3" d="M2418.49,1822c-1.37-2.58-4-11.07-10.51-16.55-5.81-5.85-15.43-8.67-15.22-8.33-.39.33,9-3.49,19.37-.8,10.31,1.86,21.57,10.24,23.83,15.83,6.07,10.78,1.54,21.69-4,21.38S2421.83,1827.47,2418.49,1822Z"/><path class="cls-3" d="M2541.32,1771.91c-1.2-1.44-4-6.42-8.79-9-4.41-2.91-10.82-3.41-10.65-3.22-.2.26,5.2-3.38,12-3.06,6.72-.19,14.9,3.58,17.06,6.79,5.24,6,3.84,13.42.33,13.95S2544.14,1774.91,2541.32,1771.91Z"/><path class="cls-3" d="M2533.28,1739.13c-.28,1.85-.05,7.56-2.78,12.27-2.25,4.78-7.45,8.57-7.4,8.31-.31-.11,6.2.17,11.87-3.69,5.83-3.35,10.83-10.85,11-14.71,1.34-7.83-3.75-13.45-7-12.06S2534.11,1735.1,2533.28,1739.13Z"/><path class="cls-3" d="M573.5,1293c-89.42-79.73-135.39-194.22-158.21-276.24-24.78-89-28.39-160.09-28.42-160.8l-4.86-.3c0,.72,3.65,72.3,28.58,161.93,23,82.82,69.5,198.49,160,279.2Z"/><path class="cls-3" d="M397.05,835.39c4.41,20.5.72,39.87-8.68,53.85-14.73-10.84-26.32-28.22-30.72-48.72s-.72-39.87,8.68-53.85C381.06,797.51,392.64,814.89,397.05,835.39Z"/><path class="cls-3" d="M369.63,893.77C385,908.1,394,926.93,395.78,945.05c-16.91.77-35.52-6.09-50.92-20.42s-24.41-33.16-26.16-51.29C335.62,872.57,354.22,879.44,369.63,893.77Z"/><path class="cls-3" d="M362.4,955.1a78.47,78.47,0,0,1,44.13,35.53c-13.89,8.93-32.5,11.49-51.65,5.49a78.45,78.45,0,0,1-44.13-35.54C324.64,951.66,343.25,949.09,362.4,955.1Z"/><path class="cls-3" d="M391.88,1028.88c15.17,4.79,27.29,17,34.16,32.47-11.5,9.66-26.55,13.32-41.72,8.54s-27.29-17-34.16-32.47C361.66,1027.76,376.72,1024.1,391.88,1028.88Z"/><path class="cls-3" d="M417.78,923.58a52.41,52.41,0,0,1,43-15.49,58.86,58.86,0,0,1-16.67,44.62,52.49,52.49,0,0,1-43,15.49A58.82,58.82,0,0,1,417.78,923.58Z"/><path class="cls-3" d="M431.61,976.46a52.45,52.45,0,0,1,43-15.5A58.79,58.79,0,0,1,458,1005.58a52.45,52.45,0,0,1-43,15.5A58.76,58.76,0,0,1,431.61,976.46Z"/><path class="cls-5" d="M519.61,1401.16c-82.57-12-153.23-61-198-99.87-48.56-42.24-77.93-82.16-78.22-82.56l-2.94,1.69c.29.4,29.87,40.62,78.75,83.15,45.17,39.31,116.57,88.72,200.16,100.91Z"/><path class="cls-5" d="M241.43,1202.84c10.43,10.22,15.72,22.9,15.62,34.63-12.73-.65-26.13-6.31-36.56-16.53s-15.71-22.9-15.61-34.64C217.6,1187,231,1192.61,241.43,1202.84Z"/><path class="cls-5" d="M247.89,1247.3c14.46,2.42,26.91,9.9,34.88,19.77-9.53,6.94-23,10.09-37.43,7.67s-26.92-9.91-34.89-19.78C220,1248,233.44,1244.88,247.89,1247.3Z"/><path class="cls-5" d="M267.22,1285.72a54.68,54.68,0,0,1,39.3,3.72c-4.66,10.52-14.49,19.15-27.93,23a54.66,54.66,0,0,1-39.29-3.72C244,1298.21,253.79,1289.58,267.22,1285.72Z"/><path class="cls-5" d="M312.67,1317.3c10.66-3,22.4-.58,32.32,5.76a30.22,30.22,0,0,1-21,21c-10.65,3-22.39.58-32.31-5.76A30.22,30.22,0,0,1,312.67,1317.3Z"/><path class="cls-5" d="M287.32,1246.15a36.52,36.52,0,0,1,19.07-25.52,41,41,0,0,1,7.44,32.33,36.53,36.53,0,0,1-19.08,25.52A40.92,40.92,0,0,1,287.32,1246.15Z"/><path class="cls-5" d="M315.65,1271.58a36.55,36.55,0,0,1,19.08-25.53,41,41,0,0,1,7.43,32.34,36.53,36.53,0,0,1-19.08,25.52A41,41,0,0,1,315.65,1271.58Z"/><path class="cls-6" d="M569.33,1648.29c-95.25,36.16-200.09,17.06-271.27-5.33-77.28-24.31-132.69-57.63-133.24-58l-2.11,4c.56.34,56.37,33.92,134.15,58.4,71.89,22.62,177.81,41.9,274.23,5.29Z"/><path class="cls-6" d="M153.1,1565.65a68.79,68.79,0,0,1,37.57,35.09c-13.95,7.13-31.65,8.2-48.94,1.49a68.79,68.79,0,0,1-37.57-35.09C118.11,1560,135.81,1558.94,153.1,1565.65Z"/><path class="cls-6" d="M186.85,1619.21A60.9,60.9,0,0,1,236,1623a58.54,58.54,0,0,1-35.25,33.4,61,61,0,0,1-49.12-3.77A58.56,58.56,0,0,1,186.85,1619.21Z"/><path class="cls-6" d="M230.66,1656.89c12-13.42,28.21-20.11,44.12-19.81a63.23,63.23,0,0,1-15.85,47.31c-12,13.42-28.2,20.11-44.11,19.81A63.19,63.19,0,0,1,230.66,1656.89Z"/><path class="cls-6" d="M292,1676.34c12-13.41,28.2-20.1,44.11-19.8a63.2,63.2,0,0,1-15.84,47.31c-12,13.41-28.2,20.1-44.11,19.81A63.21,63.21,0,0,1,292,1676.34Z"/><path class="cls-6" d="M234.29,1613.49c-10.55-13.73-15.25-30.28-14.13-45.29,13.89,1.62,28.09,9.69,38.63,23.42s15.25,30.28,14.13,45.29C259,1635.29,244.83,1627.22,234.29,1613.49Z"/><path class="cls-6" d="M298,1633.42c-10.74-13.57-15.7-30.06-14.83-45.12,13.89,1.38,28.19,9.21,38.93,22.78s15.7,30.07,14.83,45.13C323,1654.83,308.72,1647,298,1633.42Z"/><path class="cls-6" d="M372.55,1681.67a23.72,23.72,0,0,1,15-14.17,27.16,27.16,0,0,1,.88,21.61,23.73,23.73,0,0,1-15,14.17A27.2,27.2,0,0,1,372.55,1681.67Z"/><path class="cls-3" d="M773.75,1864S895.1,1384,854.86,1335.82c-55.61-66.65-101.49,154.44-106,135.66-42.51-177.34-53.83-404.25-191-428.26-78-13.66,18,168.73,12.23,218.06S423.88,1146.83,338.52,1061s-129.46-31.48-75.52,76.41c52.16,104.33,220.89,218.34,186.11,231.87S203.18,1248.1,177.32,1305.7c-31.7,70.62,285,166.72,255.21,182.59s-181.21-36.39-177.07,17.61,207.63,52,204.15,75.75c-5.63,38.46-140.22-48.6-146.14,4.62-6.05,54.43,177.07,44.5,173.9,87-1.82,24.39-41.12-12.41-46.91,21.39-13.2,77.05,228.2,170.92,228.2,170.92Z"/><path class="cls-5" d="M866.28,1866.91s-115.49-177.07-171.06-210.5c-59.22-35.62-14.14,71-14.14,71s-121-144-154.64-114.74-3.11,63.14-3.11,63.14-108.63-32.19-128.16,7.68C365.17,1744.8,544,1795.61,544,1795.61s-76.78-.82-62.65,40.55C502.67,1898.55,866.28,1866.91,866.28,1866.91Z"/><path class="cls-6" d="M395.17,1683.52c19.53-39.87,128.16-7.68,128.16-7.68s-30.53-33.88,3.11-63.14S656.88,1671,656.88,1671s-10.15-72.22,62.74-8.6c52.07,45.44,146.66,204.49,146.66,204.49Z"/><path class="cls-6" d="M726.09,1422.32l5.18-3.54c-94-142.4-122.73-311.47-130.25-428.23-8.16-126.7,6.17-220.87,6.31-221.81l-6.42-1.87c-.15,1-14.58,95.75-6.39,223.21C602.09,1107.83,631.06,1278.4,726.09,1422.32Z"/><path class="cls-6" d="M625.84,746.56c.21,28.6-9.72,52.25-25.56,66.44a127.5,127.5,0,0,1-26.59-76.68c-.2-28.61,9.72-52.26,25.56-66.45A127.38,127.38,0,0,1,625.84,746.56Z"/><path class="cls-6" d="M574.91,810.86c16,25.29,22.61,53.69,20,78.06-22-6.26-44.15-23.19-60.18-48.48s-22.6-53.69-20-78.06C536.74,768.63,558.89,785.56,574.91,810.86Z"/><path class="cls-6" d="M549.22,887.68a125.24,125.24,0,0,1,47.4,65.25c-20.29,5.67-45,1-68-15a125.15,125.15,0,0,1-47.4-65.25C501.48,867,526.15,871.63,549.22,887.68Z"/><path class="cls-6" d="M579.31,1021.8a52.25,52.25,0,0,1,21.63,26c-8.26,3.08-18.65,2-28.71-4.06a52.2,52.2,0,0,1-21.63-26C558.86,1014.66,569.25,1015.79,579.31,1021.8Z"/><path class="cls-6" d="M587.49,1071.48a52.2,52.2,0,0,1,21.62,26c-8.26,3.07-18.64,1.94-28.7-4.06a52.13,52.13,0,0,1-21.63-26C567,1064.35,577.42,1065.48,587.49,1071.48Z"/><path class="cls-6" d="M629,870.38c18.59-10.54,40.33-10.43,59.61-1.72-3.24,21.47-14.81,40.46-33.4,51s-40.33,10.43-59.61,1.72C598.84,899.9,610.42,880.91,629,870.38Z"/><path class="cls-6" d="M632.72,945.22c18.59-10.53,40.33-10.42,59.61-1.71-3.23,21.47-14.81,40.46-33.4,51s-40.33,10.42-59.61,1.71C602.55,974.75,614.13,955.75,632.72,945.22Z"/><path class="cls-6" d="M629,1052.34c12.1-6.85,26.25-6.78,38.8-1.11-2.1,14-9.64,26.33-21.74,33.19s-26.25,6.78-38.8,1.11C609.4,1071.56,616.93,1059.2,629,1052.34Z"/><path class="cls-7" d="M1955.85,1474.63c10.92,1.78,10.28,3.56,11.68,3.75,1.66.22,21.38-9.68,21.38-9.68s58.33-28.79,61.42-30.46l42.1-53,32.45,15s-47.35,56.31-50.35,58.79-86.62,31.81-93.89,34.64c0,0-7.34,6.7-12.08,10.75s-11.09,5.65-12.6,6.57a53.06,53.06,0,0,1-12.86,4.51c-6.37,1.39-1.06-2.94-1.06-2.94s11.28-4.76,10.72-5.62c-.43-.67-6.42,2.31-13.45,3.92-1.81.41-3.6.82-5.24,1.17-4.32.93-6.21-1.54-1.88-3.26a42.45,42.45,0,0,1,6-2c2.09-.44,3.85-1.54,5.54-2.18a47.86,47.86,0,0,0,5.7-2.28c-.18-.15.3-.9-1.64-.52-2.32.46-7,2.55-10.5,2.94-2,.23-6.06,1-6.06,1s-7.24.69-7.29-.32c-.1-2.22,4.35-3.45,7.09-3.4a28.21,28.21,0,0,1,6-1.51s8.39-3.32,7.9-4.56c-.19-.49-5.27.27-10.66.64-5.7.39-9.83.39-10.14-.72-.48-1.75,4.06-2.41,4.06-2.41s4-.58,5.31-.88c1.53-.35,6-1.77,6-1.77s15.44-5.67,14.88-6.8-3.11-3.53-4.2-3.52-3,1.09-4.12,1.1-3.43-.21-3.59-1.58,5.88-4.2,5.88-4.2S1952.69,1474.12,1955.85,1474.63Z"/><path class="cls-8" d="M2063.13,1418.08s10.51,9.54,14.88,12.68c3.63,2.61,21.33,11.14,21.33,11.14s17.6-27,25.3-40.48c9.34-16.41,15.81-40.8,13.6-41.46-6.2-1.86-14.72-3-22.59.62C2088.41,1373.08,2063.13,1418.08,2063.13,1418.08Z"/><path class="cls-9" d="M1966.05,1488.72c-4.68.74-9.46-.15-11.53-4.43C1954.06,1489.37,1961.75,1491.89,1966.05,1488.72Z"/><path class="cls-10" d="M660.62,1299.6c.65-15.7-1.66-31.21-8.65-45.82-6-12.58-20.91-19.72-34.49-19.73-43.12-.06-48.6,57.16-76.05,79.23-8.39,6.74-17.77,12.23-25.7,19.51-29.31,26.85-16.11,76.56,10.8,100.11,18.68,16.33,48,25.62,71,12.84,12-6.66,21.13-17.74,27.63-29.89,9.22-17.23,15.17-37.11,21.72-55.48C653.91,1340.82,659.75,1320.47,660.62,1299.6Z"/><path class="cls-11" d="M667.66,1375.63c-13.47-40.86-31.25-40.22-31.25-40.22l14.37,87c8.31-2.27,19.14-7.33,27.45-9.68C675.48,1399.81,671,1385.69,667.66,1375.63Z"/><path class="cls-12" d="M735.73,1515l-49.24-37.56s-5-35.05-11.59-66.14c-8.31,2.34-15.81,8.86-24.12,11.13l12.52,69.64,64.54,33.3,18.22,23.42,4.15-24Z"/><path class="cls-13" d="M1184.58,1456.31a84.83,84.83,0,0,1,42,11.08,46.05,46.05,0,0,0,5.08,2.45c37.84,15.54,79.24-13.24,79.24-54.15V1214.52H1109.77c-40.91,0-69.69-41.41-54.15-79.24a45.37,45.37,0,0,1,2.45-5.09A85.3,85.3,0,0,0,979.8,1003c-44.3,2-80,38.44-81.21,82.77A85,85,0,0,0,909,1129.14a44.77,44.77,0,0,1,2.42,5.16c15.42,38.46-13.82,80.22-55.25,80.22H656.76v458.39c0,108.13,87.66,195.78,195.79,195.78h458.39v-200.5c0-41.11-41.53-70.07-79.61-54.58a45.5,45.5,0,0,0-5.1,2.43,85.3,85.3,0,1,1-41.65-159.73Z"/><path class="cls-11" d="M1620.59,1344.72a84.77,84.77,0,0,1,13-41.48,46.4,46.4,0,0,0,2.68-5c17.29-37.07-9.52-79.77-50.38-81.68l-201-9.4-9.39,201c-1.91,40.86-44.62,67.67-81.69,50.38a46.4,46.4,0,0,1-5-2.68,85.3,85.3,0,0,0-130.76,72.24c0,44.35,34.66,81.68,78.89,85a84.93,84.93,0,0,0,43.85-8.42,48.05,48.05,0,0,1,5.28-2.17c39.14-13.61,79.48,17.55,77.55,58.94l-9.32,199.22,457.89,21.41c108,5,199.67-78.42,204.72-186.43l21.4-457.89-200.28-9.36c-41.06-1.92-71.93,38.21-58.24,77a47.14,47.14,0,0,0,2.19,5.21,85.3,85.3,0,1,1-161.5,34.15Z"/><path class="cls-14" d="M1060.64,1028.31a84.75,84.75,0,0,1-9,42.54,44.13,44.13,0,0,0-2.19,5.2c-13.62,38.57,17.2,78.48,58,76.42l200.92-10.1-10.1-200.92c-2-40.85,37.85-71.68,76.42-58.06a44.13,44.13,0,0,1,5.2,2.19A85.29,85.29,0,0,0,1503.14,801c-4.27-44.14-42.4-77.94-86.74-76.95a84.92,84.92,0,0,0-42.84,12.62,45.88,45.88,0,0,1-5,2.68c-37.63,17.33-80.8-9.78-82.88-51.16l-10-199.19L817.81,512c-108,5.43-191.14,97.38-185.71,205.37l23,457.81,200.25-10.07c41.06-2.06,67.9-45,50.51-82.25a45.62,45.62,0,0,0-2.68-5,85.3,85.3,0,1,1,157.44-49.62Z"/><path class="cls-15" d="M1471.88,917.42a84.84,84.84,0,0,1-42.05-11.08,44.38,44.38,0,0,0-5.08-2.45c-37.83-15.54-79.24,13.24-79.24,54.15v201.17h201.18c40.9,0,69.68,41.41,54.14,79.25a44.32,44.32,0,0,1-2.45,5.08,85.3,85.3,0,0,0,78.28,127.24c44.29-2,80-38.44,81.2-82.77a84.91,84.91,0,0,0-10.45-43.42,46.51,46.51,0,0,1-2.42-5.16c-15.42-38.46,13.82-80.22,55.26-80.22h199.44V700.82C1999.69,592.69,1912,505,1803.9,505H1345.51v200.5c0,41.11,41.54,70.07,79.61,54.58a46.53,46.53,0,0,0,5.11-2.43,85.29,85.29,0,1,1,41.65,159.73Z"/><path class="cls-16" d="M525.83,1805.09s-3,21.12-8.27,27.93c-1.75,2.29-5,5.18-7.06,9.32-3.28,6.43-1.47,16,.95,21.29,1.24,2.71-.09,2.7,2.74,3.58a17.33,17.33,0,0,0,20.81-9.8,49.75,49.75,0,0,0,4.08-18c.89-19.18,6.84-28.93,6.84-28.93Z"/><path class="cls-16" d="M617.26,1814.75s1.88,23.81.35,31.55c-.81,4.15-5.35,12.68-3.27,16.58s4.46,4.87,4.46,4.87l54,.87c2.94.05,1-1.84-1.38-3.59-3.88-2.86-7-4.75-19.4-10.76-.81-.39-3.75-2.27-4.81-2.92a37.22,37.22,0,0,1-7.73-6.83c-3.87-4.33-4.21-25.3-4.21-25.3Z"/><path class="cls-8" d="M659.45,1498.19s6.79,38.66,2.33,64-25.88,260.33-25.88,260.33l-23.8,1.34s-5-98.15-4.1-111.8,8-36.49,8-36.49l-2.36-79.25,30-104.11Z"/><path class="cls-17" d="M589.49,1490.05s-18.74,28.28-23.21,51.68,3.28,95.31-5.31,126c-4.64,16.59-22.26,42.23-24.93,63.68S522.86,1809,522.86,1809l23.79,4.73,55.29-140.32,43.37-126.83,11.12-65.32Z"/><path class="cls-11" d="M604.66,1329.18s-24.81-1.58-34.63,9.14,21.78,95.57,23.56,109.22-9.1,49.94-9.1,49.94,58.3,11.76,75,.71c0,0,1.78-98.16,0-107.91s-16.66-49.4-20.24-53.3S604.66,1329.18,604.66,1329.18Z"/><path class="cls-16" d="M612.92,1296s-.13.73-.36,2c-1.1,6-5.36,25.82-8.24,31.27-3.48,6.6,11.91,27.61,26.72,25,4.4-.77-3.73-19.31-3.34-21.28.75-3.76,1.76-8.89,2.8-14.15.59-3,1.18-6,1.74-8.81l2.87-14.61Z"/><path class="cls-13" d="M612.56,1297.92c.23-1.24.36-2,.36-2l22.19-.56L632.24,1310c-.56,2.81-1.15,5.81-1.73,8.76a20.78,20.78,0,0,1-10.59-5.33,28,28,0,0,1-8-12C612.16,1300.06,612.39,1298.85,612.56,1297.92Z"/><path class="cls-16" d="M627.86,1245.39s-10.46-1.21-17,7.29-13.62,34.78,2.67,49.07,32.38-1.89,34.76-19S651.59,1244.77,627.86,1245.39Z"/><path class="cls-16" d="M653.09,1282.46c-1.94,3.79-5.21,5.89-7.29,4.69s-2.19-5.25-.25-9,5.21-5.88,7.29-4.68S655,1278.67,653.09,1282.46Z"/><path class="cls-10" d="M629,1242.58s-14,25-24,26.15-11.31,14.43-11.31,14.43,3.57-30.6,13.47-36.5S629,1242.58,629,1242.58Z"/><path class="cls-13" d="M536.62,1853.19c-13,2.37-21.6-5.23-26.08-10.92-3.3,6.44-4.91,16.06-2.48,21.36,2.13,4.67,8.37,4.53,13.28,4.72,5.2.19,9.22-2.7,11.79-7.24A42.68,42.68,0,0,0,536.62,1853.19Z"/><path class="cls-13" d="M647.18,1851.35c-14.28,3.67-24.83,1.17-30.73-1.21-1.52,4.32-3.54,9.75-2.47,12.87,1.31,3.83,3.18,4.7,4.82,4.74,13,.35,47.76.81,57.71.94a1.63,1.63,0,0,0,1.26-2.67C675.3,1863.07,648.24,1852,647.18,1851.35Z"/><path class="cls-16" d="M607.68,1275c.81,4.44-.82,8.51-3.65,9.09s-5.79-2.54-6.6-7,.82-8.51,3.65-9.09S606.87,1270.57,607.68,1275Z"/><path class="cls-18" d="M624,1290.38l12.62.57s-.51,4.78-6.06,4.69C623.78,1295.53,624,1290.38,624,1290.38Z"/><path class="cls-19" d="M1700,284.26c1.58.06,5.88,1.5,12.18,13.4,8,15.2,19.79,61.1,19.79,61.1l-35.08,13.06-4.51-9.58-7.42-73.76S1699.53,284.24,1700,284.26Z"/><path class="cls-13" d="M1653.59,277.64c10,0,34.85,2.94,46.37,6.62,0,0,8.47,72.73-7.62,128-3.59,12.37,3,51.28,3,51.28l-103.94-1.37s12.32-94.07,7.68-109.27-4.75-68.15-4.75-68.15.71-.11,23.35-4A235.27,235.27,0,0,1,1653.59,277.64Z"/><path class="cls-16" d="M1641.48,598.54s2.3,26.54,6.53,33.89-.22,19.84-.44,21.56-8.9,4.16-22.7,2.69-13.58-4.65-12.46-9.8,8.45-11.76,8.9-16.66-4.23-22.53-4.23-22.53Z"/><path class="cls-20" d="M1683.59,441.64s71.75-4,87.78,5.72S1760,504.68,1760,504.68s-49.92-2.3-147.71,3.35c-23.16,1.33-25.16-60.38-20.83-65.49S1683.59,441.64,1683.59,441.64Z"/><path class="cls-19" d="M1623.15,658.74c-14.21-1.51-12.45-8.49-11.31-13.79.72-3.32,4.8-7.23,7.23-10.92,1.27,1,3.33,2.79,9.5,4.62,6.41,1.89,15.19-1.86,20.79-4.2a68.49,68.49,0,0,1,1.89,18.32C1651,654.54,1637.35,660.26,1623.15,658.74Z"/><path class="cls-11" d="M1631,493c2.87,21.69,17.06,129.68,17.06,129.68l-32.93,4.08s-40.5-141-38.42-162.51,17.23-23.37,17.23-23.37S1623.4,435.55,1631,493Z"/><path class="cls-16" d="M1593.18,292.83c9.71-3.64,14.47,83.92,15.78,120,17.21,1.66,47.21,0,54.67-.55,3.52-.26,11.62-3.23,15.11-3.68a34.81,34.81,0,0,1,8.59-.41c.64.11,18.58,7.45,20.11,9.06,1.91,2,7,7,6.18,9.2s-9.89-6.06-9.89-6.06l-4.41-2.48c5.49,5.37,16,12.43,14.46,15s-10.92-4.66-17.66-9.54c5.78,5.21,13,14.55,11.3,16-1.49,1.31-9.65-9.5-18.37-12.61-3.23-1.15-6.46,2-9,2.43-1.87.28-4.75.88-6.59.36l-9.44-2.67c-3.22.29-3.3,2.19-6.55,2.88-3.77.8-10,1.65-14.76,2.82-27.67,6.76-36.89,9.9-45.36,9.9C1571.7,442.42,1570.21,301.45,1593.18,292.83Z"/><path class="cls-19" d="M1574.73,375c-1.82-36.92-1.55-82.42,19.15-90.18,8.16-3.07,22.56,15.35,20,90.93C1602.8,376.7,1586.58,377.44,1574.73,375Z"/><path class="cls-16" d="M1737.79,621.24s-2.88,9.21,2.27,15.31,26.52,12.07,29.33,15.37S1772,658,1772,658l-60-1.65.66-18.13,2.76-13Z"/><path class="cls-19" d="M1743.79,639.59s-15.42,6.23-22.87,2.54-7.22-4.72-9.38-3.34-2.92,18.37-2.92,18.37l67.47,2c4.7-.11,7.07-3.57,3.26-6.53a54.44,54.44,0,0,0-7.36-4.37C1766.71,645.21,1743.79,639.59,1743.79,639.59Z"/><path class="cls-11" d="M1735.51,458.65c4.64-9.76,15.19-22.47,33.75-14.82,17.7,7.3,22.45,25.24,16.86,43.61s-42.35,126.37-43.63,141.22l-29.36.19s5.34-85.51,6.65-106.18C1721,502.78,1727.48,475.54,1735.51,458.65Z"/><path d="M1783.17,359.18H1685a6.41,6.41,0,0,0-5.92,4l-30.21,73.95h-54.11a2.74,2.74,0,0,0-2.73,2.75h0a2.74,2.74,0,0,0,2.73,2.74h154a10.73,10.73,0,0,0,9.8-6.37l30.43-68A6.42,6.42,0,0,0,1783.17,359.18Z"/><path class="cls-18" d="M1730.33,402.24c-.66,3.32-3.55,5.54-6.45,5s-4.71-3.75-4.05-7.07,3.56-5.54,6.46-5S1731,398.92,1730.33,402.24Z"/><path class="cls-21" d="M1676.92,188.81a74.83,74.83,0,0,1-8.68-3.48c-3.18-1.53-7.3-3.33-9.9-3.73-5.48-.85-14.89-.28-20.09,5.35-6.47,7-18,1.27-15.65,38.05,2.62,41.63,25.77,37.06,26.33,36.35s20.64-26.63,20.64-26.63,7,15.36,7,14.8S1712.44,200.77,1676.92,188.81Z"/><path class="cls-16" d="M1659.34,264.43l2,14.87s4.48,21.43-1.28,25.56-24.49-26.17-24.49-26.17l2-37.69Z"/><path class="cls-13" d="M1636.91,253.22C1641.67,266.07,1653,274,1661,277l-1.7-12.61L1637.55,241Z"/><path class="cls-16" d="M1658.16,200A19.83,19.83,0,0,1,1681,220a149,149,0,0,1-1.67,19.08c-2.65,17.17-14.37,32.29-22.11,30.94s-27.24-16.16-23.81-40.59C1635.53,214.38,1645.36,202.05,1658.16,200Z"/><path class="cls-16" d="M1638.79,232.38c-.65,3.78-3.68,6.4-6.76,5.87s-5-4-4.38-7.81,3.67-6.4,6.75-5.87S1639.44,228.61,1638.79,232.38Z"/><path class="cls-21" d="M1634.4,224.57s9.37,2.33,12.84-3.69,15.91-19,31.7-13.64-13.9-13.1-15.16-13.1l-16.43-.11s-11.69,9.62-12.11,10.68-3.8,12.57-3.8,12.57Z"/><path class="cls-18" d="M1651.54,249.71l17,3.25s-1.63,6.42-9.16,5.21C1650.23,256.69,1651.54,249.71,1651.54,249.71Z"/><path class="cls-7" d="M1363.27,1436.18a17.55,17.55,0,0,0,1.85,4.5c5.34,9.73,17.74,23.61,17.74,23.61l9.6-21.61s-1.57-6.79-4.28-16.49C1378.92,1428.61,1370.09,1430,1363.27,1436.18Z"/><path class="cls-10" d="M1418.26,1417.44s-53.5,23-55.23,22.6c-1.11-.29-21.94-35.15-22.17-67.94-.1-15.14,15.63-33.36,33.17-29.75,8.84,1.81,8.7,4.27,21.77,23.26S1418.26,1417.44,1418.26,1417.44Z"/><path class="cls-16" d="M1463.92,1830.47s-1.27,21-1.27,21c-.47,2.67-2.31,9.26-2.31,11.69,0,9.11,43.26-7.74,33.57-11.78-.88-.36-5.48-3.12-5.77-6.22-.44-4.78-1.57-14.45-1.57-14.45Z"/><path class="cls-19" d="M1493.8,1851.35s-10.16,2.78-15.36,3.48-12.06-5.17-15.74-3.58c-4,1.74-3.89,17.44-3.89,17.44s54.46,4.47,69.78-.15C1534.66,1866.7,1514.56,1857.84,1493.8,1851.35Z"/><path class="cls-16" d="M1375.43,1830.47s-1.27,21-1.28,21c-.46,2.67-2.3,9.26-2.3,11.69,0,9.11,43.26-7.74,33.56-11.78-.87-.36-6.83-5.19-7.12-8.29-.45-4.77-.21-12.38-.21-12.38Z"/><path class="cls-19" d="M1405.31,1851.35s-10.16,2.78-15.36,3.48-12.06-5.17-15.74-3.58c-4,1.74-4.21,17.44-4.21,17.44s54.71,5.21,70.1-.15C1446.07,1866.45,1426.07,1857.84,1405.31,1851.35Z"/><path class="cls-16" d="M1388.65,1447.83l38.1-53.38c.16-.46.51-1.42,1-2.88,1.92-5.3,5.91-16.32,9.39-27.28l0-.12c1.1-3.83,3.41-10.51,5.65-17,2.49-7.19,5.58-16.11,5.69-17.63-.09-.26-.27-.73-.51-1.35-1.4-3.62-3.29-12.26-4-16-.42-2.39-.85-8.21,2-8.21,4.46,0,2.34,5.81,4.4,9.43a93.22,93.22,0,0,0,3.09-12.09l.75-11.35c.14-.85-.77-7.11,2.37-7.11h.15c2.81.21,2.75,6.86,3.92,18.12.37-1.3.74-2.86,1-4.29a41.65,41.65,0,0,1,1-5.94c-.56-3.14-.23-8.09,3.11-7.62,1.67.23,1.53,7.14,1.53,7.14,0,.94-.11,8.24-.06,9.69.34-2.45,1.68-12.9,4.3-12.9,2.17,0,2.35,2.81,2.3,5,0,1.31-1.39,12.63-1.46,14,1-1.72,2.23-11.69,3.25-11.69,4.23,0,2.7,14.18,1.14,17.87a18.09,18.09,0,0,0-.48,2,34.67,34.67,0,0,1-3.63,10.55c-2.66,4.55-6.33,11.79-6.89,12.9-.41,2.26-1.69,10.39-3.29,20.62-.69,4.37-1.44,9.17-2.22,14.14h0c-.15,1.08-.94,4.5-4,17.33-4.12,17.56-4.55,18.32-4.73,18.64-1.79,3.17-42.87,58.95-44.62,61.33l-1,1.4Z"/><path class="cls-13" d="M1459.51,1323.35s-3.09-7.91-8.59-7.93a6.32,6.32,0,0,1,5.71,1C1459.27,1318.49,1459.51,1323.35,1459.51,1323.35Z"/><path class="cls-16" d="M1379.45,1308.07l-4.91,31s18.69,15,29.58,11.84c9.14-2.65,2.88-14.6,2.88-14.6s-4.87-16.56-3.38-25.24S1379.45,1308.07,1379.45,1308.07Z"/><path class="cls-9" d="M1383,1317.44a76.27,76.27,0,0,0,21.15,6c-.69-4.35-1.08-8.94-.5-12.33.69-4-4.41-4.95-10.09-4.81-7.45.63-14.08,1.8-14.08,1.8l-1,6A15.39,15.39,0,0,0,1383,1317.44Z"/><path class="cls-16" d="M1355.86,1272.29c-.77,0,7.39,34.65,20,40.61s31.45,2.86,35-6.48c3.91-10.32-10.34-45.67-28.1-50.16S1355.86,1272.29,1355.86,1272.29Z"/><path class="cls-10" d="M1370.47,1240.45a39.83,39.83,0,0,0-16.27,18c-4.73,2.25-10.46,7.1-13.21,20.19-3.38,16.1,8.64,28.51,21.38,32.24s14.71,12.16,14.71,12.16l1.45-9.07s-2.84-7.9-7.1-11.86,2-9.71,2.57-14.41c.43-3.62-2.24-10.65-1.66-16.59,0,0,7.08-10.73,14.06-13.38C1398.3,1253.19,1383.41,1233,1370.47,1240.45Z"/><path class="cls-16" d="M1375.84,1293.71c1.65,4,1,8-1.51,8.88s-5.83-1.62-7.48-5.62-1-8,1.51-8.88S1374.19,1289.71,1375.84,1293.71Z"/><path class="cls-7" d="M1422.87,1448.68l73.49-12s-8.36-21-11.35-21-55.57,23-55.57,23l-4.18,8.39Z"/><path class="cls-22" d="M1385.23,1499.07s-7.33,35.44-4.35,62.32,3.23,122.33,3.23,122.33l-11.41,152.74,27,.59s32.08-152.67,31.48-148.75S1442,1580.81,1442,1580.81l-38.24-85.1Z"/><path class="cls-10" d="M1392.4,1497.39s-4.78,31.91,1.19,45.91,51.25,151.33,51.85,162.52,15.65,135,15.65,135l31.45-.88,6.81-137.6-14.25-172.94-13.83-43.73Z"/><path class="cls-16" d="M1374.54,1339.08s7.76,5.09,15,4.5,17.47-7.26,17.47-7.26l-1.43-4.82s-18.71-2.73-19.18-2.43S1374.54,1339.08,1374.54,1339.08Z"/><path class="cls-7" d="M1457.21,1414.61s27.8,26.24,40.35,21.76,17.74-19.79-12.88-42.19C1457.28,1374.13,1457.21,1414.61,1457.21,1414.61Z"/><path class="cls-8" d="M1476.05,1447c-4.13-22.46-34.06-92.37-36.45-105.25-1.16-6.26-17.31-6.4-32.68-5.58-16.24.86-32.38,2.91-32.38,2.91s-14.38,2.37-20.7,8.29-8,22.32,1.08,53.44c7.18,24.57,16.08,38.06,20.49,56,.89,6,1.65,11.92,2.67,18.84,1.61,26.76,0,62.1,0,62.1s78.27,16.24,107.55-8.4C1485.61,1529.3,1480.28,1470,1476.05,1447Z"/><path class="cls-17" d="M1496,1398.7s-30.71,25.35-32.5,25.35c-1.15,0-43.83-31.39-53.68-57.18-5.44-14.26,6-30.21,19-30.16,9.05,0,13.07,2.37,31,17.48S1496,1398.7,1496,1398.7Z"/><path class="cls-10" d="M955.72,267c5-12.11,10.15-24.24,23.21-30.38,10.57-5,21.61-3.09,31,4,26.61,20,3.42,42.05,33.71,80,9.41,11.79,20.8,21.31,26.44,35.12,7.89,19.34-1.51,28.62-16.58,37.89C981.41,437.93,943.62,347,945,326.13,946,310.65,952.48,274.83,955.72,267Z"/><path class="cls-16" d="M880.9,502.85c3-.48,10.42-5.77,13-6.25,2-.37,6.39-1,8.25-1.31,2.28-8.52,13.86-54.93,15.15-68.54,1.41-14.74,11.83-78.51,11.83-78.51l27,4.91S944.94,402.21,941.84,426c-2.66,20.43-25.07,66.37-27.92,71.22,0,.12,0,.23,0,.35-.43,7.21-3.9,4.81-3.9,4.81l-5.65,1.44s-20,1.92-21.28,2.4S877.86,503.33,880.9,502.85Z"/><path class="cls-23" d="M952.7,311c-19.08,6.47-29.93,58.34-29.93,58.34s29.93,8.35,37.6,4c0,0,8.71-38.59,11.83-37.24Z"/><path class="cls-16" d="M805.1,592.47a205,205,0,0,0-9.14,32c-.13.87,1.09,5,1,6-11.72,16-28.57,19.48-43,20.5,7.35-7.18,18.16-14,18.68-16.27a282.79,282.79,0,0,0,7.45-42.09C789.06,596.74,795.15,593.44,805.1,592.47Z"/><path class="cls-2" d="M971.16,420.21,997,492.84s-41.44,7.8-56.93,10.64-102,6.62-104.24,8.16c-1.63,1.14-19.51,59-27.5,90.85-9.06,2-24.57-.4-32.82-3.24,4.46-45.63,20.56-117.91,25.72-125.78C809.57,460.66,971.16,420.21,971.16,420.21Z"/><path class="cls-16" d="M870.43,624.31a203.94,203.94,0,0,0-3,33.17c0,.87,2,4.75,2.07,5.65-8.52,17.9-24.41,24.49-38.4,28.2,5.88-8.44,15.22-17.15,15.31-19.48a283.53,283.53,0,0,0-.57-42.75C855.46,631.5,860.83,627.13,870.43,624.31Z"/><path class="cls-4" d="M1001.26,424l10,17.08a49,49,0,0,1-24.55,70.37l-.45.18c-14.68,5.69-99,25.63-100.86,27.55-1.39,1.42-8.11,61.58-10,94.4-8.53,3.65-24.21,4.21-32.85,3-4.17-45.65-1.9-119.67,1.69-128.37C850.12,494,1001.26,424,1001.26,424Z"/><path class="cls-10" d="M866.16,658c2.24-2.48,10.48,11.17,12.54,14.08,2.32,3.27,1.66,5.74,1.38,6.25-.73,1.35-44.19,26.92-54.79,28.74a5.32,5.32,0,0,1-3.17-.84c-4.14-3.67,14.92-30.75,23.48-34.3C851.14,669.61,856.06,669.13,866.16,658Z"/><path class="cls-10" d="M794.58,625c2.67-2,8.2,12.94,9.68,16.18,1.66,3.65.55,6,.18,6.41-1,1.19-48.45,18.16-59.2,18a5.29,5.29,0,0,1-3-1.43c-3.38-4.37,20.42-27.4,29.5-29.29C777.64,633.59,782.56,634.05,794.58,625Z"/><path class="cls-24" d="M970.79,310.82h0a7.15,7.15,0,0,1-1.92-.4c-3.55-.63-11.29-1.56-17.32,1-7.33,3.1-18.7,32-18,61.66.27,4.54.55,8.6.78,11.43,1.85,22.41,8.28,64.46,8.63,64.69,8.74,5.63,61.51-16.2,65.14-21s5.77-63,7.53-65.95l3.47-50.66C1013,309.76,980.17,310.75,970.79,310.82Z"/><path class="cls-16" d="M992.18,292.16s-3.4,17.58-2.72,24.51S986.87,345.94,972.2,346s-2.79-28.4-1.41-35.19S972.5,283,972.5,283Z"/><path class="cls-13" d="M972.2,293.55c.23-5.76.3-10.55.3-10.55l19.68,9.16s-.7,3.59-1.4,8.17C982.17,302.06,975.93,298.88,972.2,293.55Z"/><path class="cls-16" d="M999.37,243.66A24.39,24.39,0,0,1,1009.72,257c2.78,9.12-.38,32.64-20,38.32s-28.07-12.95-24-27.51S978.53,234.78,999.37,243.66Z"/><path class="cls-16" d="M963.27,262.14c.38,3.91,2.54,6.9,4.82,6.68s3.81-3.58,3.43-7.49-2.54-6.9-4.82-6.68S962.88,258.23,963.27,262.14Z"/><path class="cls-10" d="M997.07,242.47s3.55,26.24,12,31,4.93,16.38,4.93,16.38,7.7-27,1-35.72S997.07,242.47,997.07,242.47Z"/><path class="cls-16" d="M1004.08,277.22c-2.3,3.42-2.29,7.45,0,9s6,0,8.35-3.37,2.3-7.45,0-9S1006.38,273.8,1004.08,277.22Z"/><path class="cls-18" d="M975.55,278.68l13.8,3.47s-1.66,5.24-7.77,3.89C974.12,284.4,975.55,278.68,975.55,278.68Z"/><path class="cls-5" d="M1044.08,500.66l59.51-3s-24.42,17.55-24.92,17.55-19.45-7.48-20.28-7.48S1044.08,500.66,1044.08,500.66Z"/><path class="cls-16" d="M2235.53,1831.33s1.16,20.64,1.17,20.68c.43,2.62,2.12,9.1,2.12,11.48,0,9-39.71-7.6-30.81-11.56.8-.36,5-3.08,5.29-6.12.41-4.7,1.44-14.19,1.44-14.19Z"/><path class="cls-11" d="M2207.63,1852a144.75,144.75,0,0,0,14.09,3.42c4.78.68,11.07-5.08,14.45-3.52,3.72,1.71,3.57,17.13,3.57,17.13s-50,4.39-64-.15C2170.12,1867.1,2188.57,1858.39,2207.63,1852Z"/><path class="cls-16" d="M2301.65,1830.26s1.17,20.64,1.18,20.68c.42,2.62,2.11,9.1,2.11,11.48,0,8.95-39.71-7.6-30.81-11.56.81-.36,6.28-5.1,6.54-8.15.41-4.69.2-12.16.2-12.16Z"/><path class="cls-11" d="M2274.23,1850.77a141.42,141.42,0,0,0,14.1,3.42c4.77.69,11.07-5.07,14.44-3.52,3.72,1.72,3.87,17.14,3.87,17.14s-49.64,2-64.35-.15C2236.51,1866.8,2255.17,1857.15,2274.23,1850.77Z"/><path class="cls-8" d="M2289.88,1502.4s6.73,34.82,4,61.22-3,120.2-3,120.2l12.65,150-27,.63s-29.44-150-28.9-146.14-9.87-105.61-9.87-105.61l35.1-83.61Z"/><path class="cls-17" d="M2280.46,1479.92s30.49,32.11,19.15,67.18c-4.56,14.09-47,148.68-47.59,159.68s-14.37,132.59-14.37,132.59l-28.87-.87-6.25-135.19,8.25-182.15,17.53-30.72Z"/><path class="cls-13" d="M2095.37,1375.4c10-11.14,31.71-27,31.71-27s13-11.05,18.22-12.87c7.77-2.68,21.07-9.82,40.32,19.34,13.76,20.87,100.65,128.92,114.91,132.55L2207.39,1532c-2.55-21.28-48.58-61.49-55.2-69C2137.38,1446.24,2085.92,1386,2095.37,1375.4Z"/><path class="cls-16" d="M2099.72,1330.13l29,17s.82,24.77-8.67,31.2c-8,5.4-14-7.56-14-7.56s-10.79-15-19-19.6S2099.72,1330.13,2099.72,1330.13Z"/><path class="cls-13" d="M2104.58,1341a60.48,60.48,0,0,1-7.53,18.79c-3.19-3.46-6.79-6.85-10-8.67-3.78-2.15-1.37-6.79,2.31-11.17,5.21-5.42,10.35-9.85,10.35-9.85l5.57,3.26C2105.65,1335.51,2105,1339.31,2104.58,1341Z"/><path class="cls-16" d="M2084.6,1287.56c.49-.6,24.34,29.09,21.4,43s-17.36,26.63-27.38,23.14c-11.08-3.87-31.69-38.82-24.3-55.79S2084.6,1287.56,2084.6,1287.56Z"/><path class="cls-10" d="M2058.49,1278.2c10.4-5.79,27.36-7.45,40-.81,15.58,8.15,19.13,28.68,14.25,41.2s.71,19.59.71,19.59l-8.27-4.82s-4.83-7.54-5.46-13.54-9.39-4.94-13.66-7.67c-3.3-2.1-7.5-8.91-12.83-12.45,0,0-13.41-1.64-20,2.06C2042,1308.07,2043.6,1286.48,2058.49,1278.2Z"/><path class="cls-16" d="M2092.79,1317.16c-.08,4.45,2,8.09,4.7,8.14s4.9-3.53,5-8-2-8.1-4.7-8.14S2092.87,1312.7,2092.79,1317.16Z"/><path class="cls-18" d="M2068.36,1340.79l12.63-9.44s3.34,5.11-2.09,9.42C2072.27,1346,2068.36,1340.79,2068.36,1340.79Z"/><path class="cls-7" d="M2036.65,1528.61c3.16-4.62,4.54-11.29,8.92-16.38a38.62,38.62,0,0,1,6.46-5.55c21-12.31,75.84-44,78-46.5,2.53-2.92,39.93-65.06,39.93-65.06l-33.59-7.61-32.83,58c-2.74,2.17-54.85,40.69-54.85,40.69s-10.36,8.09-16,11.88a45.24,45.24,0,0,1-8.06,3.6c-3.06,1.06-8.88,4-10.06,5-1.37,1.21-4.11,3.78-5.74,5.35s-3.6,3.35-4.36,4.29a11.84,11.84,0,0,1-3,1.88,1.93,1.93,0,0,0,.32,3.59c1.59.45,3.75-.55,5.08-1.17,3.78-1.78,8.39-6.56,8.63-6s-4.44,10.84-4.9,12.05-5.83,13.16-6.11,15.82,1.33,3.28,2.53,2.31c1-.84,9.67-16.8,9.67-16.8s1.11-2,1.54-.87-7.39,15.67-8.16,18.05-.15,4.33,2,3.5c2.68-1,10.07-17,10.07-17s1-2,1.62-1.3-6.2,12.92-6.28,14.33,1.2,2.8,3,1.62c2.17-1.39,8.65-15.72,8.65-15.72s.8-.95,1-.28-4.85,11.51-4.47,13.09a1.27,1.27,0,0,0,1.52,1.06C2030,1544.46,2033.49,1533.23,2036.65,1528.61Z"/><path class="cls-8" d="M2160.73,1428s-10.94-3.48-17.95-6.7c-4.7-2.15-25.2-12.35-25.2-12.35s8.84-37.28,14.81-50.69c21.93-49.19,46.84-15.26,50.22-7.35C2190.18,1368.54,2160.73,1428,2160.73,1428Z"/><path class="cls-18" d="M1396.61,1299.13l10.41-7.79s2.76,4.21-1.72,7.77C1399.84,1303.45,1396.61,1299.13,1396.61,1299.13Z"/><path class="cls-22" d="M2618.76,1868H200.07c-3,0-5.47,3.13-5.47,7h0c0,3.86,2.45,7,5.47,7H2618.76c3,0,5.47-3.12,5.47-7h0C2624.23,1871.08,2621.78,1868,2618.76,1868Z"/><path class="cls-16" d="M1104.94,497.61c-.25-.63-.8-.64-1.36-.66a137.23,137.23,0,0,1-16.33-1.22,11.54,11.54,0,0,1-2.63-.67,6.81,6.81,0,0,0-4.52-.16,9.2,9.2,0,0,1-2.51.26c-2.74,0-10.58-2.68-14.6-3.38a2.36,2.36,0,0,1-1.88-1.76c-4-15.66-12.45-50.79-13.55-62.35-1.41-14.77-11.61-81.39-11.61-81.39l-27.3,7.62s11.23,49.17,14.34,73c2.4,18.41,20.8,57.48,26.57,68.71,2.81,8.37,9.14,8.6,10.6,8.78a3.39,3.39,0,0,1,2.17,1.15,14.74,14.74,0,0,0,3.44,3,8.06,8.06,0,0,1,2.35,2.34c1.16,1.69,2.2,3.46,3.23,5.24.68,1.17,1.39,1.55,2.4,1.27a2.15,2.15,0,0,0,1.58-2.42,10.92,10.92,0,0,0-1.63-5.38,2.92,2.92,0,0,1,.21-3.89,12.37,12.37,0,0,1,2-2.28,3.57,3.57,0,0,1,2.8-1,44.52,44.52,0,0,0,6,1.11l1.65.34.9.19c.14,0,3,.35,4,.35.8,0,2.09.06,3.19.11a17.77,17.77,0,0,0,3.18-.47,3.84,3.84,0,0,0,2.55-1c.29-.27.58-.57.43-1a1,1,0,0,0-.89-.67c-.65-.12-4-.53-4-.67,1,0,4.16-.08,5.17-.1a4.73,4.73,0,0,0,3.47-1.53C1104.76,498.64,1105.19,498.24,1104.94,497.61Z"/><path class="cls-24" d="M1019.41,311.47c13.47-2.45,24.59,57.84,24.59,57.84s-29.94,8.35-37.61,4c0,0-8.71-38.59-11.82-37.24Z"/><path class="cls-16" d="M693.62,1395c.9-2.56-11.53-4.62-12.19-7.2s15.69-2.79,16.27-5.06c1.08-4.18-17.92-.88-17.54-2.84s19.8-6.32,17.7-9.68-19.67,6.63-20.2,4.36,17.17-7.82,16.85-12.82c-.17-2.67-29.06,13.31-32.41,11.86s3.61-14,.94-15.86-10.33,25.5-12.17,26.41-40.87,23.19-54.76,26.73c-1.69-4.65-5.33-10.92-6.82-15.32-7.79,5.54-13.58,8.33-21.62,13.38,5.83,14.6,14.12,30.59,18.18,32.43,12.36,5.58,60.16-34.07,69.7-40.85s15-4.59,21.48-6.74S692.73,1397.58,693.62,1395Z"/><path class="cls-11" d="M566,1416s-10.7-47.25-8.84-61,18.14-26.48,29.43-21.75S603,1404,603,1404Z"/></svg>