<?xml version="1.0" encoding="utf-8"?>
<!-- Uploaded to SVGRepo https://www.svgrepo.com -->
<svg version="1.2" baseProfile="tiny" id="Layer_1" xmlns="http://www.w3.org/2000/svg" xmlns:xlink="http://www.w3.org/1999/xlink"
	 x="0px" y="0px" viewBox="0 0 256 256" xml:space="preserve">
<g>
	<path d="M79.6,87.9c19.3,11.3,44.3,5.1,55.6-14.2s5.1-44.3-14.2-55.6C101.8,6.3,76.8,12.7,65.5,32C53.9,51.3,60.3,76.3,79.6,87.9z"
		/>
	<path d="M237.4,213.2c-0.8-7.7-8.2-10.8-14.4-10.6l-13.1-22.9c0.8-4.6,0-9.5-2.8-13.6c-2.3-3.6-5.7-5.9-9.3-7.2l0,0L185.7,138
		c-1.3-2.3-4.6-3.3-6.9-1.8l-1.5,0.5c-2.3,1.3-3.3,4.6-1.8,6.9l8.8,14.9c-1.3,0.5-2.6,1-3.6,1.8l-33.5,22.1c0,0-47.6-71.6-47.6-71.8
		c-5.7-10-23.4-19.6-40.7-15.2C9.1,108.4,10.3,193.9,6.2,238.7h95.1l2.3-40.2l-35.5-54.1c-1-1.5-0.5-3.6,1-4.6c1.5-1,3.6-0.5,4.6,1
		l53,80.3c3.6,4.9,9.5,7.5,15.2,7.5c3.6,0,7.2-1,10.6-3.1l49.2-32.4c0.5-0.3,1-0.8,1.5-1l10,17.2c-2.1,4.9-1,12.1,3.3,18.5
		c5.9,8.8,18.3,18.5,35.5,14.9C251.6,242.3,238.7,229.2,237.4,213.2z"/>
</g>
</svg>
