<svg xmlns="http://www.w3.org/2000/svg" viewBox="0 0 279.24 372.65"><defs><style>.cls-1{isolation:isolate;}.cls-2{fill:#3f90a8;}.cls-3{fill:#f4f1e5;}.cls-4,.cls-5{fill:#f8dcc2;}.cls-11,.cls-12,.cls-15,.cls-16,.cls-17,.cls-18,.cls-19,.cls-20,.cls-21,.cls-23,.cls-25,.cls-5{mix-blend-mode:multiply;}.cls-6{fill:#d8d20f;}.cls-7{fill:#28c632;}.cls-12,.cls-16,.cls-8{fill:#ec925d;}.cls-9{fill:#a64c49;}.cls-10,.cls-11{fill:#3b5765;}.cls-11{opacity:0.28;}.cls-12{opacity:0.4;}.cls-13,.cls-15,.cls-17,.cls-19,.cls-20,.cls-21{fill:#f8c650;}.cls-14,.cls-18{fill:#fcc7a9;}.cls-16{opacity:0.43;}.cls-17{opacity:0.51;}.cls-18{opacity:0.39;}.cls-19{opacity:0.55;}.cls-20{opacity:0.69;}.cls-21{opacity:0.14;}.cls-22,.cls-23,.cls-24,.cls-25{fill:#abe3ef;}.cls-24{mix-blend-mode:screen;opacity:0.54;}.cls-25{opacity:0.45;}</style></defs><g class="cls-1"><g id="Layer_2" data-name="Layer 2"><g id="Layer_1-2" data-name="Layer 1"><path class="cls-2" d="M41.76,329.49s-15.41,12.31-1,27.7l69.48-20.46Z"/><polygon class="cls-2" points="278.34 335.14 155.65 372.65 40.76 357.2 48.32 354.79 164.6 317.51 164.69 317.51 219.35 328.93 272.72 334.55 278.34 335.14"/><path class="cls-3" d="M277.07,313l-6.29,3.12L277,313.9l0,1.82-23.64,10.09,23.6-9.21-.33,9.25-9.08,4,9-2.41-.21,5.87-3.63,1.27L156,370l-.29,0L48.32,354.79,42.7,354c-3-7.27-2.4-14.91.85-22.85L164.6,317.51h.09l106.76-6.44,5.7-.63Z"/><polygon class="cls-4" points="43.53 331.12 169.32 303.18 277.17 310.45 158.42 346.56 43.53 331.12"/><polygon class="cls-5" points="43.53 331.12 169.32 303.18 277.17 310.45 156.74 346.34 43.53 331.12"/><path class="cls-2" d="M41.76,329.49,159,304.58a47.8,47.8,0,0,1,17.7-2.71l102.58,6.53L156.65,344.93Z"/><polygon class="cls-5" points="278.34 335.14 155.65 372.65 155.74 369.91 156.66 344.95 219.35 328.93 271.45 311.07 277.15 310.44 277.07 313.01 270.78 316.14 277.03 313.9 276.99 315.72 253.34 325.81 276.94 316.61 276.61 325.85 267.53 329.82 276.56 327.41 276.35 333.28 272.72 334.55 278.34 335.14"/><path class="cls-6" d="M25.06,296.79s-15.41,12.3-1,27.7L93.54,304Z"/><polygon class="cls-6" points="261.64 302.44 138.95 339.95 24.06 324.49 31.62 322.09 147.91 284.8 147.99 284.8 202.65 296.23 256.02 301.85 261.64 302.44"/><path class="cls-3" d="M260.37,280.31l-6.29,3.13,6.25-2.24,0,1.82-23.65,10.09,23.6-9.21-.33,9.25-9.08,4,9-2.41-.21,5.87L256,301.85l-116.69,35.4-.29-.05L31.62,322.09,26,321.28c-2.95-7.26-2.4-14.9.85-22.84L147.91,284.8H148l106.77-6.43,5.7-.63Z"/><polygon class="cls-4" points="26.83 298.42 152.62 270.47 260.47 277.75 141.72 313.86 26.83 298.42"/><polygon class="cls-5" points="26.83 298.42 152.62 270.47 260.47 277.75 140.05 313.64 26.83 298.42"/><path class="cls-6" d="M25.06,296.79l117.2-24.91A47.86,47.86,0,0,1,160,269.17l102.57,6.53L140,312.23Z"/><polygon class="cls-5" points="261.64 302.44 138.95 339.95 139.04 337.2 139.97 312.25 202.65 296.23 254.76 278.37 260.46 277.74 260.37 280.31 254.08 283.44 260.33 281.2 260.29 283.01 236.64 293.11 260.25 283.9 259.91 293.15 250.83 297.12 259.87 294.71 259.65 300.58 256.02 301.85 261.64 302.44"/><path class="cls-7" d="M41.76,269.14s-15.41,12.3-1,27.7l69.48-20.47Z"/><polygon class="cls-7" points="278.34 274.79 155.65 312.3 40.76 296.84 48.32 294.44 164.6 257.15 164.69 257.15 219.35 268.58 272.72 274.19 278.34 274.79"/><path class="cls-3" d="M277.07,252.66l-6.29,3.13,6.25-2.24,0,1.81-23.65,10.1,23.6-9.21-.33,9.25-9.08,4,9-2.41-.21,5.87-3.63,1.27L156,309.59l-.29,0L48.32,294.44l-5.62-.81c-3-7.26-2.4-14.9.85-22.84L164.6,257.15h.09l106.76-6.43,5.7-.63Z"/><polygon class="cls-4" points="43.53 270.77 169.32 242.82 277.17 250.1 158.42 286.21 43.53 270.77"/><polygon class="cls-5" points="43.53 270.77 169.32 242.82 277.17 250.1 156.74 285.99 43.53 270.77"/><path class="cls-7" d="M41.76,269.14,159,244.23a47.83,47.83,0,0,1,17.7-2.71L279.24,248,156.65,284.58Z"/><polygon class="cls-5" points="278.34 274.79 155.65 312.3 155.74 309.55 156.66 284.6 219.35 268.58 271.45 250.72 277.15 250.09 277.07 252.66 270.78 255.79 277.03 253.55 276.99 255.36 253.34 265.45 276.94 256.25 276.61 265.5 267.53 269.47 276.56 267.06 276.35 272.93 272.72 274.19 278.34 274.79"/><path class="cls-2" d="M30.75,238.91s-15.41,12.3-1,27.7l69.48-20.47Z"/><polygon class="cls-2" points="267.32 244.56 144.64 282.07 29.75 266.61 37.3 264.21 153.59 226.92 153.68 226.92 208.34 238.35 261.71 243.97 267.32 244.56"/><path class="cls-3" d="M266.06,222.43l-6.29,3.13,6.25-2.24,0,1.82-23.64,10.09,23.6-9.21-.34,9.25-9.08,4,9-2.41-.21,5.87L261.71,244,145,279.37l-.3-.05L37.3,264.21l-5.61-.81c-3-7.26-2.41-14.9.84-22.84l121.06-13.64h.08l106.77-6.43,5.7-.63Z"/><polygon class="cls-4" points="32.51 240.54 158.31 212.59 266.15 219.87 147.4 255.98 32.51 240.54"/><polygon class="cls-5" points="32.51 240.54 158.31 212.59 266.15 219.87 145.73 255.76 32.51 240.54"/><path class="cls-2" d="M30.75,238.91,148,214a47.8,47.8,0,0,1,17.7-2.71l102.58,6.53L145.64,254.35Z"/><polygon class="cls-5" points="267.32 244.56 144.64 282.07 144.72 279.32 145.65 254.37 208.34 238.35 260.44 220.49 266.14 219.86 266.06 222.43 259.77 225.56 266.01 223.32 265.97 225.14 242.33 235.23 265.93 226.02 265.59 235.27 256.51 239.24 265.55 236.83 265.34 242.7 261.71 243.97 267.32 244.56"/><path class="cls-8" d="M7.15,206.45s-15.41,12.31-1,27.7l69.47-20.46Z"/><polygon class="cls-8" points="243.73 212.1 121.04 249.61 6.15 234.16 13.71 231.75 130 194.47 130.08 194.47 184.74 205.9 238.11 211.51 243.73 212.1"/><path class="cls-3" d="M242.46,190l-6.29,3.12,6.25-2.24,0,1.82-23.65,10.09,23.6-9.2-.33,9.24-9.08,4,9-2.4-.21,5.86-3.63,1.27-116.69,35.4-.29,0L13.71,231.75,8.09,231c-2.95-7.26-2.4-14.91.85-22.84L130,194.47h.08L236.85,188l5.7-.63Z"/><polygon class="cls-4" points="8.92 208.09 134.71 180.14 242.56 187.41 123.81 223.53 8.92 208.09"/><polygon class="cls-5" points="8.92 208.09 134.71 180.14 242.56 187.41 122.14 223.3 8.92 208.09"/><path class="cls-8" d="M7.15,206.45l117.2-24.91a48.06,48.06,0,0,1,17.71-2.71l102.57,6.53L122,221.89Z"/><polygon class="cls-5" points="243.73 212.1 121.04 249.61 121.13 246.87 122.06 221.91 184.74 205.9 236.85 188.03 242.55 187.4 242.46 189.98 236.17 193.1 242.42 190.86 242.38 192.68 218.73 202.77 242.34 193.57 242 202.81 232.92 206.78 241.96 204.38 241.74 210.24 238.11 211.51 243.73 212.1"/><path class="cls-9" d="M24.75,179.65s-15.41,12.3-1,27.7l69.48-20.47Z"/><polygon class="cls-9" points="261.33 185.3 138.64 222.81 23.75 207.35 31.31 204.94 147.59 167.66 147.68 167.66 202.34 179.09 255.71 184.71 261.33 185.3"/><path class="cls-3" d="M260.06,163.17l-6.29,3.13,6.25-2.24,0,1.81L236.33,176l23.6-9.2L259.6,176l-9.08,4,9-2.41-.21,5.87-3.63,1.27L139,220.1l-.29,0L31.31,204.94l-5.62-.8c-3-7.26-2.4-14.9.85-22.84l121.05-13.64h.09l106.76-6.43,5.7-.63Z"/><polygon class="cls-4" points="26.52 181.28 152.31 153.33 260.16 160.61 141.41 196.72 26.52 181.28"/><polygon class="cls-5" points="26.52 181.28 152.31 153.33 260.16 160.61 139.74 196.5 26.52 181.28"/><path class="cls-9" d="M24.75,179.65,142,154.74a47.83,47.83,0,0,1,17.7-2.71l102.58,6.52L139.64,195.09Z"/><polygon class="cls-5" points="261.33 185.3 138.64 222.81 138.73 220.06 139.66 195.11 202.34 179.09 254.44 161.23 260.14 160.59 260.06 163.17 253.77 166.29 260.02 164.06 259.98 165.87 236.33 175.97 259.93 166.76 259.6 176.01 250.52 179.98 259.55 177.57 259.34 183.44 255.71 184.71 261.33 185.3"/><path class="cls-2" d="M263.73,173.65l-9.15-2-64.53-14.45,4.7-.72,6.93-1.1,8.49-1.36,43.53-6.84,5.71-.88S276.18,156.64,263.73,173.65Z"/><polygon class="cls-2" points="263.73 173.65 150.23 191.48 23.3 168.01 78.95 155.92 83.6 154.79 109.11 144.12 134.7 137.83 161.56 145.78 198.31 154.32 201.34 155.23 201.68 155.34 202.11 155.46 256.09 171.39 263.73 173.65"/><path class="cls-4" d="M32.66,161.27l-9.49-2.87-1.43-9.13,24.54,6.3L21.6,148.39l-.29-1.81,6.49,1.51-6.62-2.38,238.25.55c4.51,17,4.08,16.88,2,24.41L149.74,188.29,24.33,165.76l-.92-5.82Z"/><polygon class="cls-4" points="257.87 148.09 130.05 130.06 20.78 143.18 144.37 165.94 257.87 148.09"/><polygon class="cls-5" points="259.67 147.18 259.43 146.26 130.05 130.06 20.78 143.18 146.18 165.69 259.67 147.18"/><path class="cls-2" d="M259.43,146.26l-118.93-16a47.91,47.91,0,0,0-17.9-.57l-103.94,12,127.27,22.49Z"/><path class="cls-5" d="M263.73,173.65l-113.5,17.83-.49-3.19-3.56-22.6-.27-1.6,52.4-9.77,55-7.25,6.1-.81S276.18,156.64,263.73,173.65Z"/><path class="cls-10" d="M238.2,213.57c-2.44,1.73-3.89,3.25-10.16,1.53-3.42-.94-7.27-3.34-9.55-4.73a13.82,13.82,0,0,0-4.15-1.7c-.44-.11-.85-.2-1.22-.31l-.17-.07c-5.07-1.39-5.31-3.09-5.5-3.74s.86-13.38.86-13.38l14.05,3.06a31.58,31.58,0,0,0,4.6,5.92,111.43,111.43,0,0,0,10.58,8.75C239.89,210.67,239.54,212.63,238.2,213.57Z"/><path class="cls-11" d="M223.79,196.39s1.7,3-10.47,3.9c-7.55.54-1.89,7.21-.37,8-5.07-1.39-5.31-3.09-5.5-3.74s.86-13.38.86-13.38l14.05,3.06A15.41,15.41,0,0,0,223.79,196.39Z"/><path class="cls-8" d="M225.66,145.23c-.23,5.57-3.79,7.27-6.24,11.54a43,43,0,0,0-7.36-1.05c-2.92-.24-6.38-.38-10.11-.48-19.11-.61-45.76-.32-49.7-5.11-1.07-1.28-5.76-19.81-6.51-21.15a18.63,18.63,0,0,1-2.5-8.49c-.12-4.9,2.19-9,6.89-10.7,2.67-1,6.15-1.09,10.33,0,1.68.63,5-1.49,6.73-1,1.53.47,3,1,4.54,1.48,3.67,1.21,7.29,2.53,10.84,3.89a315,315,0,0,1,36.61,16.88C224.57,134.62,225.88,139.8,225.66,145.23Z"/><path class="cls-8" d="M225.57,141.35c.72,18.37-2.78,48.32-1.95,53.86-2,3.32-15.7,4.17-16.1,1.48-.28-2.2-.27-2.27-.31-2.59-1.47-9.5-6.9-39.58-7.69-42.69a.54.54,0,0,1,.1-.31c.64-1.26,5-4.84,9.76-8.45C215.62,137.92,225.51,139.92,225.57,141.35Z"/><path class="cls-12" d="M212.72,160.87c-3,10.18-5.66,31.12-4.92,38-1.47-9.51-6.34-39.72-7.12-42.82,0-.07,1.19-.71,1.27-.83-19.11-.61-45.76-.32-49.7-5.11-1.07-1.28-5.76-19.81-6.51-21.15a18.63,18.63,0,0,1-2.5-8.49l28.49-10.21c3.67,1.21,7.29,2.53,10.84,3.89,0,0,1.46.27-1,4.42-1,1.68,1.94,5.9,3.59,6.93,9,5.64,18.87,11.7,24.22,17.13C213.37,146.69,214.52,154.83,212.72,160.87Z"/><path class="cls-13" d="M186.66,58.66c-.24,1.4-5.11,21.85-7.12,30.31v0c-.51,2.15-.84,3.51-.84,3.57-4.36-.56-12.62-2.69-16.08-7a6.48,6.48,0,0,1-1.45-5.36c.64-3.53,3.49-11.71,4.39-15a40,40,0,0,1,4.77-11.41c2.13-3.32,4.63-5.43,7.39-6.19,6.53-1.79,8.19,1.85,9.42,5.12C187.78,54.44,186.81,57.88,186.66,58.66Z"/><path class="cls-14" d="M199.09,111.3s3.29,3.45,5,4.07,5-.47,8.46,0,4.41,5.17,5,6.27.76,4.52-2.75,4.69-7.48-5.18-7.57-3.28c1.33,2.34,2.44,3.72.76,3.76s-4.29-4.85-6.77-5.62-4.36-1.65-5-3.19S199.09,111.3,199.09,111.3Z"/><path class="cls-13" d="M193.41,118.9s-.9-.53-2.39-1.37c0,0,0,0-.07,0-6.48-3.68-23.62-13.46-25.5-14.54-2.3-1.33-5.88-6-7-7.62a14.36,14.36,0,0,1,4.16-9.76C167,81.5,174,81.82,179.54,89c0,.06,21.36,22.35,22.13,23S196.56,120.29,193.41,118.9Z"/><path class="cls-13" d="M160.71,40.6l-2-2.89a6.17,6.17,0,0,1,6.05-.85Z"/><path class="cls-15" d="M158.67,37.71a6.17,6.17,0,0,1,6.05-.85c3.35,1.41-4,3.74-4,3.74Z"/><path class="cls-10" d="M192.18,21.09c-6.08,5.2-6.88,14-18.57,14S164,38,160.56,30.72c-3.33-7-3.52-10.84-4.05-17.72-.26-3.4,3.59-8.5,11.19-10.64,8.78-5.4,16.22,0,20.73,1,6.61,1.48,7.18,5.55,6.36,8C194.86,17.52,194.24,18,192.18,21.09Z"/><path class="cls-8" d="M201.73,140.07c.07.62-2.9,7.66-5.62,13.82-.16.36-.31.72-.49,1.08-2,4.49-3.7,8.26-3.82,8.27-3.77-.76-7.5-1.52-11.17-2.37-1.22-.25-2.41-.51-3.64-.8-14.45-3.29-28.21-7.27-41.85-13.25-11.4-5-15.77-16.95-14.49-24.55.14-.89.28-1.74.41-2.53,2.09-12.42,2.22-12.17,18.53-11.38,2.95.13,10.62,3.53,13.52,4.44,7.38,2.4,4.89-1.55,11.07,2.34.36.23.73.48,1.1.7,3,1.87,5.75,3.62,8.29,5.23,11.5,7.27,18.62,12,24.37,16.18a8,8,0,0,1,.76.54c1,.69,1.88,1.39,2.78,2.06A.92.92,0,0,1,201.73,140.07Z"/><path class="cls-10" d="M173.31,226.65c-1.9.66-11.42-1.3-15.21-5.58a27.82,27.82,0,0,1-1.88-3.33v-.05c-1.49-2.82-3.46-6.5-4.86-7.46-2.23-1.52-4.13-6.89-3.36-8.48s12.34-10.61,12.34-10.61l7.76,8.69a16.81,16.81,0,0,0-.62,7.77,29.14,29.14,0,0,0,1.7,6.9C173.36,220.48,180,224.37,173.31,226.65Z"/><path class="cls-11" d="M168.1,199.83a16.81,16.81,0,0,0-.62,7.77c-1.39.42-3.89.37-8-2.13-7.27-4.37-7.51.1-7.26,1.46s2.46,6.3,4,10.76c-1.49-2.82-3.46-6.5-4.86-7.46-2.23-1.52-4.13-6.89-3.36-8.48s12.34-10.61,12.34-10.61Z"/><path class="cls-8" d="M209.42,159c-4.83,15.66-38.77,42.72-40.16,45.21a2.43,2.43,0,0,1-2.57,1.12h-.05c-4.86-.49-13.59-8.68-11.29-12,0,0,5.61-8.84,12.84-20a.88.88,0,0,1,.06-.1c1.27-1.94,2.57-3.94,3.92-6,1.57-2.41,3.18-4.88,4.82-7.32l.53-.77c1.53-2.33,3.08-4.67,4.62-6.93.43-1.56,8.73-17.46,9.14-19.18q3.74,2.06,6.66,4.06a8,8,0,0,1,.76.54c1,.69,1.88,1.39,2.78,2.06a.92.92,0,0,1,.25.22C210.66,147.29,211.78,153.57,209.42,159Z"/><path class="cls-16" d="M150.22,133.43c19.29-6.55,24.6-9.69,24.32-11.74-2.53-1.61-6.26-4-9.26-5.85l-13.16,0-30.62,3.47-.44.39c-.13.79-.27,1.64-.41,2.53-1.28,7.6,3.09,19.58,14.49,24.55,13.64,6,27.4,10,41.85,13.25-.31.38-21.64,33.34-21.64,33.34-2.3,3.27,6.43,11.46,11.29,12-2.39-1.6-8.64-8.85-5.56-11.86a180,180,0,0,0,17.46-19.26c5.92-5.26,1.22-13.73,10.82-17.47C184.4,158,135.25,138.52,150.22,133.43Z"/><path class="cls-17" d="M191,117.49c-6.48-3.68-23.62-13.46-25.5-14.54-2.3-1.33-5.88-6-7-7.62a14.36,14.36,0,0,1,4.16-9.76,6.48,6.48,0,0,1-1.45-5.36c.64-3.53,3.49-11.71,4.39-15a40,40,0,0,1,4.77-11.41l10.35,1.7s-.31,29.75-1.14,33.51a29.14,29.14,0,0,1,1.81,6.65C181.75,98.67,184.25,113.27,191,117.49Z"/><path class="cls-13" d="M186.59,53.6c0,.26,0,.52,0,.76v.18c0,16.47-12.77,43.06-13.23,48.15,0,0-1.71,7.52,2.93,10.51,0,0,3.83,3.37-9.81,10.29-.14-.08-.31-.16-.49-.24a10.12,10.12,0,0,1-2.78-1.9,2.94,2.94,0,0,1-.66-3.16,26.24,26.24,0,0,0-1.31,3.72c-.09.34-.15.66-.22.94a10.07,10.07,0,0,0-.2,2.89c-1,2.88-9.31,4.08-16.06,4.58l-.31,0a55.25,55.25,0,0,1-17.61-1.54c-5.24-1.35-11.16-3.28-10.83-5.31,2-11.44,7.6-20.78,9.6-44.91.13-1.8,8.39-23,14.2-29.88A9.41,9.41,0,0,1,141.56,47c.38-.24.66-.44.9-.62a38.82,38.82,0,0,1,5.08-3.2c.6-.32,1.28-.66,2.09-1.06,14.81-7.21,29.14-5.73,36.15,8.23a6.46,6.46,0,0,1,.57,1.63A7.84,7.84,0,0,1,186.59,53.6Z"/><path class="cls-14" d="M182.25,40.53l-5.81,5.34c0,.84-.07,1.8-.13,2.82-.25,4.35-.88,9.59-2.53,10-.38-4.95-1.43-8.39-3.07-11A16.24,16.24,0,0,0,167,43.52a54.13,54.13,0,0,0-7.7-4.87c.17-.32,7.36-10.06,7.36-10.06C168.72,25.75,183.73,37.77,182.25,40.53Z"/><path class="cls-18" d="M182.2,42.05l-5.8,4.89c0,.77-.38,11.52-2.67,11.75,1-.44,1.61-3.64,1.86-5.52s.17-3.49-2.64-3.49a7.35,7.35,0,0,1-2.28-1.09,15.34,15.34,0,0,0-3.73-3.81c-12.1-1.48-4.57-8.4-4.57-8.4Z"/><path class="cls-13" d="M171.17,48.38a5.37,5.37,0,0,0,.35,2.74s-5.1-.1-6.41-1.87,5.24-1.24,6-1A.09.09,0,0,1,171.17,48.38Z"/><path class="cls-17" d="M151.12,88.43c3.86-8.78.39-18.78,1.25-27.54.88-9-.08-13.51-1.8-15.74-1.45-1.59,3.25-4.8,4.86-4.07-3.06.81-2,3.35-1.18,4,3.13,2.35,4.8,11.29,4.8,11.29s9.3-5.75,11.73-5.74c-3.67-.65-14.52-11.13-14.52-11.13-3.66.68-13,6.09-12.75,6-.25.23-1.57,1.26-1.95,1.5a9.41,9.41,0,0,0-1.77,1.67c-5.81,6.85-14.07,28.08-14.2,29.88-2,24.13-7.65,33.47-9.6,44.91-.33,2,5.59,4,10.83,5.31a55.25,55.25,0,0,0,17.61,1.54c-6.72-1.34-34.52-5.12-16.89-18.29,2.23-1.67,23.75,9.52,33.59,9.9a.11.11,0,0,1,.09,0c.74-.32,3.33.66,4.75,1.34.18.08.35.16.49.24,5-3.51,3.85-8,3.88-9.81C170.38,110.39,147.1,97.57,151.12,88.43Z"/><path class="cls-15" d="M161.7,48.89c3,.11,9.27-.83,9.46-.56a.06.06,0,0,1,0,.06,5.26,5.26,0,0,0,.36,2.73C168.23,48.47,162.07,50.5,161.7,48.89Z"/><path class="cls-13" d="M171.12,48.29c-.5-.18-1.62.33-3,1.17a66,66,0,0,0-5.45,3.93c-2,1.62-3.64,3-3.64,3s.12-9.3-3.49-11.92,1.21-5.23,1.83-5.79a10,10,0,0,1,1.66-1.22h0a6.42,6.42,0,0,1,2.94-1c1.16.1-.85.19-1.4,2.22C161,43.11,169.73,47.55,171.12,48.29Z"/><path class="cls-19" d="M176.27,50.65c1.06-.95,2.86,4.27,4.46,5.3.61-2.87,1.31-7.47,1.47-8.79C179.45,45.71,176.85,48.46,176.27,50.65Z"/><path class="cls-15" d="M176.26,50.81a4.49,4.49,0,0,1,2.07-3c1.49-.71-1.26,0-1.84.13a.14.14,0,0,0-.1.14Z"/><path class="cls-13" d="M176.44,48s.92-.45,2.1,3.11,2.15,4.35,2.15,4.35.23-6.31,1-7.15-.8-3.89-.8-3.89Z"/><path class="cls-14" d="M191,24.24a6.07,6.07,0,0,0-.51,2.91c.23,3.38-1.09,6.66-3.3,10.45-6,10.32-6.48,8.93-11.81,7.72a17,17,0,0,1-8.6-4.93c-3.2-3.41-6-8.19-8.38-15.1a10.16,10.16,0,0,1,.52-7.87c6.13-12,17.64-7.06,27.91-4.78C194.58,14.35,192.73,20.49,191,24.24Z"/><path class="cls-10" d="M192.18,21.09s-8.31-3.87-6.8-7.26c.49-1.11-1.8-1.69-3-1.74-7.19-.3-12.26,2.93-13.74,7.19a8,8,0,0,0-.44,2.72c.1,6.89-4.36,3.56-5.46,6.17-.6,1.41-1.6,1.72-1.78,3.37-2.43-3.69-3.64-11.07-4.64-16.2.1-5.09,2.22-8.85,8.28-11.75,10.14-4.84,18.82-.92,23.3,3.64v0C198.09,9.69,200.18,16.46,192.18,21.09Z"/><path class="cls-10" d="M162.73,28.16c-.6,1.42-.13,4.53-.32,6.19-4.63-7.06-10.53-24.68,2.18-30.76Z"/><path class="cls-14" d="M165.19,27c-1.25,2.26.59,5.27-.92,5.84s-3.55-1.12-4.55-3.78-1.82-4.8.92-5.84C164.13,21.91,166.56,24.52,165.19,27Z"/><path class="cls-13" d="M141.53,90.79l7.59-21.55c7.76-15.85,2.95-22.66,2.14-23.57-1-1.15-3.9-1.42-5.2-1.1-6.08,1.51-13.37,9.23-20.69,29.67-.12.32-5.63,17.37-5.78,17.9C119.53,92.39,134.28,89.53,141.53,90.79Z"/><path class="cls-20" d="M173.76,59.82c.15,10-1.47,20.15-6,29.12A58.74,58.74,0,0,0,164,103.32c-.74,4.92-1.22,9.89-1.47,14.87h-.05a92.46,92.46,0,0,1,1-15,51.48,51.48,0,0,1,4-14.43,43,43,0,0,0,4.59-14.14,121,121,0,0,0,1.58-14.85Z"/><path class="cls-21" d="M162.69,53.05c.37-3.36-4.71-10.88-2.09-9.77,1.59,3.12,5.92,5.07,7.54,6.18a66,66,0,0,0-5.45,3.93A.77.77,0,0,1,162.69,53.05Z"/><path class="cls-10" d="M194.28,118.49a2.35,2.35,0,0,0-1.55,0L161,130.15c-.19-.16-.54-.44-.6-.34a2.73,2.73,0,0,0-.18,1h0v0h0a.46.46,0,0,0,.31.42l31.92,11.85a1.31,1.31,0,0,0,1,0l32.94-14.65Z"/><path class="cls-22" d="M193.63,142.3l33.49-14.49-32.7-10.08a2.42,2.42,0,0,0-1.55,0l-32.15,11.79a.49.49,0,0,0,0,.92l31.92,11.84A1.31,1.31,0,0,0,193.63,142.3Z"/><path class="cls-10" d="M240.71,93.51c-.84-1-1.07-.86-1.51-.72l-33.65,11.14A2.45,2.45,0,0,0,204,105.5l-11.57,36.17a.67.67,0,0,0,.92.82l33.83-15a2.42,2.42,0,0,0,1.3-1.4L240,93.9A1.67,1.67,0,0,0,240.71,93.51Z"/><path class="cls-23" d="M193.63,142.3l33.49-14.49-32.7-10.08a2.42,2.42,0,0,0-1.55,0l-32.15,11.79a.49.49,0,0,0,0,.92l31.92,11.84A1.31,1.31,0,0,0,193.63,142.3Z"/><path class="cls-23" d="M194.75,141.12,225.05,128l-20.52-5.58a2.2,2.2,0,0,0-1.41,0L174,133.13a.44.44,0,0,0,0,.83l19.82,7.18A1.22,1.22,0,0,0,194.75,141.12Z"/><path class="cls-23" d="M184.08,128.28l9.48-3.32a.19.19,0,0,0,0-.37l-6.38-2.19h-.46l-9.16,3.35V126l6.22,2.25Z"/><path class="cls-22" d="M194.12,143,228,128a2.46,2.46,0,0,0,1.31-1.41l11.57-32.4a.68.68,0,0,0-.85-.87l-33.66,11.14a2.43,2.43,0,0,0-1.55,1.56L193.2,142.17A.68.68,0,0,0,194.12,143Z"/><path class="cls-24" d="M220.26,117.93l0,0c1.63-1.92,2.17-4.13,1.22-4.93s-3,.11-4.65,2a8.61,8.61,0,0,0-1.08,1.62c-2.19,0-3.91.86-4,2s1.91,2.36,4.42,2.51,4.59-.74,4.67-2A1.57,1.57,0,0,0,220.26,117.93Z"/><path class="cls-25" d="M240,93.3l-.71.23s0,.09,0,.13-5.08,10.67-9.91,19.8a39.73,39.73,0,0,1-17.85,17.21L194.22,139l-1,3.18a.68.68,0,0,0,.92.83L228,128a2.46,2.46,0,0,0,1.31-1.41l11.57-32.4A.68.68,0,0,0,240,93.3Z"/><path class="cls-14" d="M158,108.71s10.22,6.87,12,7.34a59.91,59.91,0,0,0,7.93.81c1.63.08,6.57,5.36,7.39,8s.85,5.48.05,6.43-5.49.5-9-.87-4.91-5.5-6.14-6-18.08-8.52-18.08-8.52Z"/><path class="cls-13" d="M141.38,92.93l.52-3.13c-6.49,3.22-16.86-6-22.11,1.93a10.51,10.51,0,0,0,0,4.08,14.7,14.7,0,0,0,3.8,6.9,18.55,18.55,0,0,0,4.48,2.86c7.36,6.13,19.65,12,35.81,17.73,2.76,1.15,7.26-8.63,6.46-9.62Z"/><path class="cls-14" d="M177.86,117.27c1.06.22,2.19.41,3.26.53a14.45,14.45,0,0,0,1.57.09c.44,0,1-.13.87,0a1.5,1.5,0,0,1,1.8,2.39,5.14,5.14,0,0,1-2.49.78,18.25,18.25,0,0,1-1.93.07,35,35,0,0,1-3.68-.25,1.83,1.83,0,0,1,.41-3.63Z"/></g></g></g></svg>