<svg xmlns="http://www.w3.org/2000/svg" viewBox="0 0 1030.11 1170.59"><defs><style>.cls-1{fill:#1746a2;}</style></defs><g id="Layer_2" data-name="Layer 2"><g id="Layer_1-2" data-name="Layer 1"><path class="cls-1" d="M906.7,848.2c10.6,8.8,21,17.3,31.4,25.8,8.2,6.8,16.5,13.5,24.7,20.3,10,8.2,19.9,16.5,30,24.7,8.3,6.8,16.8,13.6,25.1,20.4,2.3,1.9,4.3,4.3,6.8,5.6,4.9,2.6,5.5,6.5,5.4,11.5-.2,23.6-.1,47.3-.1,71.2H.3c-.1-1.4-.2-2.8-.2-4.3,0-23.3,0-46.7-.1-70a6.59,6.59,0,0,1,2.6-5.7c14.6-11.6,29-23.5,43.4-35.3,12-9.9,23.9-20,35.9-29.8,13.5-11.1,27.3-21.9,40.8-33q16.2-13.2,32.1-26.7c.9-.8,1.2-2.8,1.2-4.3.1-22.7,0-45.3,0-68,0-85.5-.2-171,.1-256.5.1-17.8,1.2-35.6,3-53.3,2.9-28.5,6.9-56.9,15-84.5q8.7-29.55,20-58.2c8.5-21.7,20.3-41.7,33.7-60.8a295.07,295.07,0,0,1,43.6-49A278.65,278.65,0,0,1,327.7,149c23-12.3,46.9-22,72.2-28,12.5-2.9,24.9-5.9,38-8.9,0-13.1-.3-26.9.1-40.7.5-16.7,7.3-31.1,17.9-43.8A74.61,74.61,0,0,1,478.4,9.1c9.4-4.9,19.2-8.8,30-9,11.8-.2,23.6-.5,35,3.9,17.6,6.8,31.4,18.1,41.2,34.3,8.1,13.4,11.3,28,10.4,43.7-.5,9.3,0,18.7-.2,28-.1,2.9,1.4,3.7,3.7,4.1,27.7,4.2,54.3,12.3,80,23.3a292.82,292.82,0,0,1,97.2,67.4A297.27,297.27,0,0,1,819.9,265,382.86,382.86,0,0,1,849,331.7a398,398,0,0,1,15.8,64.6c2.3,15.5,4.7,31,5.9,46.6,1.6,21.1,3,42.2,3,63.3q.45,153,0,306c0,6.2.7,11,6.5,15.1C889.5,833.5,897.8,841,906.7,848.2Z"/><path class="cls-1" d="M433.8,1136.3c-14.3-13.1-23.8-29-29.9-46.8-4.2-12.3-6.9-24.8-5.6-38.2H635.5c3.7,37.3-21.2,82.1-59.1,103.6C527.2,1182.8,468.1,1171.6,433.8,1136.3Z"/></g></g></svg>