<svg version="1.1" id="Layer_1" xmlns="http://www.w3.org/2000/svg" xmlns:xlink="http://www.w3.org/1999/xlink" x="0px" y="0px"
	 width="100%" viewBox="0 0 1167 1167" enable-background="new 0 0 1167 1167" xml:space="preserve">
<path fill="#FEAE01" opacity="1.000000" stroke="none" 
	d="
M33.999992,1168.000000 
	C23.979105,1168.000000 13.958210,1168.000000 3.449181,1167.531738 
	C2.952843,1164.565552 2.937473,1162.067627 2.937458,1159.569824 
	C2.936331,972.893188 2.939424,786.216614 2.903938,599.539978 
	C2.903472,597.089539 2.414340,594.639160 2.115742,591.747131 
	C2.085202,589.545349 2.092211,587.785217 2.561645,586.022034 
	C388.622498,586.016907 774.220886,586.014648 1159.819336,586.014343 
	C1167.026611,586.014343 1167.041138,586.025208 1167.041382,593.102173 
	C1167.044800,669.755249 1167.048340,746.408386 1167.041870,823.061462 
	C1167.032104,938.040955 1167.014282,1053.020508 1167.000000,1168.000000 
	C1160.978882,1168.000000 1154.957642,1168.000000 1148.213623,1167.713867 
	C1146.271362,1167.010254 1145.058838,1166.255371 1143.831543,1166.230469 
	C1136.205933,1166.075684 1128.577026,1166.084839 1120.498047,1166.042969 
	C1102.403320,1163.913940 1084.544067,1162.860718 1067.168945,1159.385986 
	C1043.509399,1154.654419 1019.872803,1149.182373 996.865784,1141.984131 
	C972.643127,1134.405396 948.690735,1125.511108 925.482422,1115.242798 
	C885.373840,1097.496826 848.101624,1074.630737 813.355957,1047.798584 
	C742.756653,993.278870 687.113647,926.344666 646.907654,846.663330 
	C626.395752,806.012207 610.955383,763.528381 600.524475,719.182556 
	C593.920044,691.104126 589.443604,662.724670 586.980835,633.548828 
	C586.680969,624.541626 586.316162,616.000061 585.951294,607.458435 
	C585.333801,607.458435 584.716370,607.458435 584.098877,607.458435 
	C583.791809,615.647522 583.484741,623.836609 583.133179,632.476868 
	C580.839539,663.710876 575.720337,694.054993 568.443359,724.007141 
	C559.794006,759.607605 547.877441,794.151917 532.467285,827.391418 
	C489.724518,919.586975 427.460632,995.896912 345.511719,1056.088745 
	C309.828247,1082.298340 271.728455,1104.438965 230.847183,1121.289917 
	C206.443008,1131.348999 181.247086,1139.656616 156.006989,1147.457031 
	C140.241592,1152.329346 123.844658,1155.481812 107.526596,1158.160156 
	C87.060539,1161.519287 66.383430,1163.589844 45.801460,1166.247925 
	C41.857986,1166.757324 37.933327,1167.412231 33.999992,1168.000000 
z"/>
<path fill="#FFE8BF" opacity="1.000000" stroke="none" 
	d="
M34.468651,1168.000000 
	C37.933327,1167.412231 41.857986,1166.757324 45.801460,1166.247925 
	C66.383430,1163.589844 87.060539,1161.519287 107.526596,1158.160156 
	C123.844658,1155.481812 140.241592,1152.329346 156.006989,1147.457031 
	C181.247086,1139.656616 206.443008,1131.348999 230.847183,1121.289917 
	C271.728455,1104.438965 309.828247,1082.298340 345.511719,1056.088745 
	C427.460632,995.896912 489.724518,919.586975 532.467285,827.391418 
	C547.877441,794.151917 559.794006,759.607605 568.443359,724.007141 
	C575.720337,694.054993 580.839539,663.710876 583.333984,632.276733 
	C587.047668,629.131226 585.550354,633.571960 586.915833,634.014343 
	C589.443604,662.724670 593.920044,691.104126 600.524475,719.182556 
	C610.955383,763.528381 626.395752,806.012207 646.907654,846.663330 
	C687.113647,926.344666 742.756653,993.278870 813.355957,1047.798584 
	C848.101624,1074.630737 885.373840,1097.496826 925.482422,1115.242798 
	C948.690735,1125.511108 972.643127,1134.405396 996.865784,1141.984131 
	C1019.872803,1149.182373 1043.509399,1154.654419 1067.168945,1159.385986 
	C1084.544067,1162.860718 1102.403320,1163.913940 1120.828247,1166.191040 
	C1123.406372,1166.890503 1125.203247,1167.445312 1127.000000,1168.000000 
	C762.979126,1168.000000 398.958221,1168.000000 34.468651,1168.000000 
z"/>
<path fill="#DCAB15" opacity="1.000000" stroke="none" 
	d="
M1167.500000,1168.000000 
	C1167.014282,1053.020508 1167.032104,938.040955 1167.041870,823.061462 
	C1167.048340,746.408386 1167.044800,669.755249 1167.041382,593.102173 
	C1167.041138,586.025208 1167.026611,586.014343 1159.819336,586.014343 
	C774.220886,586.014648 388.622498,586.016907 2.523492,585.740662 
	C2.025424,585.084839 2.027935,584.707397 2.076855,584.236816 
	C2.123266,584.143738 2.150030,583.937500 2.369052,583.957764 
	C2.588075,583.977966 3.018415,583.875916 3.480660,583.950806 
	C4.775607,584.038879 5.608309,584.063721 6.441011,584.063721 
	C391.795074,584.065857 777.149109,584.066528 1162.503174,584.059448 
	C1163.998779,584.059448 1165.494507,583.947205 1167.238037,583.956055 
	C1167.657349,584.016541 1167.828735,584.008240 1168.000000,584.000000 
	C1168.000000,778.666687 1168.000000,973.333313 1167.500000,1168.000000 
z"/>
<path fill="#43714A" opacity="1.000000" stroke="none" 
	d="
M2.000000,1.000000 
	C390.666656,1.000000 779.333313,1.000000 1167.737305,1.527070 
	C1167.299927,2.077429 1167.125366,2.100717 1166.487671,2.091001 
	C1162.191650,2.043308 1158.358765,2.015798 1154.526001,2.015766 
	C909.883484,2.013759 665.240967,2.013950 420.598480,2.014021 
	C283.778656,2.014061 146.958832,2.008416 10.139016,2.058386 
	C7.547552,2.059332 4.956327,2.718946 2.259717,2.735343 
	C2.102962,1.932961 2.051481,1.466480 2.000000,1.000000 
z"/>
<path fill="#EE5F00" opacity="1.000000" stroke="none" 
	d="
M2.030445,584.329895 
	C2.027935,584.707397 2.025424,585.084839 2.061068,585.743713 
	C2.092211,587.785217 2.085202,589.545349 2.082291,592.192993 
	C2.072129,677.735291 2.056542,762.390076 2.043941,847.044861 
	C2.028016,954.029907 2.014535,1061.014893 1.999986,1168.000000 
	C1.666638,1167.833740 1.056157,1167.684937 1.044432,1167.498291 
	C0.961037,1166.171143 1.000000,1164.836426 1.000000,1163.504028 
	C1.000000,970.644470 1.000000,777.784851 1.262437,584.530029 
	C1.693398,584.199829 1.861922,584.264893 2.030445,584.329895 
z"/>
<path fill="#976832" opacity="1.000000" stroke="none" 
	d="
M2.076855,584.236816 
	C1.861922,584.264893 1.693398,584.199829 1.262437,584.067383 
	C1.000000,389.666656 1.000000,195.333328 1.500000,1.000000 
	C2.051481,1.466480 2.102962,1.932961 2.233589,3.200091 
	C2.299762,5.333737 2.275440,6.666734 2.275428,7.999731 
	C2.273807,197.802368 2.273711,387.605011 2.277753,577.407654 
	C2.277792,579.240234 2.333812,581.072815 2.273595,583.155823 
	C2.172338,583.583313 2.161184,583.760437 2.150030,583.937500 
	C2.150030,583.937500 2.123266,584.143738 2.076855,584.236816 
z"/>
<path fill="#138A50" opacity="1.000000" stroke="none" 
	d="
M1166.950928,2.124006 
	C1167.125366,2.100717 1167.299927,2.077429 1167.737305,2.027070 
	C1168.000000,195.692505 1168.000000,389.385010 1168.000000,583.538757 
	C1167.828735,584.008240 1167.657349,584.016541 1167.239746,583.494812 
	C1166.995728,445.835632 1167.002686,308.706421 1166.997559,171.577194 
	C1166.995483,115.092796 1166.967285,58.608402 1166.950928,2.124006 
z"/>
<path fill="#DCAB15" opacity="1.000000" stroke="none" 
	d="
M2.250000,1168.000000 
	C2.014535,1061.014893 2.028016,954.029907 2.043941,847.044861 
	C2.056542,762.390076 2.072129,677.735291 2.119842,592.634644 
	C2.414340,594.639160 2.903472,597.089539 2.903938,599.539978 
	C2.939424,786.216614 2.936331,972.893188 2.937458,1159.569824 
	C2.937473,1162.067627 2.952843,1164.565552 2.980524,1167.531738 
	C3.000000,1168.000000 2.500000,1168.000000 2.250000,1168.000000 
z"/>
<path fill="#F4C045" opacity="1.000000" stroke="none" 
	d="
M1127.468506,1168.000000 
	C1125.203247,1167.445312 1123.406372,1166.890503 1121.279419,1166.187744 
	C1128.577026,1166.084839 1136.205933,1166.075684 1143.831543,1166.230469 
	C1145.058838,1166.255371 1146.271362,1167.010254 1147.745361,1167.713867 
	C1141.312378,1168.000000 1134.624634,1168.000000 1127.468506,1168.000000 
z"/>
<path fill="#F8D982" opacity="1.000000" stroke="none" 
	d="
M586.980835,633.548828 
	C585.550354,633.571960 587.047668,629.131226 583.378601,631.825562 
	C583.484741,623.836609 583.791809,615.647522 584.098877,607.458435 
	C584.716370,607.458435 585.333801,607.458435 585.951294,607.458435 
	C586.316162,616.000061 586.680969,624.541626 586.980835,633.548828 
z"/>
<path fill="#008E4E" opacity="1.000000" stroke="none" 
	d="
M1166.487671,2.091001 
	C1166.967285,58.608402 1166.995483,115.092796 1166.997559,171.577194 
	C1167.002686,308.706421 1166.995728,445.835632 1166.991821,583.426147 
	C1165.494507,583.947205 1163.998779,584.059448 1162.503174,584.059448 
	C777.149109,584.066528 391.795074,584.065857 6.441011,584.063721 
	C5.608309,584.063721 4.775607,584.038879 3.394529,583.773438 
	C2.728527,583.282104 2.567708,583.076843 2.363697,582.905396 
	C2.333812,581.072815 2.277792,579.240234 2.277753,577.407654 
	C2.273711,387.605011 2.273807,197.802368 2.275428,7.999731 
	C2.275440,6.666734 2.299762,5.333737 2.338862,3.535992 
	C4.956327,2.718946 7.547552,2.059332 10.139016,2.058386 
	C146.958832,2.008416 283.778656,2.014061 420.598480,2.014021 
	C665.240967,2.013950 909.883484,2.013759 1154.526001,2.015766 
	C1158.358765,2.015798 1162.191650,2.043308 1166.487671,2.091001 
z"/>
<path fill="#43714A" opacity="1.000000" stroke="none" 
	d="
M2.273595,583.155823 
	C2.567708,583.076843 2.728527,583.282104 2.932284,583.698608 
	C3.018415,583.875916 2.588075,583.977966 2.369052,583.957764 
	C2.161184,583.760437 2.172338,583.583313 2.273595,583.155823 
z"/>
</svg>