<svg version="1.1" id="Layer_1" xmlns="http://www.w3.org/2000/svg" xmlns:xlink="http://www.w3.org/1999/xlink" x="0px" y="0px"
	 width="100%" viewBox="0 0 1167 1167" enable-background="new 0 0 1167 1167" xml:space="preserve">
<path fill="#FEAE01" opacity="1.000000" stroke="none" 
	d="
M1.000000,1167.000000 
	C1.000000,778.448853 1.000000,389.897736 1.000000,1.000000 
	C78.694359,1.000000 156.389236,1.000000 234.431778,1.454061 
	C234.759735,4.240051 234.722763,6.571980 234.722748,8.903910 
	C234.720200,392.420837 234.720398,775.937805 234.717392,1159.454712 
	C234.717377,1161.953247 234.674072,1164.451782 234.206863,1166.934326 
	C231.265686,1166.945923 228.768646,1166.997070 226.271591,1166.997192 
	C151.181061,1167.001221 76.090530,1167.000244 1.000000,1167.000000 
z"/>
<path fill="#008E4E" opacity="1.000000" stroke="none" 
	d="
M234.650986,1166.950317 
	C234.674072,1164.451782 234.717377,1161.953247 234.717392,1159.454712 
	C234.720398,775.937805 234.720200,392.420837 234.722748,8.903910 
	C234.722763,6.571980 234.759735,4.240051 234.889725,1.454061 
	C312.023315,1.000000 389.046661,1.000000 466.645630,1.453982 
	C467.241028,3.407034 467.277985,4.906105 467.277985,6.405175 
	C467.280609,391.431793 467.280823,776.458374 467.274139,1161.484985 
	C467.274109,1163.314819 467.174438,1165.144531 466.644348,1166.984009 
	C444.709167,1166.995850 423.250946,1166.990967 401.792725,1167.001221 
	C346.235168,1167.027832 290.677612,1167.061157 235.019791,1167.000244 
	C234.919510,1166.908569 234.650986,1166.950317 234.650986,1166.950317 
z"/>
<path fill="#FDAE01" opacity="1.000000" stroke="none" 
	d="
M467.121277,1166.974365 
	C467.174438,1165.144531 467.274109,1163.314819 467.274139,1161.484985 
	C467.280823,776.458374 467.280609,391.431793 467.277985,6.405175 
	C467.277985,4.906105 467.241028,3.407034 467.110657,1.453982 
	C544.690002,1.000000 622.379944,1.000000 700.594788,1.461776 
	C701.128784,2.923207 701.145935,3.922863 701.145996,4.922519 
	C701.147766,273.362213 701.147949,541.801880 701.154846,810.241577 
	C701.154907,812.406067 701.245056,814.570496 701.116943,817.058594 
	C661.874939,869.698669 632.026245,926.800720 612.104614,989.011414 
	C595.761108,1040.048462 586.391479,1092.324829 584.686951,1146.334961 
	C584.334412,1153.443604 584.105408,1160.159546 583.416626,1166.900391 
	C544.499817,1166.966675 506.042725,1167.008301 467.475647,1166.993652 
	C467.365662,1166.937256 467.121277,1166.974365 467.121277,1166.974365 
z"/>
<path fill="#018E4E" opacity="1.000000" stroke="none" 
	d="
M701.293152,816.734985 
	C701.245056,814.570496 701.154907,812.406067 701.154846,810.241577 
	C701.147949,541.801880 701.147766,273.362213 701.145996,4.922519 
	C701.145935,3.922863 701.128784,2.923207 701.059814,1.461776 
	C778.356628,1.000000 855.713318,1.000000 933.631714,1.460240 
	C934.216797,4.251981 934.260498,6.583482 934.260498,8.914984 
	C934.263733,214.300278 934.262329,419.685577 934.276245,625.070862 
	C934.276428,627.563354 934.468323,630.055786 934.302490,632.670044 
	C932.375183,633.556274 930.722351,634.334534 929.056152,635.083069 
	C879.906616,657.165039 834.713745,685.558472 793.359741,720.088196 
	C758.982239,748.792786 728.563293,781.262695 701.293152,816.734985 
z"/>
<path fill="#FDAE01" opacity="1.000000" stroke="none" 
	d="
M934.570679,632.548279 
	C934.468323,630.055786 934.276428,627.563354 934.276245,625.070862 
	C934.262329,419.685577 934.263733,214.300278 934.260498,8.914984 
	C934.260498,6.583482 934.216797,4.251981 934.096802,1.460240 
	C1011.354248,1.000000 1088.708496,1.000000 1166.532227,1.468657 
	C1167.002686,193.298050 1167.007568,384.658783 1166.963135,576.019531 
	C1166.962524,578.628662 1166.340820,581.237610 1165.564087,583.911621 
	C1161.948975,584.168030 1158.778687,584.359558 1155.166748,584.543396 
	C1112.996704,585.114990 1071.900879,590.643250 1031.323120,600.262634 
	C998.106995,608.136902 965.929688,619.114075 934.570679,632.548279 
z"/>
<path fill="#51441E" opacity="1.000000" stroke="none" 
	d="
M583.876404,1166.875610 
	C584.105408,1160.159546 584.334412,1153.443604 584.806396,1146.786865 
	C585.025208,1150.844238 585.007141,1154.842163 584.975464,1158.840210 
	C584.910461,1167.038330 584.907471,1167.037598 592.911743,1167.037720 
	C706.406433,1167.037842 819.901062,1167.047852 933.395752,1167.035400 
	C1011.224915,1167.026855 1089.054077,1166.987427 1167.162354,1166.973999 
	C1167.627563,1166.990723 1167.813721,1166.995361 1168.000000,1167.000000 
	C1167.833740,1167.333374 1167.684814,1167.943848 1167.498291,1167.955566 
	C1166.171265,1168.038940 1164.836426,1168.000000 1163.504150,1168.000000 
	C970.648560,1168.000000 777.792908,1168.000000 584.494263,1167.712646 
	C583.992920,1167.242188 583.934692,1167.058960 583.876404,1166.875610 
z"/>
<path fill="#623C00" opacity="1.000000" stroke="none" 
	d="
M1168.000000,1166.533936 
	C1167.813721,1166.995361 1167.627563,1166.990723 1167.211304,1166.510376 
	C1166.994507,1164.201660 1167.019653,1162.368896 1167.019653,1160.536011 
	C1167.021362,972.569763 1167.021484,784.603455 1167.021484,596.637207 
	C1167.021484,585.834473 1167.021362,585.836060 1156.572632,584.810608 
	C1156.245850,584.778503 1155.929688,584.639954 1155.608521,584.551025 
	C1158.778687,584.359558 1161.948975,584.168030 1165.891602,583.993713 
	C1167.109253,584.007263 1167.554688,584.003601 1168.000000,584.000000 
	C1168.000000,778.022644 1168.000000,972.045349 1168.000000,1166.533936 
z"/>
<path fill="#FF8815" opacity="1.000000" stroke="none" 
	d="
M1168.000000,583.531372 
	C1167.554688,584.003601 1167.109253,584.007263 1166.336426,583.928772 
	C1166.340820,581.237610 1166.962524,578.628662 1166.963135,576.019531 
	C1167.007568,384.658783 1167.002686,193.298050 1167.000977,1.468648 
	C1167.333374,1.166275 1167.943726,1.315147 1167.955566,1.501652 
	C1168.038940,2.828760 1168.000000,4.163544 1168.000000,5.495878 
	C1168.000000,198.018143 1168.000000,390.540405 1168.000000,583.531372 
z"/>
<path fill="#DDB651" opacity="1.000000" stroke="none" 
	d="
M1.000000,1167.500000 
	C76.090530,1167.000244 151.181061,1167.001221 226.271591,1166.997192 
	C228.768646,1166.997070 231.265686,1166.945923 234.206863,1166.934326 
	C234.650986,1166.950317 234.919510,1166.908569 234.963776,1167.223633 
	C235.008041,1167.538696 235.000000,1168.000000 235.000000,1168.000000 
	C157.000000,1168.000000 79.000000,1168.000000 1.000000,1167.500000 
z"/>
<path fill="#A5B185" opacity="1.000000" stroke="none" 
	d="
M235.468658,1168.000000 
	C235.000000,1168.000000 235.008041,1167.538696 235.064056,1167.315186 
	C290.677612,1167.061157 346.235168,1167.027832 401.792725,1167.001221 
	C423.250946,1166.990967 444.709167,1166.995850 466.644348,1166.984009 
	C467.121277,1166.974365 467.365662,1166.937256 467.314758,1167.222900 
	C467.175903,1167.672363 467.087952,1167.836182 467.000000,1168.000000 
	C389.979095,1168.000000 312.958221,1168.000000 235.468658,1168.000000 
z"/>
<path fill="#DDB651" opacity="1.000000" stroke="none" 
	d="
M467.468658,1168.000000 
	C467.087952,1167.836182 467.175903,1167.672363 467.424744,1167.279297 
	C506.042725,1167.008301 544.499817,1166.966675 583.416626,1166.900391 
	C583.934692,1167.058960 583.992920,1167.242188 584.025574,1167.712646 
	C545.312439,1168.000000 506.624878,1168.000000 467.468658,1168.000000 
z"/>
<path fill="#0D0E08" opacity="1.000000" stroke="none" 
	d="
M1155.166748,584.543335 
	C1155.929688,584.639954 1156.245850,584.778503 1156.572632,584.810608 
	C1167.021362,585.836060 1167.021484,585.834473 1167.021484,596.637207 
	C1167.021484,784.603455 1167.021362,972.569763 1167.019653,1160.536011 
	C1167.019653,1162.368896 1166.994507,1164.201660 1166.932129,1166.498169 
	C1089.054077,1166.987427 1011.224915,1167.026855 933.395752,1167.035400 
	C819.901062,1167.047852 706.406433,1167.037842 592.911743,1167.037720 
	C584.907471,1167.037598 584.910461,1167.038330 584.975464,1158.840210 
	C585.007141,1154.842163 585.025208,1150.844238 584.929932,1146.394287 
	C586.391479,1092.324829 595.761108,1040.048462 612.104614,989.011414 
	C632.026245,926.800720 661.874939,869.698669 701.116943,817.058594 
	C728.563293,781.262695 758.982239,748.792786 793.359741,720.088196 
	C834.713745,685.558472 879.906616,657.165039 929.056152,635.083069 
	C930.722351,634.334534 932.375183,633.556274 934.302429,632.670044 
	C965.929688,619.114075 998.106995,608.136902 1031.323120,600.262634 
	C1071.900879,590.643250 1112.996704,585.114990 1155.166748,584.543335 
z"/>
</svg>