<svg version="1.1" id="Layer_1" xmlns="http://www.w3.org/2000/svg" xmlns:xlink="http://www.w3.org/1999/xlink" x="0px" y="0px"
	 width="100%" viewBox="0 0 1167 1168" enable-background="new 0 0 1167 1168" xml:space="preserve">
<path fill="#0D0E08" opacity="1.000000" stroke="none" 
	d="
M1.000000,584.000000 
	C1.000000,389.712433 1.000000,195.424881 1.000000,1.000000 
	C389.362701,1.000000 777.725403,1.000000 1166.551880,1.461201 
	C1167.016968,193.793060 1167.017944,385.663696 1167.024292,577.534363 
	C1167.024414,579.697876 1167.095581,581.861450 1167.086182,584.034912 
	C1167.038818,584.044922 1166.955566,583.996155 1166.490723,583.960266 
	C1164.193604,583.904541 1162.361206,583.867310 1160.528931,583.867310 
	C778.016235,583.864868 395.503571,583.864685 12.990908,583.870850 
	C8.993937,583.870911 4.996969,583.955139 1.000000,584.000000 
z"/>
<path fill="#F92C01" opacity="1.000000" stroke="none" 
	d="
M2.000012,1169.000000 
	C1.666658,1168.833740 1.056161,1168.684814 1.044452,1168.498291 
	C0.961068,1167.171143 1.000000,1165.836426 1.000000,1164.504028 
	C1.000000,971.643494 1.000000,778.783020 1.468629,585.466919 
	C388.566498,585.006958 775.195740,585.002258 1161.824951,585.007202 
	C1163.487915,585.007202 1165.150757,585.144531 1166.868530,585.657349 
	C1166.935669,587.429077 1166.958984,588.761108 1166.958984,590.093201 
	C1166.959473,779.438171 1166.958862,968.783081 1166.953979,1158.128052 
	C1166.953857,1161.124634 1166.902954,1164.121338 1166.415161,1167.134644 
	C1164.454956,1167.161011 1162.955444,1167.179321 1161.455811,1167.179321 
	C804.366516,1167.179443 447.277283,1167.178223 90.188011,1167.177002 
	C62.693970,1167.177002 35.199783,1167.140747 7.706249,1167.255371 
	C5.801786,1167.263306 3.901996,1168.392334 2.000012,1169.000000 
z"/>
<path fill="#FFA811" opacity="1.000000" stroke="none" 
	d="
M2.468674,1169.000000 
	C3.901996,1168.392334 5.801786,1167.263306 7.706249,1167.255371 
	C35.199783,1167.140747 62.693970,1167.177002 90.188011,1167.177002 
	C447.277283,1167.178223 804.366516,1167.179443 1161.455811,1167.179321 
	C1162.955444,1167.179321 1164.454956,1167.161011 1166.565918,1167.324463 
	C1167.399292,1167.750610 1167.673462,1167.918091 1168.000000,1168.000000 
	C1167.833496,1168.333374 1167.684448,1168.943848 1167.497803,1168.955444 
	C1166.170166,1169.038818 1164.834961,1169.000000 1163.502075,1169.000000 
	C776.647156,1169.000000 389.792236,1169.000000 2.468674,1169.000000 
z"/>
<path fill="#662E1E" opacity="1.000000" stroke="none" 
	d="
M1166.813721,585.217712 
	C1165.150757,585.144531 1163.487915,585.007202 1161.824951,585.007202 
	C775.195740,585.002258 388.566498,585.006958 1.468629,585.005737 
	C1.000000,585.000000 1.000000,584.500000 1.000000,584.250000 
	C4.996969,583.955139 8.993937,583.870911 12.990908,583.870850 
	C395.503571,583.864685 778.016235,583.864868 1160.528931,583.867310 
	C1162.361206,583.867310 1164.193604,583.904541 1166.506104,584.271362 
	C1166.928833,584.818237 1166.871216,585.018005 1166.813721,585.217712 
z"/>
<path fill="#FFB891" opacity="1.000000" stroke="none" 
	d="
M1166.868530,585.657349 
	C1166.871216,585.018005 1166.928833,584.818237 1166.970947,584.307251 
	C1166.955566,583.996155 1167.038818,584.044922 1167.304199,584.082764 
	C1167.569580,584.120667 1168.000000,584.000000 1168.000000,584.000000 
	C1168.000000,778.358215 1168.000000,972.716492 1168.000000,1167.537354 
	C1167.673462,1167.918091 1167.399292,1167.750610 1167.026489,1167.307861 
	C1166.902954,1164.121338 1166.953857,1161.124634 1166.953979,1158.128052 
	C1166.958862,968.783081 1166.959473,779.438171 1166.958984,590.093201 
	C1166.958984,588.761108 1166.935669,587.429077 1166.868530,585.657349 
z"/>
<path fill="#8F826F" opacity="1.000000" stroke="none" 
	d="
M1168.000000,583.538757 
	C1168.000000,584.000000 1167.569580,584.120667 1167.351562,584.072815 
	C1167.095581,581.861450 1167.024414,579.697876 1167.024292,577.534363 
	C1167.017944,385.663696 1167.016968,193.793060 1167.007812,1.461213 
	C1167.333374,1.166328 1167.943848,1.315205 1167.955566,1.501730 
	C1168.038940,2.828831 1168.000000,4.163650 1168.000000,5.496017 
	C1168.000000,198.023178 1168.000000,390.550354 1168.000000,583.538757 
z"/>
</svg>