<svg version="1.1" id="Layer_1" xmlns="http://www.w3.org/2000/svg" xmlns:xlink="http://www.w3.org/1999/xlink" x="0px" y="0px"
	 width="100%" viewBox="0 0 1167 1168" enable-background="new 0 0 1167 1168" xml:space="preserve">
<path fill="#0F7FB5" opacity="1.000000" stroke="none" 
	d="
M1166.000000,1169.000000 
	C778.300598,1169.000000 390.601196,1169.000000 2.466706,1168.549194 
	C2.020749,1166.265747 2.000396,1164.433228 2.000391,1162.600586 
	C1.999300,775.400391 1.999682,388.200195 2.000000,1.000000 
	C390.032715,1.000000 778.065430,1.000000 1166.542236,1.461217 
	C1166.984497,387.822815 1166.985107,773.723145 1166.940430,1159.623535 
	C1166.940063,1162.749023 1166.327026,1165.874512 1166.000000,1169.000000 
M653.126892,346.685425 
	C653.583313,346.001556 654.023376,345.306091 654.498596,344.635529 
	C671.480591,320.672058 676.173889,294.469635 667.584290,266.414734 
	C655.099609,225.637817 612.089844,197.768021 568.177185,206.645264 
	C556.002258,209.106491 544.984375,213.533142 534.735596,220.363815 
	C500.788910,242.988754 486.304718,288.773438 503.840790,327.745544 
	C516.155701,355.114136 537.321106,372.035614 566.180176,378.498291 
	C581.718811,381.977966 597.580322,380.808014 613.003784,375.262299 
	C628.937561,369.533020 641.982849,360.175140 653.126892,346.685425 
M1004.509460,228.993652 
	C990.333801,215.256271 973.110229,207.575165 953.786560,205.392181 
	C933.446533,203.094391 914.463196,208.045609 897.022156,218.993362 
	C860.542725,241.891449 846.238586,291.571075 865.316711,329.978790 
	C879.033081,357.592407 900.939697,374.356140 931.581543,379.106445 
	C952.067749,382.282410 971.412292,378.651031 989.212219,367.965332 
	C1009.725220,355.650848 1023.130676,337.691559 1029.292847,314.664612 
	C1033.358154,299.473206 1033.032471,284.161774 1028.727905,268.856995 
	C1024.401855,253.475204 1016.167175,240.616241 1004.509460,228.993652 
z"/>
<path fill="#218B8E" opacity="1.000000" stroke="none" 
	d="
M1166.500000,1169.000000 
	C1166.327026,1165.874512 1166.940063,1162.749023 1166.940430,1159.623535 
	C1166.985107,773.723145 1166.984497,387.822815 1166.993164,1.461211 
	C1167.333374,1.166655 1167.943970,1.315896 1167.955566,1.502778 
	C1168.039062,2.830878 1168.000000,4.166667 1168.000000,5.500000 
	C1168.000000,391.833344 1168.001099,778.166687 1167.958740,1164.500000 
	C1167.958618,1166.000000 1167.333374,1167.500000 1166.500000,1169.000000 
z"/>
<path fill="#437D92" opacity="1.000000" stroke="none" 
	d="
M1.500000,1.000000 
	C1.999682,388.200195 1.999300,775.400391 2.000391,1162.600586 
	C2.000396,1164.433228 2.020749,1166.265747 2.015807,1168.549194 
	C1.666680,1168.833252 1.056206,1168.684082 1.044466,1168.497192 
	C0.961014,1167.169067 1.000000,1165.833374 1.000000,1164.500000 
	C1.000000,776.666687 1.000000,388.833344 1.500000,1.000000 
z"/>
<path fill="#FDAC01" opacity="1.000000" stroke="none" 
	d="
M652.809570,346.872070 
	C641.982849,360.175140 628.937561,369.533020 613.003784,375.262299 
	C597.580322,380.808014 581.718811,381.977966 566.180176,378.498291 
	C537.321106,372.035614 516.155701,355.114136 503.840790,327.745544 
	C486.304718,288.773438 500.788910,242.988754 534.735596,220.363815 
	C544.984375,213.533142 556.002258,209.106491 568.177185,206.645264 
	C612.089844,197.768021 655.099609,225.637817 667.584290,266.414734 
	C676.173889,294.469635 671.480591,320.672058 654.498596,344.635529 
	C654.023376,345.306091 653.583313,346.001556 652.809570,346.872070 
z"/>
<path fill="#FDAC01" opacity="1.000000" stroke="none" 
	d="
M1004.857300,229.136780 
	C1016.167175,240.616241 1024.401855,253.475204 1028.727905,268.856995 
	C1033.032471,284.161774 1033.358154,299.473206 1029.292847,314.664612 
	C1023.130676,337.691559 1009.725220,355.650848 989.212219,367.965332 
	C971.412292,378.651031 952.067749,382.282410 931.581543,379.106445 
	C900.939697,374.356140 879.033081,357.592407 865.316711,329.978790 
	C846.238586,291.571075 860.542725,241.891449 897.022156,218.993362 
	C914.463196,208.045609 933.446533,203.094391 953.786560,205.392181 
	C973.110229,207.575165 990.333801,215.256271 1004.857300,229.136780 
z"/>
</svg>