<svg version="1.1" id="Layer_1" xmlns="http://www.w3.org/2000/svg" xmlns:xlink="http://www.w3.org/1999/xlink" x="0px" y="0px"
	 width="100%" viewBox="0 0 1167 1166" enable-background="new 0 0 1167 1166" xml:space="preserve">
<path fill="#FFE8BF" opacity="1.000000" stroke="none" 
	d="
M1168.000000,1166.000000 
	C1167.833496,1166.333374 1167.684448,1166.943848 1167.497681,1166.955566 
	C1166.170044,1167.038940 1164.834839,1167.000000 1163.501953,1167.000000 
	C776.635254,1167.000000 389.768524,1167.000000 2.450570,1166.540283 
	C1.999278,780.132263 1.997815,394.183929 2.036216,8.235635 
	C2.036421,6.174469 2.597677,4.113358 3.177928,2.232090 
	C33.451622,32.384274 63.449932,62.350967 93.435585,92.330330 
	C130.858353,129.745239 168.269409,167.171860 205.687836,204.591110 
	C242.969360,241.873459 280.253754,279.152924 317.536896,316.433655 
	C354.820038,353.714386 392.104279,390.994019 429.386017,428.276154 
	C466.785583,465.676025 504.181549,503.079498 541.581055,540.479431 
	C578.862854,577.761536 616.148193,615.040100 653.429993,652.322144 
	C690.829529,689.722046 728.225525,727.125549 765.625000,764.525513 
	C802.906799,801.807556 840.190796,839.087463 877.474243,876.367859 
	C915.012329,913.902893 952.552734,951.435608 990.089050,988.972412 
	C1047.874878,1046.759033 1105.654907,1104.551392 1163.460815,1162.317871 
	C1164.831543,1163.687622 1166.480713,1164.778809 1168.000000,1166.000000 
z"/>
<path fill="#F92C01" opacity="1.000000" stroke="none" 
	d="
M1168.000000,1165.531372 
	C1166.480713,1164.778809 1164.831543,1163.687622 1163.460815,1162.317871 
	C1105.654907,1104.551392 1047.874878,1046.759033 990.089050,988.972412 
	C952.552734,951.435608 915.012329,913.902893 877.474243,876.367859 
	C840.190796,839.087463 802.906799,801.807556 765.625000,764.525513 
	C728.225525,727.125549 690.829529,689.722046 653.429993,652.322144 
	C616.148193,615.040100 578.862854,577.761536 541.581055,540.479431 
	C504.181549,503.079498 466.785583,465.676025 429.386017,428.276154 
	C392.104279,390.994019 354.820038,353.714386 317.536896,316.433655 
	C280.253754,279.152924 242.969360,241.873459 205.687836,204.591110 
	C168.269409,167.171860 130.858353,129.745239 93.435585,92.330330 
	C63.449932,62.350967 33.451622,32.384274 3.185625,1.967272 
	C2.941549,1.348390 2.970774,1.174195 3.000000,1.000000 
	C391.260590,1.000000 779.521179,1.000000 1168.000000,1.000000 
	C1168.000000,389.020874 1168.000000,777.041809 1168.000000,1165.531372 
z"/>
<path fill="#FFC5AA" opacity="1.000000" stroke="none" 
	d="
M2.500000,1.000000 
	C2.970774,1.174195 2.941549,1.348390 2.904626,1.787403 
	C2.597677,4.113358 2.036421,6.174469 2.036216,8.235635 
	C1.997815,394.183929 1.999278,780.132263 1.999675,1166.540283 
	C1.666687,1166.833496 1.056205,1166.684448 1.044472,1166.497803 
	C0.961045,1165.170288 1.000000,1163.835083 1.000000,1162.502319 
	C1.000000,776.833984 0.998846,391.165680 1.041218,5.497377 
	C1.041383,3.998216 1.666667,2.499124 2.500000,1.000000 
z"/>
</svg>