<svg version="1.1" id="Layer_1" xmlns="http://www.w3.org/2000/svg" xmlns:xlink="http://www.w3.org/1999/xlink" x="0px" y="0px"
	 width="100%" viewBox="0 0 1167 1166" enable-background="new 0 0 1167 1166" xml:space="preserve">
<path fill="#FFE8BF" opacity="1.000000" stroke="none" 
	d="
M1168.000000,1144.000000 
	C1168.000000,1151.022705 1168.000000,1158.045288 1167.701172,1165.484009 
	C1166.999146,1165.915894 1166.595947,1165.931885 1166.009277,1165.807617 
	C1165.628296,1165.406860 1165.367188,1165.260132 1164.892334,1164.917236 
	C1075.031128,1074.915039 985.308411,985.233704 895.617676,895.520447 
	C877.874573,877.772888 860.254517,859.902222 842.742676,841.772156 
	C852.705261,830.268250 863.079712,819.529541 872.199341,807.814087 
	C908.939392,760.616028 932.762451,707.575073 943.227783,648.562500 
	C950.086426,609.887634 950.754456,571.226074 945.307739,532.303528 
	C940.220459,495.949890 929.921143,461.212524 914.197449,428.167877 
	C887.141785,371.308197 848.002747,324.344360 796.812988,287.578705 
	C760.692200,261.635925 721.167847,242.968964 678.095093,231.547653 
	C657.978088,226.213379 637.615601,222.035049 617.017700,220.643188 
	C580.125488,218.150223 543.294067,219.147537 506.921906,227.610580 
	C486.919464,232.264755 467.374298,238.009689 448.301941,245.610733 
	C411.844910,260.140198 378.742706,280.150482 348.911530,305.595642 
	C341.142181,312.222687 333.595673,319.111084 325.728210,325.645264 
	C231.688583,231.581650 137.857819,137.761948 44.057110,43.912216 
	C30.199495,30.047363 16.484089,16.040379 3.190735,2.068310 
	C78.386711,2.024832 153.094833,2.020202 227.802933,1.957703 
	C229.868881,1.955975 231.934326,1.333185 234.000000,1.000000 
	C234.000000,1.000000 234.500000,1.000000 235.060516,1.277302 
	C236.928375,1.703056 238.235687,1.981280 239.543030,1.981396 
	C315.396759,1.988094 391.250488,1.971756 467.562500,1.966439 
	C504.946259,1.983625 541.871704,2.005591 578.797058,1.957919 
	C580.531799,1.955679 582.265686,1.333477 584.000000,1.000000 
	C622.689270,1.000000 661.378601,1.000000 700.845215,1.276292 
	C703.097168,1.701659 704.571716,1.980741 706.046387,1.981165 
	C780.626404,2.002610 855.206360,2.007041 929.786377,1.958696 
	C931.524414,1.957569 933.262146,1.333508 935.000000,1.000004 
	C1012.642090,1.000000 1090.284180,1.000000 1168.000000,1.000000 
	C1168.000000,378.355988 1168.000000,755.711975 1167.738525,1133.835327 
	C1167.651367,1137.735107 1167.825684,1140.867554 1168.000000,1144.000000 
z"/>
<path fill="#008E4E" opacity="1.000000" stroke="none" 
	d="
M842.577637,842.088257 
	C860.254517,859.902222 877.874573,877.772888 895.617676,895.520447 
	C985.308411,985.233704 1075.031128,1074.915039 1164.540527,1165.137207 
	C1162.186401,1165.776978 1160.034546,1165.983032 1157.882568,1165.983643 
	C1098.282471,1166.001709 1038.682495,1165.990601 979.082397,1166.005371 
	C964.100464,1166.009033 949.118469,1166.085083 933.656799,1166.083740 
	C855.760620,1166.047729 778.344238,1166.055908 700.464111,1166.041626 
	C637.869324,1166.012451 575.738159,1165.996826 513.606995,1166.004883 
	C498.117035,1166.006836 482.627045,1166.084839 466.657257,1166.086182 
	C407.723877,1166.029785 349.270355,1166.003906 290.816803,1166.006470 
	C272.166260,1166.007324 253.515732,1166.083984 234.406113,1166.092773 
	C156.298019,1166.039673 78.649010,1166.019897 1.000000,1166.000000 
	C1.000000,778.309998 1.000000,390.620026 1.281173,2.377065 
	C1.942527,1.915787 2.322709,2.007468 2.702890,2.099149 
	C16.484089,16.040379 30.199495,30.047363 44.057110,43.912216 
	C137.857819,137.761948 231.688583,231.581650 325.581909,325.956360 
	C325.254578,327.016785 324.902771,327.578979 324.448517,328.040314 
	C300.975677,351.878662 281.104156,378.408783 264.947357,407.706970 
	C242.592972,448.243561 228.502151,491.441833 222.594666,537.395569 
	C218.295242,570.840332 218.590851,604.209412 223.446289,637.494385 
	C228.211792,670.162720 237.321686,701.643127 250.805435,731.847168 
	C271.361633,777.893555 300.147888,817.977966 337.148804,852.221313 
	C366.461304,879.349182 399.379700,901.075439 435.823425,917.246216 
	C450.185669,923.619080 465.083893,928.974915 480.100525,933.622681 
	C492.513885,937.464783 505.383331,940.007019 518.192871,942.346924 
	C531.058838,944.697144 544.055298,947.104919 557.074768,947.684265 
	C584.828796,948.919250 612.656921,949.568420 640.185913,944.221802 
	C651.859070,941.954712 663.823547,940.726929 675.181824,937.406189 
	C692.338440,932.390015 709.324341,926.571289 725.944519,919.987244 
	C755.288208,908.362915 782.292480,892.385254 806.987061,872.744263 
	C819.231995,863.005127 830.737549,852.336426 842.577637,842.088257 
z"/>
<path fill="#F5EFD0" opacity="1.000000" stroke="none" 
	d="
M934.531372,1.000004 
	C933.262146,1.333508 931.524414,1.957569 929.786377,1.958696 
	C855.206360,2.007041 780.626404,2.002610 706.046387,1.981165 
	C704.571716,1.980741 703.097168,1.701659 701.311279,1.276292 
	C778.687561,1.000000 856.375122,1.000000 934.531372,1.000004 
z"/>
<path fill="#5E682C" opacity="1.000000" stroke="none" 
	d="
M1.000000,1166.500000 
	C78.649010,1166.019897 156.298019,1166.039673 234.443115,1166.310425 
	C234.939194,1166.561279 235.000000,1167.000000 235.000000,1167.000000 
	C157.000000,1167.000000 79.000000,1167.000000 1.000000,1166.500000 
z"/>
<path fill="#5E682C" opacity="1.000000" stroke="none" 
	d="
M467.137085,1166.127930 
	C482.627045,1166.084839 498.117035,1166.006836 513.606995,1166.004883 
	C575.738159,1165.996826 637.869324,1166.012451 700.491638,1166.274658 
	C700.982788,1166.530151 701.000000,1167.000000 701.000000,1167.000000 
	C623.312439,1167.000000 545.624878,1167.000000 467.500427,1166.781616 
	C467.063568,1166.563232 467.137085,1166.127930 467.137085,1166.127930 
z"/>
<path fill="#FFEB86" opacity="1.000000" stroke="none" 
	d="
M3.190735,2.068310 
	C2.322709,2.007468 1.942527,1.915787 1.281173,1.912053 
	C2.496566,1.666667 3.992951,1.042623 5.489725,1.041687 
	C81.347359,0.994264 157.205017,1.000000 233.531342,1.000000 
	C231.934326,1.333185 229.868881,1.955975 227.802933,1.957703 
	C153.094833,2.020202 78.386711,2.024832 3.190735,2.068310 
z"/>
<path fill="#5F682C" opacity="1.000000" stroke="none" 
	d="
M934.136536,1166.127930 
	C949.118469,1166.085083 964.100464,1166.009033 979.082397,1166.005371 
	C1038.682495,1165.990601 1098.282471,1166.001709 1157.882568,1165.983643 
	C1160.034546,1165.983032 1162.186401,1165.776978 1164.690308,1165.446899 
	C1165.367188,1165.260132 1165.628296,1165.406860 1166.013428,1166.080078 
	C1166.134155,1166.661987 1166.067017,1166.830933 1166.000000,1167.000000 
	C1088.979126,1167.000000 1011.958191,1167.000000 934.498901,1166.781372 
	C934.060486,1166.562744 934.136536,1166.127930 934.136536,1166.127930 
z"/>
<path fill="#247A43" opacity="1.000000" stroke="none" 
	d="
M933.656799,1166.083740 
	C934.136536,1166.127930 934.060486,1166.562744 934.030273,1166.781372 
	C856.645752,1167.000000 779.291565,1167.000000 701.468628,1167.000000 
	C701.000000,1167.000000 700.982788,1166.530151 700.955322,1166.297119 
	C778.344238,1166.055908 855.760620,1166.047729 933.656799,1166.083740 
z"/>
<path fill="#E8F4C8" opacity="1.000000" stroke="none" 
	d="
M467.104218,1.957654 
	C391.250488,1.971756 315.396759,1.988094 239.543030,1.981396 
	C238.235687,1.981280 236.928375,1.703056 235.310516,1.277302 
	C312.020905,1.000000 389.041779,1.000000 466.558258,1.239320 
	C467.053833,1.478641 467.104218,1.957654 467.104218,1.957654 
z"/>
<path fill="#247A43" opacity="1.000000" stroke="none" 
	d="
M466.657257,1166.086182 
	C467.137085,1166.127930 467.063568,1166.563232 467.031799,1166.781616 
	C389.979095,1167.000000 312.958221,1167.000000 235.468658,1167.000000 
	C235.000000,1167.000000 234.939194,1166.561279 234.902191,1166.343628 
	C253.515732,1166.083984 272.166260,1166.007324 290.816803,1166.006470 
	C349.270355,1166.003906 407.723877,1166.029785 466.657257,1166.086182 
z"/>
<path fill="#FFEB86" opacity="1.000000" stroke="none" 
	d="
M467.562500,1.966439 
	C467.104218,1.957654 467.053833,1.478641 467.026917,1.239320 
	C505.687561,1.000000 544.375122,1.000000 583.531372,1.000000 
	C582.265686,1.333477 580.531799,1.955679 578.797058,1.957919 
	C541.871704,2.005591 504.946259,1.983625 467.562500,1.966439 
z"/>
<path fill="#D0C5AA" opacity="1.000000" stroke="none" 
	d="
M1168.000000,1143.545898 
	C1167.825684,1140.867554 1167.651367,1137.735107 1167.738525,1134.301270 
	C1168.000000,1137.030640 1168.000000,1140.061157 1168.000000,1143.545898 
z"/>
<path fill="#D0C5AA" opacity="1.000000" stroke="none" 
	d="
M1166.500000,1167.000000 
	C1166.067017,1166.830933 1166.134155,1166.661987 1166.197021,1166.220337 
	C1166.595947,1165.931885 1166.999146,1165.915894 1167.701172,1165.949951 
	C1167.666626,1166.333374 1167.333374,1166.666626 1166.500000,1167.000000 
z"/>
<path fill="#FEAE01" opacity="1.000000" stroke="none" 
	d="
M842.742615,841.772095 
	C830.737549,852.336426 819.231995,863.005127 806.987061,872.744263 
	C782.292480,892.385254 755.288208,908.362915 725.944519,919.987244 
	C709.324341,926.571289 692.338440,932.390015 675.181824,937.406189 
	C663.823547,940.726929 651.859070,941.954712 640.185913,944.221802 
	C612.656921,949.568420 584.828796,948.919250 557.074768,947.684265 
	C544.055298,947.104919 531.058838,944.697144 518.192871,942.346924 
	C505.383331,940.007019 492.513885,937.464783 480.100525,933.622681 
	C465.083893,928.974915 450.185669,923.619080 435.823425,917.246216 
	C399.379700,901.075439 366.461304,879.349182 337.148804,852.221313 
	C300.147888,817.977966 271.361633,777.893555 250.805435,731.847168 
	C237.321686,701.643127 228.211792,670.162720 223.446289,637.494385 
	C218.590851,604.209412 218.295242,570.840332 222.594666,537.395569 
	C228.502151,491.441833 242.592972,448.243561 264.947357,407.706970 
	C281.104156,378.408783 300.975677,351.878662 324.448517,328.040314 
	C324.902771,327.578979 325.254578,327.016785 325.800507,326.190552 
	C333.595673,319.111084 341.142181,312.222687 348.911530,305.595642 
	C378.742706,280.150482 411.844910,260.140198 448.301941,245.610733 
	C467.374298,238.009689 486.919464,232.264755 506.921906,227.610580 
	C543.294067,219.147537 580.125488,218.150223 617.017700,220.643188 
	C637.615601,222.035049 657.978088,226.213379 678.095093,231.547653 
	C721.167847,242.968964 760.692200,261.635925 796.812988,287.578705 
	C848.002747,324.344360 887.141785,371.308197 914.197449,428.167877 
	C929.921143,461.212524 940.220459,495.949890 945.307739,532.303528 
	C950.754456,571.226074 950.086426,609.887634 943.227783,648.562500 
	C932.762451,707.575073 908.939392,760.616028 872.199341,807.814087 
	C863.079712,819.529541 852.705261,830.268250 842.742615,841.772095 
z"/>
</svg>