<svg version="1.1" id="Layer_1" xmlns="http://www.w3.org/2000/svg" xmlns:xlink="http://www.w3.org/1999/xlink" x="0px" y="0px"
	 width="100%" viewBox="0 0 1167 1168" enable-background="new 0 0 1167 1168" xml:space="preserve">
<path fill="#FEAD00" opacity="1.000000" stroke="none" 
	d="
M1.000000,1167.000000 
	C1.000000,778.400330 1.000000,389.800659 1.000000,1.000000 
	C389.366028,1.000000 777.732056,1.000000 1166.548584,1.453632 
	C1166.998901,362.095306 1167.001343,722.283386 1166.993774,1082.471436 
	C1166.993286,1110.625244 1166.921997,1138.779053 1166.441772,1166.964111 
	C777.666565,1166.996948 389.333282,1166.998413 1.000000,1167.000000 
M949.007690,220.545685 
	C948.997314,220.361649 948.986938,220.177628 948.416382,219.363007 
	C947.104736,219.213821 945.793091,218.934875 944.481384,218.934219 
	C898.878906,218.911194 853.276367,218.903793 807.673950,218.959183 
	C806.122803,218.961060 804.572449,219.631378 802.990234,220.548706 
	C803.021057,220.732620 803.051941,220.916519 803.018188,221.826447 
	C803.085083,222.548920 803.151978,223.271393 803.100586,224.907333 
	C803.091858,225.573486 803.075439,226.239624 803.075439,226.905777 
	C803.073975,464.928986 803.073425,702.952209 803.078613,940.975403 
	C803.078613,942.305786 803.159241,943.636169 803.022705,945.824829 
	C802.415955,949.804321 805.298035,949.008118 807.476685,949.008911 
	C853.263611,949.026428 899.050598,949.032166 944.837463,948.979065 
	C946.145569,948.977539 947.452881,948.307800 948.894104,947.047363 
	C948.904236,946.381226 948.923279,945.715088 948.923279,945.048950 
	C948.925720,706.364136 948.927063,467.679352 948.921387,228.994537 
	C948.921326,227.665329 948.820129,226.336136 948.935486,224.236649 
	C948.929260,223.188141 948.922974,222.139618 949.007690,220.545685 
M656.465332,219.322586 
	C655.483765,219.188232 654.502197,218.936798 653.520569,218.936356 
	C607.444519,218.915466 561.368530,218.907120 515.292542,218.958832 
	C513.893921,218.960403 512.496094,219.614319 511.021881,220.523529 
	C511.044403,220.710388 511.066925,220.897232 511.020630,222.008560 
	C511.012146,277.489532 510.997345,332.970490 510.996338,388.451447 
	C510.993073,573.055176 510.991180,757.658936 511.038696,942.262695 
	C511.039246,944.446716 511.702606,946.630615 512.976685,948.966736 
	C533.141968,948.986267 553.307312,949.015381 573.472595,949.022888 
	C599.804688,949.032654 626.136963,949.058228 652.468567,948.939636 
	C653.959412,948.932861 655.444702,947.684082 657.069275,946.100159 
	C657.066833,783.366821 657.068909,620.633423 657.060120,457.900055 
	C657.055786,378.949738 657.031006,299.999420 657.129272,220.485535 
	C657.112183,220.295013 657.095032,220.104492 656.465332,219.322586 
M221.927750,948.990051 
	C268.210480,949.002258 314.493195,949.023926 360.775879,948.986084 
	C362.327881,948.984802 363.879425,948.383606 365.816528,947.323730 
	C365.909668,945.665527 366.084290,944.007324 366.084381,942.349121 
	C366.096436,703.628662 366.097778,464.908203 366.064087,226.187729 
	C366.063782,224.063293 365.586426,221.938934 364.623688,219.293823 
	C363.471039,219.167816 362.318481,218.932144 361.165771,218.931641 
	C315.514587,218.911758 269.863129,218.981750 224.212555,218.812241 
	C219.331085,218.794128 218.943298,220.998077 218.944229,224.875549 
	C219.002228,464.460999 218.993515,704.046509 219.036453,943.631958 
	C219.036758,945.368896 219.664368,947.105713 220.495102,948.933228 
	C220.660843,948.909607 220.826599,948.886047 221.927750,948.990051 
z"/>
<path fill="#86A196" opacity="1.000000" stroke="none" 
	d="
M1.000000,1167.250000 
	C389.333282,1166.998413 777.666565,1166.996948 1166.720703,1166.988281 
	C1167.627563,1166.987427 1167.813843,1166.993652 1168.000000,1167.000000 
	C1167.666992,1167.666626 1167.452637,1168.783691 1166.977173,1168.909058 
	C1165.886597,1169.196411 1164.668579,1169.000000 1163.502319,1169.000000 
	C776.637329,1169.000000 389.772278,1169.000000 2.347455,1168.780151 
	C1.580018,1168.296387 1.317470,1168.109619 1.000000,1168.000000 
	C1.000000,1168.000000 1.000000,1167.500000 1.000000,1167.250000 
z"/>
<path fill="#9E9F75" opacity="1.000000" stroke="none" 
	d="
M1168.000000,1166.546387 
	C1167.813843,1166.993652 1167.627563,1166.987427 1167.162598,1166.957031 
	C1166.921997,1138.779053 1166.993286,1110.625244 1166.993774,1082.471436 
	C1167.001343,722.283386 1166.998901,362.095306 1166.999512,1.453633 
	C1167.333374,1.166494 1167.943848,1.315560 1167.955566,1.502270 
	C1168.039062,2.829891 1168.000000,4.165212 1168.000000,5.498080 
	C1168.000000,392.362976 1168.000000,779.227905 1168.000000,1166.546387 
z"/>
<path fill="#5F7B70" opacity="1.000000" stroke="none" 
	d="
M1.000000,1168.500000 
	C1.317470,1168.109619 1.580018,1168.296387 1.893822,1168.780151 
	C1.666667,1169.000000 1.333333,1169.000000 1.000000,1168.500000 
z"/>
<path fill="#038E4F" opacity="1.000000" stroke="none" 
	d="
M948.766174,225.006927 
	C948.820129,226.336136 948.921326,227.665329 948.921387,228.994537 
	C948.927063,467.679352 948.925720,706.364136 948.923279,945.048950 
	C948.923279,945.715088 948.904236,946.381226 948.434937,947.412720 
	C945.340820,947.529785 942.706116,947.067932 940.070801,947.065002 
	C898.487732,947.019104 856.904480,947.089050 815.321838,946.941772 
	C811.279724,946.927429 807.242004,945.654968 803.202271,944.966553 
	C803.159241,943.636169 803.078613,942.305786 803.078613,940.975403 
	C803.073425,702.952209 803.073975,464.928986 803.075439,226.905777 
	C803.075439,226.239624 803.091858,225.573486 803.331726,224.195892 
	C803.705566,222.685593 803.848206,221.886734 804.455811,221.017975 
	C842.318604,220.919632 879.716614,220.874420 917.114563,220.873672 
	C927.415955,220.873474 937.717285,221.006073 948.011719,221.419983 
	C948.258545,222.843796 948.512329,223.925369 948.766174,225.006927 
z"/>
<path fill="#038E4F" opacity="1.000000" stroke="none" 
	d="
M657.015503,221.049088 
	C657.031006,299.999420 657.055786,378.949738 657.060120,457.900055 
	C657.068909,620.633423 657.066833,783.366821 656.536743,946.562378 
	C626.576294,947.027161 597.148315,947.053101 567.720398,947.023560 
	C549.268127,947.005066 530.815918,946.903320 512.323792,946.382629 
	C512.248474,943.927856 512.182007,941.929443 512.181946,939.930969 
	C512.177307,762.164551 512.186462,584.398071 512.173218,406.631622 
	C512.168579,344.822693 512.109497,283.013794 512.532837,221.114716 
	C542.228333,220.970413 571.466248,220.881485 600.704224,220.874649 
	C619.474670,220.870270 638.245056,220.986771 657.015503,221.049088 
z"/>
<path fill="#ACAA37" opacity="1.000000" stroke="none" 
	d="
M219.999054,948.842590 
	C219.664368,947.105713 219.036758,945.368896 219.036453,943.631958 
	C218.993515,704.046509 219.002228,464.460999 218.944229,224.875549 
	C218.943298,220.998077 219.331085,218.794128 224.212555,218.812241 
	C269.863129,218.981750 315.514587,218.911758 361.165771,218.931641 
	C362.318481,218.932144 363.471039,219.167816 364.480591,219.585205 
	C318.433319,219.899124 272.529114,219.905716 226.625092,219.992844 
	C224.398590,219.997070 222.173447,220.708710 219.945435,221.550552 
	C219.942612,364.810699 219.934799,507.611206 219.943909,650.411743 
	C219.950241,749.888672 219.979843,849.365662 219.999054,948.842590 
z"/>
<path fill="#919511" opacity="1.000000" stroke="none" 
	d="
M219.947662,221.090942 
	C222.173447,220.708710 224.398590,219.997070 226.625092,219.992844 
	C272.529114,219.905716 318.433319,219.899124 364.834625,219.845551 
	C365.586426,221.938934 366.063782,224.063293 366.064087,226.187729 
	C366.097778,464.908203 366.096436,703.628662 366.084381,942.349121 
	C366.084290,944.007324 365.909668,945.665527 365.473755,947.703552 
	C365.130981,948.083374 364.834412,948.031738 364.883972,947.563110 
	C364.951141,946.594849 364.984192,946.095215 364.984222,945.595642 
	C364.989655,705.775696 364.993469,465.955750 364.983215,226.135818 
	C364.983154,224.533096 364.788635,222.930389 364.654877,220.862823 
	C362.556549,220.862823 360.921173,220.862854 359.285767,220.862823 
	C314.621613,220.861877 269.957428,220.858139 225.293259,220.872131 
	C223.800766,220.872589 222.308319,221.052261 220.599197,221.128143 
	C220.382538,221.107880 219.947662,221.090927 219.947662,221.090942 
z"/>
<path fill="#699B43" opacity="1.000000" stroke="none" 
	d="
M219.945435,221.550537 
	C219.947662,221.090927 220.382538,221.107880 220.635315,221.579865 
	C220.898026,223.718338 220.916611,225.384811 220.916626,227.051285 
	C220.917709,445.877380 220.914917,664.703430 220.921326,883.529541 
	C220.921936,904.694763 220.979492,925.860046 220.982758,947.330872 
	C220.967392,948.045105 220.979874,948.453796 220.992371,948.862427 
	C220.826599,948.886047 220.660843,948.909607 220.247070,948.887939 
	C219.979843,849.365662 219.950241,749.888672 219.943909,650.411743 
	C219.934799,507.611206 219.942612,364.810699 219.945435,221.550537 
z"/>
<path fill="#699B43" opacity="1.000000" stroke="none" 
	d="
M512.075317,221.204865 
	C512.109497,283.013794 512.168579,344.822693 512.173218,406.631622 
	C512.186462,584.398071 512.177307,762.164551 512.181946,939.930969 
	C512.182007,941.929443 512.248474,943.927856 512.233643,946.706299 
	C512.141174,947.929016 512.098877,948.371765 512.056580,948.814575 
	C511.702606,946.630615 511.039246,944.446716 511.038696,942.262695 
	C510.991180,757.658936 510.993073,573.055176 510.996338,388.451447 
	C510.997345,332.970490 511.012146,277.489532 511.304199,221.554474 
	C511.587769,221.100403 512.075317,221.204865 512.075317,221.204865 
z"/>
<path fill="#28914C" opacity="1.000000" stroke="none" 
	d="
M803.112488,945.395691 
	C807.242004,945.654968 811.279724,946.927429 815.321838,946.941772 
	C856.904480,947.089050 898.487732,947.019104 940.070801,947.065002 
	C942.706116,947.067932 945.340820,947.529785 948.368164,947.863892 
	C947.452881,948.307800 946.145569,948.977539 944.837463,948.979065 
	C899.050598,949.032166 853.263611,949.026428 807.476685,949.008911 
	C805.298035,949.008118 802.415955,949.804321 803.112488,945.395691 
z"/>
<path fill="#28914C" opacity="1.000000" stroke="none" 
	d="
M512.516602,948.890625 
	C512.098877,948.371765 512.141174,947.929016 512.273560,947.162598 
	C530.815918,946.903320 549.268127,947.005066 567.720398,947.023560 
	C597.148315,947.053101 626.576294,947.027161 656.468384,947.018982 
	C655.444702,947.684082 653.959412,948.932861 652.468567,948.939636 
	C626.136963,949.058228 599.804688,949.032654 573.472595,949.022888 
	C553.307312,949.015381 533.141968,948.986267 512.516602,948.890625 
z"/>
<path fill="#28914C" opacity="1.000000" stroke="none" 
	d="
M221.460052,948.926270 
	C220.979874,948.453796 220.967392,948.045105 221.450394,947.334045 
	C266.790222,947.031799 311.634613,947.014221 356.478851,947.075073 
	C359.264465,947.078857 362.049255,947.698608 364.834412,948.031738 
	C364.834412,948.031738 365.130981,948.083374 365.281067,948.072754 
	C363.879425,948.383606 362.327881,948.984802 360.775879,948.986084 
	C314.493195,949.023926 268.210480,949.002258 221.460052,948.926270 
z"/>
<path fill="#ACAA37" opacity="1.000000" stroke="none" 
	d="
M803.021729,219.990128 
	C804.572449,219.631378 806.122803,218.961060 807.673950,218.959183 
	C853.276367,218.903793 898.878906,218.911194 944.481384,218.934219 
	C945.793091,218.934875 947.104736,219.213821 948.229980,219.661652 
	C899.702942,219.970261 851.362366,219.980194 803.021729,219.990128 
z"/>
<path fill="#919511" opacity="1.000000" stroke="none" 
	d="
M512.532837,221.114716 
	C512.075317,221.204865 511.587769,221.100403 511.338623,221.092224 
	C511.066925,220.897232 511.044403,220.710388 511.519714,220.235474 
	C560.370972,219.936249 608.724365,219.925110 657.077820,219.913956 
	C657.095032,220.104492 657.112183,220.295013 657.072388,220.767303 
	C638.245056,220.986771 619.474670,220.870270 600.704224,220.874649 
	C571.466248,220.881485 542.228333,220.970413 512.532837,221.114716 
z"/>
<path fill="#919511" opacity="1.000000" stroke="none" 
	d="
M803.005981,220.269409 
	C851.362366,219.980194 899.702942,219.970261 948.510071,219.976959 
	C948.986938,220.177628 948.997314,220.361649 948.738159,220.782928 
	C948.468567,221.020187 948.018677,221.077744 948.018677,221.077728 
	C937.717285,221.006073 927.415955,220.873474 917.114563,220.873672 
	C879.716614,220.874420 842.318604,220.919632 804.228516,220.988861 
	C803.536316,221.029648 803.082825,221.100433 803.082825,221.100433 
	C803.051941,220.916519 803.021057,220.732620 803.005981,220.269409 
z"/>
<path fill="#ACAA37" opacity="1.000000" stroke="none" 
	d="
M656.771606,219.618271 
	C608.724365,219.925110 560.370972,219.936249 511.557709,219.955750 
	C512.496094,219.614319 513.893921,218.960403 515.292542,218.958832 
	C561.368530,218.907120 607.444519,218.915466 653.520569,218.936356 
	C654.502197,218.936798 655.483765,219.188232 656.771606,219.618271 
z"/>
<path fill="#28914C" opacity="1.000000" stroke="none" 
	d="
M948.011719,221.419983 
	C948.018677,221.077744 948.468567,221.020187 948.692627,221.055649 
	C948.922974,222.139618 948.929260,223.188141 948.850830,224.621796 
	C948.512329,223.925369 948.258545,222.843796 948.011719,221.419983 
z"/>
<path fill="#28914C" opacity="1.000000" stroke="none" 
	d="
M803.050537,221.463440 
	C803.082825,221.100433 803.536316,221.029648 803.763611,221.058762 
	C803.848206,221.886734 803.705566,222.685593 803.390869,223.739166 
	C803.151978,223.271393 803.085083,222.548920 803.050537,221.463440 
z"/>
<path fill="#038E4F" opacity="1.000000" stroke="none" 
	d="
M364.883972,947.563110 
	C362.049255,947.698608 359.264465,947.078857 356.478851,947.075073 
	C311.634613,947.014221 266.790222,947.031799 221.478241,947.028442 
	C220.979492,925.860046 220.921936,904.694763 220.921326,883.529541 
	C220.914917,664.703430 220.917709,445.877380 220.916626,227.051285 
	C220.916611,225.384811 220.898026,223.718338 220.851974,221.600128 
	C222.308319,221.052261 223.800766,220.872589 225.293259,220.872131 
	C269.957428,220.858139 314.621613,220.861877 359.285767,220.862823 
	C360.921173,220.862854 362.556549,220.862823 364.654877,220.862823 
	C364.788635,222.930389 364.983154,224.533096 364.983215,226.135818 
	C364.993469,465.955750 364.989655,705.775696 364.984222,945.595642 
	C364.984192,946.095215 364.951141,946.594849 364.883972,947.563110 
z"/>
</svg>