<svg version="1.1" id="Layer_1" xmlns="http://www.w3.org/2000/svg" xmlns:xlink="http://www.w3.org/1999/xlink" x="0px" y="0px"
	 width="100%" viewBox="0 0 1167 1166" enable-background="new 0 0 1167 1166" xml:space="preserve">
<path fill="#FFE7C0" opacity="1.000000" stroke="none" 
	d="
M1165.000000,0.999987 
	C1165.999634,1.000000 1166.999390,1.000000 1167.999512,1.000000 
	C1168.000000,388.699371 1168.000000,776.398743 1167.723877,1164.413330 
	C1167.256226,1164.802124 1167.064819,1164.875854 1166.412720,1164.963379 
	C1165.119141,1164.984497 1164.286011,1164.998291 1163.453003,1164.998291 
	C778.886658,1164.999512 394.320312,1164.999878 9.753988,1164.998779 
	C8.587843,1164.998779 7.375388,1165.174072 6.270544,1164.909058 
	C5.420071,1164.705200 4.704858,1163.937134 4.164328,1163.153564 
	C61.774410,1105.482056 119.150230,1048.077637 176.524765,990.671875 
	C239.416122,927.746399 302.306274,864.819824 365.478027,802.066040 
	C366.378693,802.789368 367.028412,803.310364 367.613647,803.895874 
	C438.372559,874.666382 509.143585,945.424988 579.824524,1016.273376 
	C582.933044,1019.389282 584.846130,1020.299377 588.445679,1016.695007 
	C731.588501,873.363037 874.817810,730.117371 1018.113464,586.938171 
	C1021.191223,583.862976 1021.186401,582.119263 1018.107178,579.048950 
	C948.555298,509.697662 879.097717,440.251831 809.655029,370.791199 
	C807.446838,368.582397 805.584290,366.028168 803.824829,363.361237 
	C805.131836,362.020447 806.164001,360.942627 807.219055,359.887665 
	C925.448486,241.660995 1043.681396,123.437683 1161.887451,5.187691 
	C1163.104004,3.970776 1163.970215,2.403629 1165.000000,0.999987 
z"/>
<path fill="#0F7FB5" opacity="1.000000" stroke="none" 
	d="
M1164.531372,0.999987 
	C1163.970215,2.403629 1163.104004,3.970776 1161.887451,5.187691 
	C1043.681396,123.437683 925.448486,241.660995 807.219055,359.887665 
	C806.164001,360.942627 805.131836,362.020447 803.515503,363.172791 
	C802.355957,362.977173 801.636292,362.829865 801.202698,362.396454 
	C735.829529,297.048889 670.461914,231.695740 605.145691,166.291397 
	C598.171753,159.308151 591.502380,152.020889 584.883606,145.075958 
	C583.135925,146.482132 582.444031,146.940247 581.869141,147.515274 
	C498.625092,230.777969 415.398071,314.057770 332.150635,397.317139 
	C271.462524,458.013824 210.753143,518.689270 150.026047,579.346985 
	C147.628662,581.741577 146.731018,583.445251 149.730499,586.428223 
	C198.777374,635.204163 247.725906,684.079163 296.641479,732.987000 
	C319.553680,755.895508 342.348785,778.921143 365.196960,801.893677 
	C302.306274,864.819824 239.416122,927.746399 176.524765,990.671875 
	C119.150230,1048.077637 61.774410,1105.482056 3.923872,1163.251831 
	C2.958284,1164.128052 2.467979,1164.639404 1.735287,1165.099854 
	C1.492900,1165.048950 1.000000,1165.000000 1.000000,1165.000000 
	C1.000000,777.072754 1.000000,389.145569 1.000000,1.000000 
	C388.687561,1.000000 776.375122,1.000000 1164.531372,0.999987 
z"/>
<path fill="#E4F1CE" opacity="1.000000" stroke="none" 
	d="
M1.977657,1165.150757 
	C2.467979,1164.639404 2.958284,1164.128052 3.689045,1163.518311 
	C4.704858,1163.937134 5.420071,1164.705200 6.270544,1164.909058 
	C7.375388,1165.174072 8.587843,1164.998779 9.753988,1164.998779 
	C394.320312,1164.999878 778.886658,1164.999512 1163.453003,1164.998291 
	C1164.286011,1164.998291 1165.119141,1164.984497 1166.414429,1165.313477 
	C1166.917725,1166.099731 1166.958862,1166.549927 1167.000000,1167.000000 
	C779.645752,1167.000000 392.291534,1167.000000 4.406341,1166.712280 
	C3.242790,1166.000000 2.610215,1165.575317 1.977657,1165.150757 
z"/>
<path fill="#9AA984" opacity="1.000000" stroke="none" 
	d="
M1.735270,1165.099854 
	C2.610215,1165.575317 3.242790,1166.000000 3.937675,1166.712280 
	C2.999983,1166.666748 1.999983,1166.333374 0.999991,1165.500000 
	C1.000000,1165.000000 1.492900,1165.048950 1.735270,1165.099854 
z"/>
<path fill="#9D9681" opacity="1.000000" stroke="none" 
	d="
M1167.500000,1167.000000 
	C1166.958862,1166.549927 1166.917725,1166.099731 1166.875000,1165.299561 
	C1167.064819,1164.875854 1167.256226,1164.802124 1167.723877,1164.864258 
	C1168.000000,1165.666626 1168.000000,1166.333374 1167.500000,1167.000000 
z"/>
<path fill="#FEAD00" opacity="1.000000" stroke="none" 
	d="
M365.478027,802.066040 
	C342.348785,778.921143 319.553680,755.895508 296.641479,732.987000 
	C247.725906,684.079163 198.777374,635.204163 149.730499,586.428223 
	C146.731018,583.445251 147.628662,581.741577 150.026047,579.346985 
	C210.753143,518.689270 271.462524,458.013824 332.150635,397.317139 
	C415.398071,314.057770 498.625092,230.777969 581.869141,147.515274 
	C582.444031,146.940247 583.135925,146.482132 584.883606,145.075958 
	C591.502380,152.020889 598.171753,159.308151 605.145691,166.291397 
	C670.461914,231.695740 735.829529,297.048889 801.202698,362.396454 
	C801.636292,362.829865 802.355957,362.977173 803.251343,363.446472 
	C805.584290,366.028168 807.446838,368.582397 809.655029,370.791199 
	C879.097717,440.251831 948.555298,509.697662 1018.107178,579.048950 
	C1021.186401,582.119263 1021.191223,583.862976 1018.113464,586.938171 
	C874.817810,730.117371 731.588501,873.363037 588.445679,1016.695007 
	C584.846130,1020.299377 582.933044,1019.389282 579.824524,1016.273376 
	C509.143585,945.424988 438.372559,874.666382 367.613647,803.895874 
	C367.028412,803.310364 366.378693,802.789368 365.478027,802.066040 
z"/>
</svg>