<svg version="1.1" id="Layer_1" xmlns="http://www.w3.org/2000/svg" xmlns:xlink="http://www.w3.org/1999/xlink" x="0px" y="0px"
	 width="100%" viewBox="0 0 1166 1166" enable-background="new 0 0 1166 1166" xml:space="preserve">
<path fill="#FFE8BF" opacity="1.000000" stroke="none" 
	d="
M1.000000,584.000000 
	C1.000000,389.666656 1.000000,195.333328 1.000000,1.000000 
	C18.421410,1.000000 35.742851,1.000000 53.797363,1.330294 
	C70.781097,2.819519 87.039925,3.876001 103.279694,5.171398 
	C115.209633,6.123013 127.142677,7.153107 139.023148,8.575747 
	C152.026505,10.132850 164.978699,12.129025 177.938583,14.033278 
	C187.460022,15.432303 196.999283,16.769968 206.455872,18.535275 
	C218.322220,20.750420 230.132095,23.282875 241.930237,25.844757 
	C257.773041,29.284914 273.692566,32.455711 289.375031,36.528210 
	C307.279663,41.177773 325.042114,46.425888 342.715546,51.900715 
	C361.774872,57.804871 380.973328,63.464561 399.549927,70.676353 
	C430.400421,82.653084 461.187561,94.937767 491.303253,108.628418 
	C536.608887,129.224426 580.085815,153.368820 622.204773,179.942245 
	C691.968506,223.957138 756.284668,274.857880 815.366211,332.376770 
	C847.688904,363.844635 878.028076,397.156921 906.461609,432.179474 
	C937.086304,469.900909 965.273926,509.379486 990.980164,550.614929 
	C1015.920776,590.622192 1038.970825,631.713684 1058.152832,674.780273 
	C1072.519043,707.034790 1086.355957,739.612244 1098.439697,772.770691 
	C1109.515137,803.162170 1118.551636,834.348816 1127.310791,865.515503 
	C1134.091797,889.644287 1139.807861,914.136292 1144.623779,938.735840 
	C1149.698730,964.658936 1153.853394,990.813171 1157.105835,1017.028198 
	C1160.564331,1044.903809 1162.492676,1072.969360 1165.015259,1101.418945 
	C1164.995850,1108.381714 1164.824585,1114.889648 1165.173706,1121.369385 
	C1165.473389,1126.929565 1166.368286,1132.457642 1167.000000,1138.000000 
	C1167.000000,1147.659790 1167.000000,1157.319580 1167.000000,1167.000000 
	C972.978577,1167.000000 778.957092,1167.000000 584.374695,1166.539185 
	C583.548706,1158.720825 583.283691,1151.363281 583.068359,1143.540283 
	C581.619873,1100.450073 575.274536,1058.535645 564.230530,1017.362793 
	C536.135193,912.621887 483.421478,822.044617 404.955811,747.306580 
	C292.054382,639.768494 157.029312,585.557007 1.000000,584.000000 
z"/>
<path fill="#FEAE01" opacity="1.000000" stroke="none" 
	d="
M1165.089111,1100.951904 
	C1162.492676,1072.969360 1160.564331,1044.903809 1157.105835,1017.028198 
	C1153.853394,990.813171 1149.698730,964.658936 1144.623779,938.735840 
	C1139.807861,914.136292 1134.091797,889.644287 1127.310791,865.515503 
	C1118.551636,834.348816 1109.515137,803.162170 1098.439697,772.770691 
	C1086.355957,739.612244 1072.519043,707.034790 1058.152832,674.780273 
	C1038.970825,631.713684 1015.920776,590.622192 990.980164,550.614929 
	C965.273926,509.379486 937.086304,469.900909 906.461609,432.179474 
	C878.028076,397.156921 847.688904,363.844635 815.366211,332.376770 
	C756.284668,274.857880 691.968506,223.957138 622.204773,179.942245 
	C580.085815,153.368820 536.608887,129.224426 491.303253,108.628418 
	C461.187561,94.937767 430.400421,82.653084 399.549927,70.676353 
	C380.973328,63.464561 361.774872,57.804871 342.715546,51.900715 
	C325.042114,46.425888 307.279663,41.177773 289.375031,36.528210 
	C273.692566,32.455711 257.773041,29.284914 241.930237,25.844757 
	C230.132095,23.282875 218.322220,20.750420 206.455872,18.535275 
	C196.999283,16.769968 187.460022,15.432303 177.938583,14.033278 
	C164.978699,12.129025 152.026505,10.132850 139.023148,8.575747 
	C127.142677,7.153107 115.209633,6.123013 103.279694,5.171398 
	C87.039925,3.876001 70.781097,2.819519 54.265221,1.330294 
	C424.926880,1.000000 795.853760,1.000000 1167.000000,1.000000 
	C1167.000000,368.354218 1167.000000,735.708496 1166.729980,1103.378662 
	C1166.002930,1102.780396 1165.546021,1101.866089 1165.089111,1100.951904 
z"/>
<path fill="#008E4E" opacity="1.000000" stroke="none" 
	d="
M1.000000,584.468628 
	C157.029312,585.557007 292.054382,639.768494 404.955811,747.306580 
	C483.421478,822.044617 536.135193,912.621887 564.230530,1017.362793 
	C575.274536,1058.535645 581.619873,1100.450073 583.017090,1144.004761 
	C582.920532,1149.600830 582.924133,1154.267090 582.929749,1158.933350 
	C582.938293,1165.999268 582.938904,1166.003418 575.976929,1166.003418 
	C384.317963,1166.002808 192.658981,1166.001343 1.000000,1166.000000 
	C1.000000,972.312439 1.000000,778.624878 1.000000,584.468628 
z"/>
<path fill="#2C8348" opacity="1.000000" stroke="none" 
	d="
M1.000000,1166.500000 
	C192.658981,1166.001343 384.317963,1166.002808 575.976929,1166.003418 
	C582.938904,1166.003418 582.938293,1165.999268 582.929749,1158.933350 
	C582.924133,1154.267090 582.920532,1149.600830 582.967285,1144.470215 
	C583.283691,1151.363281 583.548706,1158.720825 583.906860,1166.539185 
	C389.666656,1167.000000 195.333328,1167.000000 1.000000,1166.500000 
z"/>
<path fill="#F4CC68" opacity="1.000000" stroke="none" 
	d="
M1165.015137,1101.418945 
	C1165.546021,1101.866089 1166.002930,1102.780396 1166.729980,1103.847290 
	C1167.000000,1115.020874 1167.000000,1126.041870 1167.000000,1137.531372 
	C1166.368286,1132.457642 1165.473389,1126.929565 1165.173706,1121.369385 
	C1164.824585,1114.889648 1164.995850,1108.381714 1165.015137,1101.418945 
z"/>
</svg>