<svg version="1.1" id="Layer_1" xmlns="http://www.w3.org/2000/svg" xmlns:xlink="http://www.w3.org/1999/xlink" x="0px" y="0px"
	 width="100%" viewBox="0 0 1167 1166" enable-background="new 0 0 1167 1166" xml:space="preserve">
<path fill="#048E4F" opacity="1.000000" stroke="none" 
	d="
M1167.000000,1167.000000 
	C778.377991,1167.000000 389.755981,1167.000000 1.066997,1167.000000 
	C1.066997,778.422668 1.066997,389.845337 1.066997,1.000000 
	C389.365997,1.000000 777.732056,1.000000 1166.552002,1.450900 
	C1167.003784,390.267853 1167.001953,778.633911 1167.000000,1167.000000 
M466.295441,903.222046 
	C505.623383,942.521484 544.951294,981.820923 583.465393,1020.307129 
	C729.536377,874.258972 875.211975,728.606140 1020.341309,583.499451 
	C875.121460,438.265869 729.501648,292.632263 584.232483,147.349380 
	C438.874207,292.709625 293.215729,438.370056 146.770126,584.817627 
	C147.809341,585.553833 149.337677,586.343323 150.497955,587.501526 
	C180.379105,617.330200 210.220779,647.198425 240.071579,677.057434 
	C315.286926,752.293640 390.503479,827.528625 466.295441,903.222046 
z"/>
<path fill="#3C964D" opacity="1.000000" stroke="none" 
	d="
M1167.500000,1167.000000 
	C1167.001953,778.633911 1167.003784,390.267853 1167.002930,1.450894 
	C1167.333374,1.166655 1167.943970,1.315896 1167.955566,1.502778 
	C1168.039062,2.830878 1168.000000,4.166667 1168.000000,5.500000 
	C1168.000000,392.666656 1168.000000,779.833313 1167.500000,1167.000000 
z"/>
<path fill="#FFE7BF" opacity="1.000000" stroke="none" 
	d="
M466.007477,902.993042 
	C390.503479,827.528625 315.286926,752.293640 240.071579,677.057434 
	C210.220779,647.198425 180.379105,617.330200 150.497955,587.501526 
	C149.337677,586.343323 147.809341,585.553833 146.770126,584.817627 
	C293.215729,438.370056 438.874207,292.709625 584.232483,147.349380 
	C729.501648,292.632263 875.121460,438.265869 1020.341309,583.499451 
	C875.211975,728.606140 729.536377,874.258972 583.465393,1020.307129 
	C544.951294,981.820923 505.623383,942.521484 466.007477,902.993042 
M594.680237,496.795319 
	C546.984680,490.742218 503.773926,524.826843 497.334991,573.581116 
	C491.100403,620.788574 525.996216,664.693420 574.529175,670.704407 
	C620.925049,676.450684 665.540100,641.755615 671.031006,595.659485 
	C676.895081,546.431519 643.450623,502.662872 594.680237,496.795319 
z"/>
<path fill="#0D0F08" opacity="1.000000" stroke="none" 
	d="
M595.122925,496.846649 
	C643.450623,502.662872 676.895081,546.431519 671.031006,595.659485 
	C665.540100,641.755615 620.925049,676.450684 574.529175,670.704407 
	C525.996216,664.693420 491.100403,620.788574 497.334991,573.581116 
	C503.773926,524.826843 546.984680,490.742218 595.122925,496.846649 
z"/>
</svg>