<svg version="1.1" id="Layer_1" xmlns="http://www.w3.org/2000/svg" xmlns:xlink="http://www.w3.org/1999/xlink" x="0px" y="0px"
	 width="100%" viewBox="0 0 1167 1167" enable-background="new 0 0 1167 1167" xml:space="preserve">
<path fill="#F92C01" opacity="1.000000" stroke="none" 
	d="
M1129.000000,1.000003 
	C1141.354248,1.000000 1153.708496,1.000000 1166.533936,1.468651 
	C1167.005981,193.418442 1167.006836,384.899597 1167.006348,576.380737 
	C1167.006348,577.713867 1167.432495,579.286194 1166.873047,580.321960 
	C1166.104614,581.744568 1164.775879,583.272400 1163.333618,583.814758 
	C1161.724243,584.419861 1159.718872,583.980530 1157.885864,583.980591 
	C1025.398926,583.981934 892.911926,583.979858 760.424988,583.982239 
	C507.283325,583.986816 254.141663,583.993896 1.000000,584.000000 
	C1.000000,389.666656 1.000000,195.333328 1.000000,1.000000 
	C13.079587,1.000000 25.071135,1.000000 37.680595,1.375407 
	C39.433308,1.962157 40.561615,2.220706 41.703869,2.377922 
	C68.400002,6.052283 95.350777,8.435750 121.740791,13.655169 
	C172.230392,23.641005 220.350418,41.009220 266.107269,64.713898 
	C378.758972,123.073959 464.015289,208.835327 521.749207,321.687683 
	C554.542725,385.789124 574.035461,453.984009 581.152588,525.671326 
	C581.785950,532.051270 582.316040,538.441467 582.894104,544.826904 
	C583.334229,544.880127 583.774353,544.933289 584.214478,544.986450 
	C584.696533,543.398621 585.437866,541.838745 585.612244,540.217834 
	C586.146484,535.252136 586.376465,530.254395 586.877441,525.284485 
	C593.998169,454.643524 613.125854,387.401520 645.090576,324.014465 
	C698.674866,217.754898 777.340393,135.116791 880.683167,76.076828 
	C924.958923,50.782009 971.942322,32.015491 1021.292786,19.288624 
	C1054.890625,10.624162 1089.010620,4.898243 1123.669312,2.567561 
	C1125.473145,2.446263 1127.224365,1.540533 1129.000000,1.000003 
z"/>
<path fill="#FFE8BF" opacity="1.000000" stroke="none" 
	d="
M1128.531372,1.000003 
	C1127.224365,1.540533 1125.473145,2.446263 1123.669312,2.567561 
	C1089.010620,4.898243 1054.890625,10.624162 1021.292786,19.288624 
	C971.942322,32.015491 924.958923,50.782009 880.683167,76.076828 
	C777.340393,135.116791 698.674866,217.754898 645.090576,324.014465 
	C613.125854,387.401520 593.998169,454.643524 586.877441,525.284485 
	C586.376465,530.254395 586.146484,535.252136 585.612244,540.217834 
	C585.437866,541.838745 584.696533,543.398621 584.214478,544.986450 
	C583.774353,544.933289 583.334229,544.880127 582.894104,544.826904 
	C582.316040,538.441467 581.785950,532.051270 581.152588,525.671326 
	C574.035461,453.984009 554.542725,385.789124 521.749207,321.687683 
	C464.015289,208.835327 378.758972,123.073959 266.107269,64.713898 
	C220.350418,41.009220 172.230392,23.641005 121.740791,13.655169 
	C95.350777,8.435750 68.400002,6.052283 41.703869,2.377922 
	C40.561615,2.220706 39.433308,1.962157 38.149254,1.375407 
	C401.354248,1.000000 764.708496,1.000000 1128.531372,1.000003 
z"/>
<path fill="#FB9423" opacity="1.000000" stroke="none" 
	d="
M1.000000,584.468628 
	C254.141663,583.993896 507.283325,583.986816 760.424988,583.982239 
	C892.911926,583.979858 1025.398926,583.981934 1157.885864,583.980591 
	C1159.718872,583.980530 1161.724243,584.419861 1163.333618,583.814758 
	C1164.775879,583.272400 1166.104614,581.744568 1166.873047,580.321960 
	C1167.432495,579.286194 1167.006348,577.713867 1167.006348,576.380737 
	C1167.006836,384.899597 1167.005981,193.418442 1167.002686,1.468649 
	C1167.333374,1.166287 1167.943726,1.315160 1167.955444,1.501673 
	C1168.038818,2.828771 1168.000000,4.163549 1168.000000,5.495885 
	C1168.000000,198.351486 1168.000000,391.207092 1167.724121,584.537659 
	C1167.265625,585.033936 1167.083008,585.055298 1166.439331,585.064880 
	C1164.645264,585.042542 1163.312256,585.022644 1161.979126,585.022644 
	C777.854187,585.021240 393.729279,585.021179 9.604368,585.022217 
	C8.437909,585.022217 7.269997,585.080078 6.105276,585.039246 
	C3.114778,584.934448 1.880103,586.452454 1.961302,589.328857 
	C2.013002,591.160278 1.951780,592.994690 1.951767,594.827759 
	C1.950366,785.473694 1.949987,976.119568 1.711733,1166.822510 
	C1.473926,1166.879395 1.000000,1167.000000 1.000000,1167.000000 
	C1.000000,972.979126 1.000000,778.958191 1.000000,584.468628 
z"/>
<path fill="#E9BE5E" opacity="1.000000" stroke="none" 
	d="
M1166.900269,585.076599 
	C1167.083008,585.055298 1167.265625,585.033936 1167.724121,585.006348 
	C1168.000000,779.333313 1168.000000,973.666687 1168.000000,1168.000000 
	C779.000000,1168.000000 390.000000,1168.000000 1.000000,1167.500000 
	C1.000000,1167.000000 1.473926,1166.879395 2.184818,1166.890625 
	C5.228098,1166.934692 7.560486,1166.995850 9.892874,1166.995850 
	C316.691284,1167.000366 623.489746,1166.997314 930.288147,1167.003174 
	C1006.445923,1167.004639 1082.603638,1167.035767 1158.761475,1167.051147 
	C1167.046509,1167.052734 1167.046509,1167.046143 1167.074097,1159.005005 
	C1167.077026,1158.171753 1167.082886,1157.338501 1167.082886,1156.505249 
	C1167.081299,968.193359 1167.079834,779.881409 1167.069824,591.569519 
	C1167.069824,589.405212 1166.959229,587.240906 1166.900269,585.076599 
z"/>
<path fill="#FEAE01" opacity="1.000000" stroke="none" 
	d="
M1166.439331,585.064880 
	C1166.959229,587.240906 1167.069824,589.405212 1167.069824,591.569519 
	C1167.079834,779.881409 1167.081299,968.193359 1167.082886,1156.505249 
	C1167.082886,1157.338501 1167.077026,1158.171753 1167.074097,1159.005005 
	C1167.046509,1167.046143 1167.046509,1167.052734 1158.761475,1167.051147 
	C1082.603638,1167.035767 1006.445923,1167.004639 930.288147,1167.003174 
	C623.489746,1166.997314 316.691284,1167.000366 9.892874,1166.995850 
	C7.560486,1166.995850 5.228098,1166.934692 2.422626,1166.833740 
	C1.949987,976.119568 1.950366,785.473694 1.951767,594.827759 
	C1.951780,592.994690 2.013002,591.160278 1.961302,589.328857 
	C1.880103,586.452454 3.114778,584.934448 6.105276,585.039246 
	C7.269997,585.080078 8.437909,585.022217 9.604368,585.022217 
	C393.729279,585.021179 777.854187,585.021240 1161.979126,585.022644 
	C1163.312256,585.022644 1164.645264,585.042542 1166.439331,585.064880 
z"/>
</svg>