<svg version="1.1" id="Layer_1" xmlns="http://www.w3.org/2000/svg" xmlns:xlink="http://www.w3.org/1999/xlink" x="0px" y="0px"
	 width="100%" viewBox="0 0 1166 1167" enable-background="new 0 0 1166 1167" xml:space="preserve">
<path fill="#FFE8BF" opacity="1.000000" stroke="none" 
	d="
M934.000000,1168.000000 
	C856.979126,1168.000000 779.958191,1168.000000 702.468628,1167.540283 
	C702.000000,781.808289 702.001221,396.535980 701.968628,11.263703 
	C701.968445,9.173645 701.493042,7.083628 701.187256,4.641214 
	C701.080627,3.579694 701.026306,2.870551 701.072021,2.164502 
	C701.172119,2.167596 701.370361,2.137334 701.812622,2.110283 
	C762.973877,2.066566 823.692871,2.040034 884.411865,2.039737 
	C900.879456,2.039656 917.346985,2.118833 933.880249,2.601420 
	C933.956970,174.201767 933.970520,345.362335 933.978210,516.522888 
	C933.987976,733.681946 933.992981,950.840942 934.000000,1168.000000 
z"/>
<path fill="#F92C01" opacity="1.000000" stroke="none" 
	d="
M1165.000000,0.999997 
	C1165.666626,1.333040 1166.783691,1.547430 1166.909058,2.023070 
	C1167.196411,3.113666 1167.000000,4.331749 1167.000000,5.498069 
	C1167.000000,392.882935 1167.000000,780.267822 1167.000000,1168.000000 
	C1089.972290,1168.000000 1012.944092,1168.000000 935.457153,1167.541992 
	C934.998291,781.933655 934.998108,396.783234 934.999268,11.632810 
	C934.999329,8.466421 935.018250,5.300032 935.493530,2.078814 
	C1010.269958,2.014506 1084.581299,2.012933 1158.892578,1.953850 
	C1160.928589,1.952232 1162.964233,1.331839 1165.000000,0.999997 
z"/>
<path fill="#F92C01" opacity="1.000000" stroke="none" 
	d="
M700.971924,2.161407 
	C701.026306,2.870551 701.080627,3.579694 701.088379,5.092472 
	C701.027344,7.395282 701.000305,8.894459 701.000244,10.393635 
	C700.999023,396.262421 700.999512,782.131226 701.000000,1168.000000 
	C623.979126,1168.000000 546.958191,1168.000000 469.468567,1167.544067 
	C468.999664,918.769775 468.997009,670.451416 469.000397,422.133057 
	C469.002319,282.141571 469.014282,142.150070 469.485504,2.097966 
	C546.128174,2.024794 622.307068,2.011715 698.485962,2.006382 
	C699.314636,2.006324 700.143311,2.107492 700.971924,2.161407 
z"/>
<path fill="#F92C01" opacity="1.000000" stroke="none" 
	d="
M233.000000,1168.000000 
	C155.689682,1168.000000 78.379372,1168.000000 1.000000,1168.000000 
	C1.000000,779.638611 1.000000,391.277283 1.468657,2.456931 
	C76.957336,1.997095 151.977356,1.994959 226.997375,2.002309 
	C228.990631,2.002504 230.983902,2.105694 232.986801,2.602537 
	C232.997620,391.362823 232.998810,779.681396 233.000000,1168.000000 
z"/>
<path fill="#FFE8BF" opacity="1.000000" stroke="none" 
	d="
M467.000000,1168.000000 
	C389.979095,1168.000000 312.958221,1168.000000 235.463516,1167.541992 
	C234.988983,802.797852 234.988815,438.511566 234.986313,74.225296 
	C234.986160,50.228489 234.968384,26.231682 235.425720,2.164886 
	C312.875671,2.071325 389.858704,2.047755 466.929688,2.033982 
	C467.017609,2.043780 467.160889,2.147510 467.102661,2.589415 
	C467.034637,5.697806 467.016205,8.364291 467.016144,11.030776 
	C467.009918,396.687195 467.005005,782.343567 467.000000,1168.000000 
z"/>
<path fill="#E06D41" opacity="1.000000" stroke="none" 
	d="
M935.028320,2.133644 
	C935.018250,5.300032 934.999329,8.466421 934.999268,11.632810 
	C934.998108,396.783234 934.998291,781.933655 934.999146,1167.541992 
	C935.000000,1168.000000 934.500000,1168.000000 934.250000,1168.000000 
	C933.992981,950.840942 933.987976,733.681946 933.978210,516.522888 
	C933.970520,345.362335 933.956970,174.201767 933.969116,2.583437 
	C933.992188,2.125668 934.171753,2.101095 934.386963,2.082422 
	C934.602112,2.063749 935.028381,2.133644 935.028320,2.133644 
z"/>
<path fill="#E22F04" opacity="1.000000" stroke="none" 
	d="
M469.021698,2.158573 
	C469.014282,142.150070 469.002319,282.141571 469.000397,422.133057 
	C468.997009,670.451416 468.999664,918.769775 468.999908,1167.544067 
	C469.000000,1168.000000 468.500000,1168.000000 468.251312,1167.541992 
	C468.005280,778.776245 468.007965,390.468384 468.263336,2.123640 
	C468.684570,2.110682 468.853149,2.134627 469.021698,2.158573 
z"/>
<path fill="#E22F04" opacity="1.000000" stroke="none" 
	d="
M233.250000,1168.000000 
	C232.998810,779.681396 232.997620,391.362823 233.238068,2.552408 
	C233.650467,2.059670 233.821243,2.058746 234.039398,2.087560 
	C234.086777,2.117299 234.174606,2.186608 234.103638,2.623622 
	C234.021790,4.893639 234.001343,6.726641 234.001343,8.559644 
	C233.999924,395.039764 234.000000,781.519897 234.000000,1168.000000 
	C234.000000,1168.000000 233.500000,1168.000000 233.250000,1168.000000 
z"/>
<path fill="#FF8A60" opacity="1.000000" stroke="none" 
	d="
M234.250000,1168.000000 
	C234.000000,781.519897 233.999924,395.039764 234.001343,8.559644 
	C234.001343,6.726641 234.021790,4.893639 234.300980,2.608861 
	C234.569275,2.157086 234.958801,2.234876 234.958801,2.234876 
	C234.968384,26.231682 234.986160,50.228489 234.986313,74.225296 
	C234.988815,438.511566 234.988983,802.797852 234.994858,1167.541992 
	C235.000000,1168.000000 234.500000,1168.000000 234.250000,1168.000000 
z"/>
<path fill="#FF8A60" opacity="1.000000" stroke="none" 
	d="
M468.010651,2.160543 
	C468.007965,390.468384 468.005280,778.776245 468.001312,1167.541992 
	C468.000000,1168.000000 467.500000,1168.000000 467.250000,1168.000000 
	C467.005005,782.343567 467.009918,396.687195 467.016144,11.030776 
	C467.016205,8.364291 467.034637,5.697806 467.315308,2.561354 
	C467.586182,2.091387 468.010651,2.160543 468.010651,2.160543 
z"/>
<path fill="#F2C79A" opacity="1.000000" stroke="none" 
	d="
M701.250000,1168.000000 
	C700.999512,782.131226 700.999023,396.262421 701.000244,10.393635 
	C701.000305,8.894459 701.027344,7.395282 701.140747,5.444849 
	C701.493042,7.083628 701.968445,9.173645 701.968628,11.263703 
	C702.001221,396.535980 702.000000,781.808289 702.000000,1167.540283 
	C702.000000,1168.000000 701.500000,1168.000000 701.250000,1168.000000 
z"/>
<path fill="#717B3F" opacity="1.000000" stroke="none" 
	d="
M468.263336,2.123640 
	C468.010651,2.160543 467.586182,2.091387 467.373535,2.119448 
	C467.160889,2.147510 467.017609,2.043780 466.916229,1.770164 
	C466.876556,1.331032 466.938263,1.165516 467.000000,1.000000 
	C544.687561,1.000000 622.375122,1.000000 700.648193,1.276439 
	C701.279236,1.747696 701.324768,1.942515 701.370361,2.137334 
	C701.370361,2.137334 701.172119,2.167596 701.072021,2.164501 
	C700.143311,2.107492 699.314636,2.006324 698.485962,2.006382 
	C622.307068,2.011715 546.128174,2.024794 469.485504,2.097966 
	C468.853149,2.134627 468.684570,2.110682 468.263336,2.123640 
z"/>
<path fill="#F2C79A" opacity="1.000000" stroke="none" 
	d="
M701.812622,2.110283 
	C701.324768,1.942515 701.279236,1.747696 701.116821,1.276439 
	C778.354248,1.000000 855.708435,1.000000 933.494873,1.287663 
	C934.008606,1.750582 934.090149,1.925838 934.171753,2.101095 
	C934.171753,2.101095 933.992188,2.125668 933.903381,2.143650 
	C917.346985,2.118833 900.879456,2.039656 884.411865,2.039737 
	C823.692871,2.040034 762.973877,2.066566 701.812622,2.110283 
z"/>
<path fill="#F2C79A" opacity="1.000000" stroke="none" 
	d="
M466.531342,1.000000 
	C466.938263,1.165516 466.876556,1.331032 466.828308,1.760366 
	C389.858704,2.047755 312.875671,2.071325 235.425720,2.164886 
	C234.958801,2.234876 234.569275,2.157086 234.371948,2.171847 
	C234.174606,2.186608 234.086777,2.117299 234.114502,1.823590 
	C234.094803,1.353254 234.047409,1.176627 234.000000,1.000000 
	C311.354218,1.000000 388.708466,1.000000 466.531342,1.000000 
z"/>
<path fill="#717B3F" opacity="1.000000" stroke="none" 
	d="
M233.531342,1.000000 
	C234.047409,1.176627 234.094803,1.353254 234.067108,1.793851 
	C233.821243,2.058746 233.650467,2.059670 233.228424,2.110724 
	C230.983902,2.105694 228.990631,2.002504 226.997375,2.002309 
	C151.977356,1.994959 76.957336,1.997095 1.468657,1.998977 
	C2.496566,1.666667 3.992951,1.042623 5.489725,1.041687 
	C81.347359,0.994264 157.205017,1.000000 233.531342,1.000000 
z"/>
<path fill="#717B3F" opacity="1.000000" stroke="none" 
	d="
M934.386963,2.082422 
	C934.090149,1.925838 934.008606,1.750582 933.963501,1.287663 
	C1010.687561,1.000000 1087.375122,1.000000 1164.531372,0.999995 
	C1162.964233,1.331839 1160.928589,1.952232 1158.892578,1.953850 
	C1084.581299,2.012933 1010.269958,2.014506 935.493530,2.078814 
	C935.028381,2.133644 934.602112,2.063749 934.386963,2.082422 
z"/>
</svg>