<svg version="1.1" id="Layer_1" xmlns="http://www.w3.org/2000/svg" xmlns:xlink="http://www.w3.org/1999/xlink" x="0px" y="0px"
	 width="100%" viewBox="0 0 1166 1166" enable-background="new 0 0 1166 1166" xml:space="preserve">
<path fill="#FFE8BF" opacity="1.000000" stroke="none" 
	d="
M1.000000,583.000000 
	C1.000000,466.977997 1.000000,350.955963 1.201449,234.386215 
	C1.651413,233.678741 1.849900,233.471176 2.457335,233.155289 
	C3.749013,233.082596 4.581716,233.059723 5.414418,233.059708 
	C390.446808,233.058014 775.479187,233.057709 1160.511597,233.064087 
	C1162.008301,233.064117 1163.505127,233.160675 1165.107788,233.332367 
	C1165.213745,233.452560 1165.658203,233.489838 1165.658203,233.489838 
	C1165.658203,233.489838 1165.994263,233.166275 1166.241943,233.101730 
	C1166.659668,233.024796 1166.829834,233.012405 1167.000000,233.000000 
	C1167.000000,349.355347 1167.000000,465.710693 1166.538818,582.538269 
	C777.718323,583.007019 389.359161,583.003479 1.000000,583.000000 
z"/>
<path fill="#F92C01" opacity="1.000000" stroke="none" 
	d="
M586.000000,1167.000000 
	C585.555542,1167.000000 585.111145,1167.000000 584.339111,1166.775513 
	C584.011597,1166.551025 583.978638,1166.103027 583.821106,1165.834473 
	C582.765137,1165.668579 581.866638,1165.770996 580.917847,1166.156738 
	C580.911682,1166.626831 580.955872,1166.813477 581.000000,1167.000000 
	C578.958313,1167.000000 576.916687,1167.000000 574.510620,1166.725342 
	C574.118164,1166.263428 574.089966,1166.075928 573.735962,1165.623169 
	C572.094910,1165.227539 570.779663,1164.983032 569.464417,1164.983032 
	C379.976288,1164.977051 190.488144,1164.988892 1.000000,1165.000000 
	C1.000000,1049.311279 1.000000,933.622620 1.453632,817.466370 
	C390.271515,816.999207 778.635742,816.999573 1167.000000,817.000000 
	C1167.000000,932.688660 1167.000000,1048.377319 1166.531372,1164.532959 
	C975.647705,1165.000000 785.232666,1164.997070 594.817627,1165.035522 
	C592.558228,1165.036011 590.299011,1165.572876 587.729126,1165.917480 
	C586.945740,1166.317261 586.472839,1166.658569 586.000000,1167.000000 
z"/>
<path fill="#FEAE01" opacity="1.000000" stroke="none" 
	d="
M1.000000,583.461243 
	C389.359161,583.003479 777.718323,583.007019 1166.538818,583.005249 
	C1167.000000,660.359192 1167.000000,737.718323 1166.546387,815.538940 
	C777.728516,816.000244 389.364258,816.000122 1.000000,816.000000 
	C1.000000,738.640808 1.000000,661.281677 1.000000,583.461243 
z"/>
<path fill="#FEAE01" opacity="1.000000" stroke="none" 
	d="
M1167.000000,232.537369 
	C1166.829834,233.012405 1166.659668,233.024796 1165.991455,233.064789 
	C1165.329590,233.132324 1165.165771,233.172241 1165.001831,233.212158 
	C1163.505127,233.160675 1162.008301,233.064117 1160.511597,233.064087 
	C775.479187,233.057709 390.446808,233.058014 5.414418,233.059708 
	C4.581716,233.059723 3.749013,233.082596 2.213505,233.074585 
	C1.340466,233.036240 1.170233,233.018112 1.000000,233.000000 
	C1.000000,155.686859 1.000000,78.373718 1.000000,1.030291 
	C389.544952,1.030291 778.089905,1.030291 1167.000000,1.030291 
	C1167.000000,78.024529 1167.000000,155.049637 1167.000000,232.537369 
z"/>
<path fill="#E77800" opacity="1.000000" stroke="none" 
	d="
M1.000000,816.250000 
	C389.364258,816.000122 777.728516,816.000244 1166.546387,816.000183 
	C1167.000000,816.000000 1167.000000,816.500000 1167.000000,816.750000 
	C778.635742,816.999573 390.271515,816.999207 1.453632,816.999390 
	C1.000000,817.000000 1.000000,816.500000 1.000000,816.250000 
z"/>
<path fill="#FF855E" opacity="1.000000" stroke="none" 
	d="
M586.461182,1167.000000 
	C586.472839,1166.658569 586.945740,1166.317261 588.191406,1165.968506 
	C591.129089,1165.974121 593.293823,1165.998291 595.458618,1165.998291 
	C785.972412,1166.000122 976.486206,1166.000000 1167.000000,1166.000000 
	C1166.833618,1166.333252 1166.684814,1166.943848 1166.498291,1166.955566 
	C1165.171143,1167.038940 1163.836426,1167.000000 1162.504028,1167.000000 
	C970.643494,1167.000000 778.783020,1167.000000 586.461182,1167.000000 
z"/>
<path fill="#D5360F" opacity="1.000000" stroke="none" 
	d="
M1167.000000,1165.750000 
	C976.486206,1166.000000 785.972412,1166.000122 595.458618,1165.998291 
	C593.293823,1165.998291 591.129089,1165.974121 588.501953,1165.910156 
	C590.299011,1165.572876 592.558228,1165.036011 594.817627,1165.035522 
	C785.232666,1164.997070 975.647705,1165.000000 1166.531372,1165.000000 
	C1167.000000,1165.000000 1167.000000,1165.500000 1167.000000,1165.750000 
z"/>
<path fill="#D5360F" opacity="1.000000" stroke="none" 
	d="
M1.000000,1165.250000 
	C190.488144,1164.988892 379.976288,1164.977051 569.464417,1164.983032 
	C570.779663,1164.983032 572.094910,1165.227539 573.268188,1165.662109 
	C569.795166,1165.974609 566.464111,1165.989868 563.132996,1165.989990 
	C375.755341,1165.994141 188.377670,1165.996948 1.000000,1166.000000 
	C1.000000,1166.000000 1.000000,1165.500000 1.000000,1165.250000 
z"/>
<path fill="#901200" opacity="1.000000" stroke="none" 
	d="
M1.000000,1166.500000 
	C188.377670,1165.996948 375.755341,1165.994141 563.132996,1165.989990 
	C566.464111,1165.989868 569.795166,1165.974609 573.593994,1165.927490 
	C574.089966,1166.075928 574.118164,1166.263428 574.073120,1166.725342 
	C383.000000,1167.000000 192.000000,1167.000000 1.000000,1166.500000 
z"/>
<path fill="#901200" opacity="1.000000" stroke="none" 
	d="
M581.375000,1167.000000 
	C580.955872,1166.813477 580.911682,1166.626831 581.293640,1166.196899 
	C582.472717,1166.003418 583.225708,1166.053223 583.978638,1166.103027 
	C583.978638,1166.103027 584.011597,1166.551025 584.005798,1166.775513 
	C583.250000,1167.000000 582.500000,1167.000000 581.375000,1167.000000 
z"/>
<path fill="#F8DBA8" opacity="1.000000" stroke="none" 
	d="
M1.000000,233.250000 
	C1.170233,233.018112 1.340466,233.036240 1.754529,233.135071 
	C1.849900,233.471176 1.651413,233.678741 1.201449,233.919235 
	C1.000000,234.000000 1.000000,233.500000 1.000000,233.250000 
z"/>
<path fill="#F8DBA8" opacity="1.000000" stroke="none" 
	d="
M1165.107788,233.332367 
	C1165.165771,233.172241 1165.329590,233.132324 1165.743896,233.129333 
	C1165.994263,233.166275 1165.658203,233.489838 1165.658203,233.489838 
	C1165.658203,233.489838 1165.213745,233.452560 1165.107788,233.332367 
z"/>
<path fill="#D5360F" opacity="1.000000" stroke="none" 
	d="
M583.821106,1165.834473 
	C583.225708,1166.053223 582.472717,1166.003418 581.343994,1165.913574 
	C581.866638,1165.770996 582.765137,1165.668579 583.821106,1165.834473 
z"/>
</svg>