<svg version="1.1" id="Layer_1" xmlns="http://www.w3.org/2000/svg" xmlns:xlink="http://www.w3.org/1999/xlink" x="0px" y="0px"
	 width="100%" viewBox="0 0 1167 1166" enable-background="new 0 0 1167 1166" xml:space="preserve">
<path fill="#FEAE01" opacity="1.000000" stroke="none" 
	d="
M1.999995,1167.000000 
	C1.666669,1166.833374 1.056196,1166.684204 1.044456,1166.497314 
	C0.961007,1165.169434 1.000000,1163.833740 1.000000,1162.500610 
	C1.000000,775.378418 1.000000,388.256226 1.000000,1.067020 
	C389.910645,1.067020 778.821289,1.067020 1168.000000,1.067020 
	C1168.000000,389.032684 1168.000000,777.065430 1167.540283,1165.547363 
	C1050.085815,1165.996094 933.091125,1165.995361 816.096375,1165.995361 
	C546.775208,1165.995605 277.454071,1165.993896 8.132927,1166.037964 
	C6.088562,1166.038330 4.044299,1166.665405 1.999995,1167.000000 
M661.316772,152.226898 
	C650.492310,150.575760 639.718750,148.150085 628.832764,147.434204 
	C605.931946,145.928177 583.043091,144.001526 559.994995,146.048782 
	C538.478027,147.960037 516.919922,149.457870 495.933868,154.786194 
	C476.578094,159.700562 457.198761,164.708633 438.216339,170.866821 
	C403.182281,182.232437 370.718353,199.172348 340.370697,219.888367 
	C265.518127,270.984589 210.940765,338.484558 177.392593,422.873535 
	C161.164444,463.694794 151.639832,506.037598 148.264114,549.721619 
	C145.313309,587.906860 147.369659,625.963867 154.383682,663.626770 
	C160.640427,697.223206 170.638397,729.765625 184.703903,760.938477 
	C216.796005,832.063354 264.265381,890.849060 327.272156,936.924011 
	C355.318146,957.433167 385.231934,974.838379 417.727997,987.307983 
	C436.345245,994.451904 455.236786,1001.075928 474.405670,1006.523621 
	C488.844482,1010.627014 503.826843,1013.190613 518.735657,1015.174133 
	C537.825195,1017.713989 557.056396,1020.094971 576.275146,1020.566772 
	C615.116150,1021.520386 653.445923,1016.897034 691.229797,1007.400574 
	C714.522217,1001.546448 737.241455,994.105896 759.161072,984.495972 
	C809.218079,962.550232 853.858948,932.445190 892.657410,893.825745 
	C934.024414,852.649597 966.085571,805.256348 988.644348,751.362000 
	C1002.648682,717.904724 1012.274048,683.253479 1017.611389,647.473694 
	C1022.365112,615.606506 1023.410583,583.521912 1021.100586,551.325195 
	C1019.118164,523.693970 1014.695190,496.473236 1007.538696,469.761200 
	C999.140930,438.415833 987.415649,408.306213 972.187744,379.588593 
	C934.347351,308.226990 880.957520,251.425278 812.208069,209.152679 
	C782.899658,191.131577 751.972351,176.319870 718.836609,166.751404 
	C700.125061,161.348160 681.046814,157.214905 661.316772,152.226898 
z"/>
<path fill="#ED8700" opacity="1.000000" stroke="none" 
	d="
M2.459699,1167.000000 
	C4.044299,1166.665405 6.088562,1166.038330 8.132927,1166.037964 
	C277.454071,1165.993896 546.775208,1165.995605 816.096375,1165.995361 
	C933.091125,1165.995361 1050.085815,1165.996094 1167.540283,1165.998291 
	C1167.833496,1166.333374 1167.684448,1166.943848 1167.497681,1166.955566 
	C1166.170044,1167.038940 1164.834839,1167.000000 1163.501953,1167.000000 
	C776.641113,1167.000000 389.780243,1167.000000 2.459699,1167.000000 
z"/>
<path fill="#FFE8BF" opacity="1.000000" stroke="none" 
	d="
M661.725220,152.368240 
	C681.046814,157.214905 700.125061,161.348160 718.836609,166.751404 
	C751.972351,176.319870 782.899658,191.131577 812.208069,209.152679 
	C880.957520,251.425278 934.347351,308.226990 972.187744,379.588593 
	C987.415649,408.306213 999.140930,438.415833 1007.538696,469.761200 
	C1014.695190,496.473236 1019.118164,523.693970 1021.100586,551.325195 
	C1023.410583,583.521912 1022.365112,615.606506 1017.611389,647.473694 
	C1012.274048,683.253479 1002.648682,717.904724 988.644348,751.362000 
	C966.085571,805.256348 934.024414,852.649597 892.657410,893.825745 
	C853.858948,932.445190 809.218079,962.550232 759.161072,984.495972 
	C737.241455,994.105896 714.522217,1001.546448 691.229797,1007.400574 
	C653.445923,1016.897034 615.116150,1021.520386 576.275146,1020.566772 
	C557.056396,1020.094971 537.825195,1017.713989 518.735657,1015.174133 
	C503.826843,1013.190613 488.844482,1010.627014 474.405670,1006.523621 
	C455.236786,1001.075928 436.345245,994.451904 417.727997,987.307983 
	C385.231934,974.838379 355.318146,957.433167 327.272156,936.924011 
	C264.265381,890.849060 216.796005,832.063354 184.703903,760.938477 
	C170.638397,729.765625 160.640427,697.223206 154.383682,663.626770 
	C147.369659,625.963867 145.313309,587.906860 148.264114,549.721619 
	C151.639832,506.037598 161.164444,463.694794 177.392593,422.873535 
	C210.940765,338.484558 265.518127,270.984589 340.370697,219.888367 
	C370.718353,199.172348 403.182281,182.232437 438.216339,170.866821 
	C457.198761,164.708633 476.578094,159.700562 495.933868,154.786194 
	C516.919922,149.457870 538.478027,147.960037 559.994995,146.048782 
	C583.043091,144.001526 605.931946,145.928177 628.832764,147.434204 
	C639.718750,148.150085 650.492310,150.575760 661.725220,152.368240 
M649.943237,641.439941 
	C667.913208,620.722900 675.202148,596.750122 671.136780,569.633179 
	C663.718506,520.150940 616.577637,487.406067 567.133789,497.129150 
	C518.861633,506.621796 487.441284,555.657776 499.614319,603.610535 
	C508.003357,636.657104 529.139465,658.740112 562.044128,667.437866 
	C595.702576,676.334839 625.203735,667.196777 649.943237,641.439941 
z"/>
<path fill="#0E0F08" opacity="1.000000" stroke="none" 
	d="
M649.706543,641.701782 
	C625.203735,667.196777 595.702576,676.334839 562.044128,667.437866 
	C529.139465,658.740112 508.003357,636.657104 499.614319,603.610535 
	C487.441284,555.657776 518.861633,506.621796 567.133789,497.129150 
	C616.577637,487.406067 663.718506,520.150940 671.136780,569.633179 
	C675.202148,596.750122 667.913208,620.722900 649.706543,641.701782 
z"/>
</svg>