<svg version="1.1" id="Layer_1" xmlns="http://www.w3.org/2000/svg" xmlns:xlink="http://www.w3.org/1999/xlink" x="0px" y="0px"
	 width="100%" viewBox="0 0 1167 1167" enable-background="new 0 0 1167 1167" xml:space="preserve">
<path fill="#0D0E08" opacity="1.000000" stroke="none" 
	d="
M1168.000000,2.000000 
	C1168.000000,390.599640 1168.000000,779.199280 1168.000000,1168.000000 
	C779.633972,1168.000000 391.267883,1168.000000 2.440941,1167.537354 
	C1.978411,975.257141 1.977449,783.439453 1.967465,591.621765 
	C1.967335,589.124512 1.852573,586.627197 1.863202,583.659973 
	C1.952465,581.691406 1.985049,580.192749 1.985064,578.694153 
	C1.986910,388.990021 1.986004,199.285889 1.990044,9.581760 
	C1.990097,7.084544 2.051577,4.587329 2.539079,2.049119 
	C193.313354,2.002275 383.632935,1.997229 573.952515,1.984602 
	C577.616821,1.984359 581.281128,1.894781 585.413696,1.896344 
	C589.879211,1.952879 593.876526,1.965918 597.873840,1.966170 
	C787.915894,1.978143 977.957947,1.989009 1168.000000,2.000000 
M848.065796,332.435822 
	C846.448669,330.753448 844.859436,329.043243 843.210449,327.392761 
	C743.458496,227.551468 597.157349,194.040955 463.773926,240.475952 
	C307.565643,294.856995 206.495041,450.855835 221.267929,615.394409 
	C229.446899,706.490845 265.929138,784.768311 332.370117,847.605652 
	C419.939117,930.424683 524.668823,962.387451 643.585510,944.393250 
	C724.627197,932.130127 793.920776,895.000183 849.665466,834.899780 
	C930.802856,747.422791 962.130615,643.599731 944.435730,525.823914 
	C933.285217,451.607025 900.123047,387.491547 848.065796,332.435822 
z"/>
<path fill="#3A9257" opacity="1.000000" stroke="none" 
	d="
M584.945435,1.846883 
	C581.281128,1.894781 577.616821,1.984359 573.952515,1.984602 
	C383.632935,1.997229 193.313354,2.002275 2.268228,2.022439 
	C1.361790,2.024502 1.180895,2.012251 1.000000,2.000000 
	C1.166303,1.666667 1.315187,1.056175 1.501702,1.044453 
	C2.828824,0.961048 4.163635,1.000000 5.495998,1.000000 
	C198.355560,1.000000 391.215149,1.000000 584.506897,1.210638 
	C584.939087,1.421276 584.945435,1.846884 584.945435,1.846883 
z"/>
<path fill="#9A6E00" opacity="1.000000" stroke="none" 
	d="
M1.791316,584.129944 
	C1.852573,586.627197 1.967335,589.124512 1.967465,591.621765 
	C1.977449,783.439453 1.978411,975.257141 1.990022,1167.537354 
	C1.666638,1167.833740 1.056157,1167.684937 1.044432,1167.498291 
	C0.961037,1166.171143 1.000000,1164.836426 1.000000,1163.504028 
	C1.000000,970.644470 1.000000,777.784851 1.195570,584.508911 
	C1.391141,584.092468 1.791316,584.129944 1.791316,584.129944 
z"/>
<path fill="#AE9A69" opacity="1.000000" stroke="none" 
	d="
M585.413696,1.896344 
	C584.945435,1.846884 584.939087,1.421276 584.969543,1.210638 
	C779.333313,1.000000 973.666687,1.000000 1168.000000,1.500000 
	C977.957947,1.989009 787.915894,1.978143 597.873840,1.966170 
	C593.876526,1.965918 589.879211,1.952879 585.413696,1.896344 
z"/>
<path fill="#1C643E" opacity="1.000000" stroke="none" 
	d="
M1.863202,583.659973 
	C1.791316,584.129944 1.391141,584.092468 1.195570,584.046265 
	C1.000000,390.308411 1.000000,196.616852 1.000000,2.462638 
	C1.180895,2.012251 1.361790,2.024502 1.813535,2.063433 
	C2.051577,4.587329 1.990097,7.084544 1.990044,9.581760 
	C1.986004,199.285889 1.986910,388.990021 1.985064,578.694153 
	C1.985049,580.192749 1.952465,581.691406 1.863202,583.659973 
z"/>
<path fill="#FFE8BF" opacity="1.000000" stroke="none" 
	d="
M848.317749,332.684326 
	C900.123047,387.491547 933.285217,451.607025 944.435730,525.823914 
	C962.130615,643.599731 930.802856,747.422791 849.665466,834.899780 
	C793.920776,895.000183 724.627197,932.130127 643.585510,944.393250 
	C524.668823,962.387451 419.939117,930.424683 332.370117,847.605652 
	C265.929138,784.768311 229.446899,706.490845 221.267929,615.394409 
	C206.495041,450.855835 307.565643,294.856995 463.773926,240.475952 
	C597.157349,194.040955 743.458496,227.551468 843.210449,327.392761 
	C844.859436,329.043243 846.448669,330.753448 848.317749,332.684326 
z"/>
</svg>