<svg version="1.1" id="Layer_1" xmlns="http://www.w3.org/2000/svg" xmlns:xlink="http://www.w3.org/1999/xlink" x="0px" y="0px"
	 width="100%" viewBox="0 0 1167 1166" enable-background="new 0 0 1167 1166" xml:space="preserve">
<path fill="#FEAEA3" opacity="1.000000" stroke="none" 
	d="
M2.000000,1.000000 
	C390.621979,1.000000 779.243958,1.000000 1167.932983,1.000000 
	C1167.932983,389.577332 1167.932983,778.154724 1167.932983,1167.000000 
	C779.633972,1167.000000 391.267883,1167.000000 2.450811,1166.549072 
	C1.999875,777.732117 1.999937,389.366058 2.000000,1.000000 
M169.875717,722.542786 
	C182.118332,759.031738 198.464828,793.592896 220.215210,825.342896 
	C294.522980,933.813354 396.486298,998.374695 526.910461,1017.278137 
	C567.932678,1023.223816 608.994812,1022.564148 649.909058,1016.538757 
	C687.598633,1010.988342 723.983765,1000.578674 758.955872,985.288269 
	C832.423035,953.167297 892.816467,904.731445 939.755371,839.803345 
	C987.925659,773.172058 1015.021301,698.695679 1021.286743,616.639099 
	C1025.746216,558.234314 1018.934326,501.178619 1000.390320,445.694885 
	C973.658142,365.712433 927.528564,298.794891 862.401428,245.235153 
	C801.455078,195.113525 731.730164,163.958160 653.872559,151.412766 
	C615.386108,145.211380 576.665344,144.535095 537.822449,148.656860 
	C495.810425,153.114960 455.310394,163.347061 416.436462,179.708450 
	C342.413849,210.863358 281.181946,258.645691 233.389847,323.189178 
	C178.212677,397.706299 149.824463,481.672760 147.482086,574.282715 
	C146.207626,624.670837 153.688065,673.906372 169.875717,722.542786 
z"/>
<path fill="#FFCCB9" opacity="1.000000" stroke="none" 
	d="
M1.500000,1.000000 
	C1.999937,389.366058 1.999875,777.732117 1.999904,1166.549072 
	C1.666663,1166.833374 1.056197,1166.684082 1.044449,1166.497192 
	C0.961022,1165.169067 1.000000,1163.833374 1.000000,1162.500000 
	C1.000000,775.333313 1.000000,388.166656 1.500000,1.000000 
z"/>
<path fill="#F92C01" opacity="1.000000" stroke="none" 
	d="
M169.755478,722.166016 
	C153.688065,673.906372 146.207626,624.670837 147.482086,574.282715 
	C149.824463,481.672760 178.212677,397.706299 233.389847,323.189178 
	C281.181946,258.645691 342.413849,210.863358 416.436462,179.708450 
	C455.310394,163.347061 495.810425,153.114960 537.822449,148.656860 
	C576.665344,144.535095 615.386108,145.211380 653.872559,151.412766 
	C731.730164,163.958160 801.455078,195.113525 862.401428,245.235153 
	C927.528564,298.794891 973.658142,365.712433 1000.390320,445.694885 
	C1018.934326,501.178619 1025.746216,558.234314 1021.286743,616.639099 
	C1015.021301,698.695679 987.925659,773.172058 939.755371,839.803345 
	C892.816467,904.731445 832.423035,953.167297 758.955872,985.288269 
	C723.983765,1000.578674 687.598633,1010.988342 649.909058,1016.538757 
	C608.994812,1022.564148 567.932678,1023.223816 526.910461,1017.278137 
	C396.486298,998.374695 294.522980,933.813354 220.215210,825.342896 
	C198.464828,793.592896 182.118332,759.031738 169.755478,722.166016 
z"/>
</svg>