<svg version="1.1" id="Layer_1" xmlns="http://www.w3.org/2000/svg" xmlns:xlink="http://www.w3.org/1999/xlink" x="0px" y="0px"
	 width="100%" viewBox="0 0 1167 1166" enable-background="new 0 0 1167 1166" xml:space="preserve">
<path fill="#0D0E07" opacity="1.000000" stroke="none" 
	d="
M1.000000,1165.000000 
	C1.000000,778.500000 0.998887,392.000000 1.041213,5.500004 
	C1.041377,3.999968 1.666667,2.500000 2.512823,1.340070 
	C3.560765,2.311799 4.053744,2.985582 4.637026,3.569099 
	C42.515366,41.462715 80.403030,79.347008 118.285431,117.236565 
	C155.942459,154.900696 193.592941,192.571350 231.249802,230.235641 
	C268.661163,267.654358 306.076294,305.069244 343.490875,342.484741 
	C380.797333,379.792206 418.105316,417.098114 455.412384,454.404968 
	C492.740204,491.732483 530.067627,529.060364 567.395264,566.388062 
	C604.820129,603.813049 642.244934,641.238098 679.669861,678.663086 
	C716.869324,715.862732 754.068909,753.062317 791.268555,790.261841 
	C828.683899,827.677185 866.120911,865.070984 903.508850,902.513733 
	C939.519409,938.576904 975.436340,974.733704 1011.473999,1010.769775 
	C1045.950073,1045.244263 1080.520996,1079.623779 1115.064819,1114.030396 
	C1131.570923,1130.470825 1148.110962,1146.877319 1164.733643,1163.556641 
	C1165.008545,1164.137817 1165.185547,1164.461426 1164.874268,1164.834473 
	C1161.553955,1164.922607 1158.721924,1164.995239 1155.889771,1164.995239 
	C770.926514,1165.000244 385.963257,1165.000000 1.000000,1165.000000 
z"/>
<path fill="#0F7FB5" opacity="1.000000" stroke="none" 
	d="
M1164.635498,1163.299194 
	C1148.110962,1146.877319 1131.570923,1130.470825 1115.064819,1114.030396 
	C1080.520996,1079.623779 1045.950073,1045.244263 1011.473999,1010.769775 
	C975.436340,974.733704 939.519409,938.576904 903.508850,902.513733 
	C866.120911,865.070984 828.683899,827.677185 791.268555,790.261841 
	C754.068909,753.062317 716.869324,715.862732 679.669861,678.663086 
	C642.244934,641.238098 604.820129,603.813049 567.395264,566.388062 
	C530.067627,529.060364 492.740204,491.732483 455.412384,454.404968 
	C418.105316,417.098114 380.797333,379.792206 343.490875,342.484741 
	C306.076294,305.069244 268.661163,267.654358 231.249802,230.235641 
	C193.592941,192.571350 155.942459,154.900696 118.285431,117.236565 
	C80.403030,79.347008 42.515366,41.462715 4.637026,3.569099 
	C4.053744,2.985582 3.560765,2.311799 3.012823,1.340070 
	C390.354248,1.000000 777.708496,1.000000 1165.531372,1.461255 
	C1166.000000,385.316101 1166.000122,768.709656 1165.999634,1152.103271 
	C1165.999634,1154.102661 1166.168579,1156.122437 1165.939331,1158.095459 
	C1165.734619,1159.856812 1165.087524,1161.566650 1164.635498,1163.299194 
z"/>
<path fill="#42674A" opacity="1.000000" stroke="none" 
	d="
M1167.000000,1167.000000 
	C778.333313,1167.000000 389.666656,1167.000000 1.455948,1166.501831 
	C121.868073,1166.001953 241.824249,1165.999268 361.780426,1165.998901 
	C627.683289,1165.998291 893.586182,1166.001465 1159.489014,1165.955566 
	C1161.704468,1165.955200 1163.919922,1165.296387 1166.310303,1164.895752 
	C1166.485352,1164.846436 1166.848022,1164.819702 1166.968018,1165.173706 
	C1167.058716,1166.018433 1167.029297,1166.509277 1167.000000,1167.000000 
z"/>
<path fill="#357C9E" opacity="1.000000" stroke="none" 
	d="
M1166.848022,1164.819702 
	C1166.848022,1164.819702 1166.485352,1164.846436 1166.121338,1164.834717 
	C1165.757446,1164.823120 1165.362549,1164.785156 1165.362549,1164.785156 
	C1165.185547,1164.461426 1165.008545,1164.137817 1164.733521,1163.556641 
	C1165.087524,1161.566650 1165.734619,1159.856812 1165.939331,1158.095459 
	C1166.168579,1156.122437 1165.999634,1154.102661 1165.999634,1152.103271 
	C1166.000122,768.709656 1166.000000,385.316101 1166.000000,1.461255 
	C1166.000000,1.000000 1166.500000,1.000000 1166.750488,1.453632 
	C1167.000488,198.224670 1166.999878,394.542084 1166.999756,590.859497 
	C1166.999634,780.014709 1167.000610,969.169861 1166.993896,1158.325073 
	C1166.993896,1160.489990 1166.898804,1162.654785 1166.848022,1164.819702 
z"/>
<path fill="#B8D1D5" opacity="1.000000" stroke="none" 
	d="
M1166.968018,1165.173706 
	C1166.898804,1162.654785 1166.993896,1160.489990 1166.993896,1158.325073 
	C1167.000610,969.169861 1166.999634,780.014709 1166.999756,590.859497 
	C1166.999878,394.542084 1167.000488,198.224670 1167.000488,1.453627 
	C1167.333374,1.166655 1167.943970,1.315896 1167.955566,1.502778 
	C1168.039062,2.830878 1168.000000,4.166667 1168.000000,5.500000 
	C1168.000000,392.666656 1168.000000,779.833313 1167.500000,1167.000000 
	C1167.029297,1166.509277 1167.058716,1166.018433 1166.968018,1165.173706 
z"/>
<path fill="#001700" opacity="1.000000" stroke="none" 
	d="
M1164.874268,1164.834473 
	C1165.362549,1164.785156 1165.757446,1164.823120 1165.946411,1164.884033 
	C1163.919922,1165.296387 1161.704468,1165.955200 1159.489014,1165.955566 
	C893.586182,1166.001465 627.683289,1165.998291 361.780426,1165.998901 
	C241.824249,1165.999268 121.868073,1166.001953 1.455948,1166.001831 
	C1.000000,1166.000000 1.000000,1165.500000 1.000000,1165.250000 
	C385.963257,1165.000000 770.926514,1165.000244 1155.889771,1164.995239 
	C1158.721924,1164.995239 1161.553955,1164.922607 1164.874268,1164.834473 
z"/>
</svg>