<svg version="1.1" id="Layer_1" xmlns="http://www.w3.org/2000/svg" xmlns:xlink="http://www.w3.org/1999/xlink" x="0px" y="0px"
	 width="100%" viewBox="0 0 1166 1168" enable-background="new 0 0 1166 1168" xml:space="preserve">
<path fill="#038E4F" opacity="1.000000" stroke="none" 
	d="
M1.000000,1167.000000 
	C1.000000,778.377991 1.000000,389.755981 1.000000,1.066997 
	C389.577332,1.066997 778.154724,1.066997 1167.000000,1.066997 
	C1167.000000,389.365997 1167.000000,777.732056 1166.549561,1166.573853 
	C1162.766968,1167.037109 1159.434692,1167.013794 1156.102539,1167.013794 
	C771.068359,1167.008057 386.034180,1167.004150 1.000000,1167.000000 
M890.696106,453.804047 
	C788.522217,351.576691 686.348267,249.349319 583.762268,146.709656 
	C437.574890,292.896515 291.933777,438.537170 147.013290,583.457153 
	C293.242188,729.699341 438.708405,875.178711 584.463989,1020.947510 
	C729.598877,875.804626 875.141663,730.253906 1021.229553,584.157959 
	C977.638123,540.631592 934.413452,497.471466 890.696106,453.804047 
z"/>
<path fill="#9EAB7E" opacity="1.000000" stroke="none" 
	d="
M1.000000,1167.250000 
	C386.034180,1167.004150 771.068359,1167.008057 1156.102539,1167.013794 
	C1159.434692,1167.013794 1162.766968,1167.037109 1166.549561,1167.024780 
	C1167.000000,1167.666626 1167.000000,1168.333374 1166.175781,1168.731689 
	C1163.537354,1168.309082 1161.723389,1168.020142 1159.909302,1168.019897 
	C969.845703,1167.999390 779.782166,1167.997681 589.718567,1168.041870 
	C587.812317,1168.042236 585.906189,1168.666870 584.000000,1169.000000 
	C583.555542,1169.000000 583.111084,1169.000000 582.040894,1168.703003 
	C578.762695,1168.270630 576.110229,1168.016724 573.457764,1168.016479 
	C382.638519,1167.998047 191.819260,1167.999878 1.000000,1168.000000 
	C1.000000,1168.000000 1.000000,1167.500000 1.000000,1167.250000 
z"/>
<path fill="#E5F2C7" opacity="1.000000" stroke="none" 
	d="
M584.468628,1169.000000 
	C585.906189,1168.666870 587.812317,1168.042236 589.718567,1168.041870 
	C779.782166,1167.997681 969.845703,1167.999390 1159.909302,1168.019897 
	C1161.723389,1168.020142 1163.537354,1168.309082 1165.675781,1168.731689 
	C972.312439,1169.000000 778.624878,1169.000000 584.468628,1169.000000 
z"/>
<path fill="#E5F2C7" opacity="1.000000" stroke="none" 
	d="
M1.000000,1168.500000 
	C191.819260,1167.999878 382.638519,1167.998047 573.457764,1168.016479 
	C576.110229,1168.016724 578.762695,1168.270630 581.707581,1168.703003 
	C388.333344,1169.000000 194.666672,1169.000000 1.000000,1168.500000 
z"/>
<path fill="#0D0F07" opacity="1.000000" stroke="none" 
	d="
M890.942444,454.057678 
	C934.413452,497.471466 977.638123,540.631592 1021.229553,584.157959 
	C875.141663,730.253906 729.598877,875.804626 584.463989,1020.947510 
	C438.708405,875.178711 293.242188,729.699341 147.013290,583.457153 
	C291.933777,438.537170 437.574890,292.896515 583.762268,146.709656 
	C686.348267,249.349319 788.522217,351.576691 890.942444,454.057678 
z"/>
</svg>