<svg version="1.1" id="Layer_1" xmlns="http://www.w3.org/2000/svg" xmlns:xlink="http://www.w3.org/1999/xlink" x="0px" y="0px"
	 width="100%" viewBox="0 0 1167 1166" enable-background="new 0 0 1167 1166" xml:space="preserve">
<path fill="#0D0E08" opacity="1.000000" stroke="none" 
	d="
M1112.000000,1.000000 
	C1130.020874,1.000000 1148.041870,1.000000 1166.573486,1.459677 
	C1167.088989,195.093384 1167.093872,388.267426 1167.094727,581.441467 
	C1167.094727,582.272827 1167.036255,583.104126 1166.744263,584.264648 
	C1166.322388,586.901733 1166.020386,589.209656 1166.020142,591.517578 
	C1165.998291,780.477539 1166.000000,969.437500 1165.999756,1158.397461 
	C1165.999756,1165.997192 1165.998413,1165.999634 1158.489624,1165.999756 
	C1036.182251,1166.000244 913.874817,1166.000000 791.567444,1166.000000 
	C530.789368,1166.000000 270.011353,1165.997314 9.233306,1166.041382 
	C6.822149,1166.041870 4.411098,1166.666626 1.999996,1167.000000 
	C1.666662,1165.844604 1.046864,1164.690063 1.042887,1163.533569 
	C0.981456,1145.668335 1.000000,1127.802734 1.398504,1109.302124 
	C2.445183,1099.704956 3.108160,1090.743896 3.739188,1081.780640 
	C8.864554,1008.979187 20.710073,937.276184 39.689850,866.818176 
	C95.239777,660.601929 199.485031,482.732269 351.745026,333.092194 
	C443.522766,242.893692 547.713745,170.196381 663.742310,114.556206 
	C767.725525,64.692245 876.725952,30.825285 990.834656,14.080359 
	C1025.399414,9.008157 1060.326660,6.406407 1095.501709,2.737682 
	C1101.277222,2.201510 1106.638550,1.600754 1112.000000,1.000000 
z"/>
<path fill="#FFE8BF" opacity="1.000000" stroke="none" 
	d="
M1095.087769,2.673098 
	C1060.326660,6.406407 1025.399414,9.008157 990.834656,14.080359 
	C876.725952,30.825285 767.725525,64.692245 663.742310,114.556206 
	C547.713745,170.196381 443.522766,242.893692 351.745026,333.092194 
	C199.485031,482.732269 95.239777,660.601929 39.689850,866.818176 
	C20.710073,937.276184 8.864554,1008.979187 3.739188,1081.780640 
	C3.108160,1090.743896 2.445183,1099.704956 1.398504,1108.833496 
	C1.000000,740.312439 1.000000,371.624878 1.462634,2.466079 
	C363.693695,1.990490 725.462158,1.984678 1087.230591,2.010351 
	C1089.849609,2.010537 1092.468750,2.442658 1095.087769,2.673098 
z"/>
<path fill="#011900" opacity="1.000000" stroke="none" 
	d="
M2.468656,1167.000000 
	C4.411098,1166.666626 6.822149,1166.041870 9.233306,1166.041382 
	C270.011353,1165.997314 530.789368,1166.000000 791.567444,1166.000000 
	C913.874817,1166.000000 1036.182251,1166.000244 1158.489624,1165.999756 
	C1165.998413,1165.999634 1165.999756,1165.997192 1165.999756,1158.397461 
	C1166.000000,969.437500 1165.998291,780.477539 1166.020142,591.517578 
	C1166.020386,589.209656 1166.322388,586.901733 1166.775146,584.219360 
	C1167.066772,583.844910 1167.174194,583.867188 1167.107300,584.334106 
	C1167.028076,586.966431 1167.005005,589.131775 1167.004883,591.297180 
	C1167.002197,783.198120 1167.001221,975.099060 1167.000000,1167.000000 
	C778.979126,1167.000000 390.958221,1167.000000 2.468656,1167.000000 
z"/>
<path fill="#FFE989" opacity="1.000000" stroke="none" 
	d="
M1095.501709,2.737680 
	C1092.468750,2.442658 1089.849609,2.010537 1087.230591,2.010351 
	C725.462158,1.984678 363.693695,1.990490 1.462634,1.997422 
	C1.166475,1.666667 1.315534,1.056186 1.502220,1.044454 
	C2.829800,0.961027 4.165072,1.000000 5.497896,1.000000 
	C374.023499,1.000000 742.549133,1.000000 1111.537354,1.000000 
	C1106.638550,1.600754 1101.277222,2.201510 1095.501709,2.737680 
z"/>
<path fill="#FFE989" opacity="1.000000" stroke="none" 
	d="
M1167.035889,583.890198 
	C1167.036255,583.104126 1167.094727,582.272827 1167.094727,581.441467 
	C1167.093872,388.267426 1167.088989,195.093384 1167.041992,1.459688 
	C1167.333374,1.166328 1167.943848,1.315205 1167.955566,1.501730 
	C1168.038940,2.828831 1168.000000,4.163650 1168.000000,5.496017 
	C1168.000000,198.023178 1168.000000,390.550354 1167.804321,583.438965 
	C1167.608643,583.800354 1167.174194,583.867188 1167.174194,583.867188 
	C1167.174194,583.867188 1167.066772,583.844910 1167.035889,583.890198 
z"/>
<path fill="#4C825E" opacity="1.000000" stroke="none" 
	d="
M1167.107300,584.334106 
	C1167.174194,583.867188 1167.608643,583.800354 1167.804321,583.900146 
	C1168.000000,778.333313 1168.000000,972.666687 1167.500000,1167.000000 
	C1167.001221,975.099060 1167.002197,783.198120 1167.004883,591.297180 
	C1167.005005,589.131775 1167.028076,586.966431 1167.107300,584.334106 
z"/>
</svg>